<svg width="566" height="220" viewBox="0 0 566 220" fill="none" xmlns="http://www.w3.org/2000/svg">
<path d="M125.333 64.642H117.981L102 26.626H111.269L121.657 53.2451L132.125 26.626H141.474L125.333 64.642ZM151.981 26.5463V64.5623H143.511V26.5463H151.981ZM142.952 12.36C142.952 10.9786 143.405 9.83624 144.31 8.93299C145.216 8.02975 146.361 7.57812 147.746 7.57812C149.131 7.57812 150.276 8.02975 151.182 8.93299C152.088 9.83624 152.54 10.9786 152.54 12.36C152.54 13.7414 152.088 14.8838 151.182 15.787C150.276 16.6903 149.131 17.1419 147.746 17.1419C146.361 17.1419 145.216 16.6903 144.31 15.787C143.405 14.8838 142.952 13.7414 142.952 12.36ZM174.252 64.8014C170.683 64.8014 167.514 64.0044 164.744 62.4104C161.974 60.7633 159.789 58.5052 158.191 55.6361C156.646 52.7138 155.874 49.4196 155.874 45.7535C155.874 42.0343 156.646 38.7401 158.191 35.871C159.789 32.9487 161.974 30.6906 164.744 29.0966C167.514 27.4495 170.683 26.626 174.252 26.626C179.207 26.626 182.909 27.8746 185.359 30.3718C187.81 32.8159 189.381 34.9943 190.074 36.907C191.192 39.5105 191.752 42.6187 191.752 46.2317C191.752 47.1881 191.725 47.8788 191.672 48.3039C191.672 48.6758 191.672 48.9149 191.672 49.0211H164.184C164.664 51.5715 165.862 53.6436 167.78 55.2376C169.698 56.8316 171.855 57.6285 174.252 57.6285C176.969 57.6285 179.073 57.0972 180.565 56.0346C182.057 54.9719 183.122 53.9093 183.761 52.8467L190.553 55.8752C189.488 58.3193 187.543 60.418 184.72 62.1713C181.95 63.9247 178.461 64.8014 174.252 64.8014ZM183.681 42.3265C183.255 39.7762 182.27 37.7306 180.725 36.1897C179.18 34.5958 177.022 33.7988 174.252 33.7988C171.749 33.7988 169.565 34.5958 167.7 36.1897C165.836 37.7837 164.664 39.8293 164.184 42.3265H183.681ZM231.141 64.642H223.311L215.8 40.095L208.449 64.642H200.617L189.191 26.626H197.98L204.613 50.9339L211.484 26.626H219.955L227.066 50.9339L233.539 26.626H242.329L231.141 64.642Z" fill="#202020"/>
<path d="M330.761 105.089V113.537H295.922V105.089H330.761ZM357.61 105.089V113.537H322.771V105.089H357.61ZM384.46 105.089V113.537H349.621V105.089H384.46ZM416.972 131.549C418.463 131.549 419.982 131.203 421.526 130.513C423.125 129.769 424.456 128.812 425.522 127.644L431.355 133.461C429.703 135.268 427.546 136.756 424.883 137.925C422.219 139.04 419.689 139.598 417.291 139.598C413.562 139.598 410.233 138.801 407.303 137.207C404.373 135.56 402.083 133.276 400.431 130.353C398.78 127.431 397.954 124.137 397.954 120.471C397.954 116.751 398.78 113.457 400.431 110.588C402.083 107.666 404.373 105.381 407.303 103.734C410.233 102.087 413.562 101.263 417.291 101.263C419.795 101.263 422.326 101.848 424.883 103.017C427.439 104.133 429.597 105.62 431.355 107.48L425.522 113.218C424.456 112.049 423.125 111.119 421.526 110.429C419.982 109.685 418.463 109.313 416.972 109.313C413.829 109.313 411.272 110.322 409.301 112.341C407.383 114.361 406.424 117.07 406.424 120.471C406.424 123.818 407.383 126.501 409.301 128.52C411.272 130.539 413.829 131.549 416.972 131.549ZM448.052 139.678C444.589 139.678 441.473 138.854 438.703 137.207C435.986 135.56 433.855 133.302 432.31 130.433C430.766 127.511 429.993 124.217 429.993 120.55C429.993 116.884 430.766 113.617 432.31 110.748C433.855 107.825 435.986 105.541 438.703 103.893C441.473 102.246 444.589 101.423 448.052 101.423C450.023 101.423 451.967 101.874 453.885 102.778C455.803 103.681 457.507 105.009 458.999 106.763V101.343H467.469V139.359H458.999V134.258C457.561 136.065 455.883 137.42 453.965 138.323C452.047 139.226 450.076 139.678 448.052 139.678ZM438.463 120.55C438.463 124.11 439.395 127.006 441.26 129.237C443.124 131.416 445.575 132.505 448.611 132.505C450.476 132.505 452.207 132 453.805 130.991C455.403 129.928 456.682 128.494 457.641 126.687C458.599 124.828 459.079 122.782 459.079 120.55C459.079 118.319 458.599 116.3 457.641 114.493C456.682 112.634 455.403 111.199 453.805 110.19C452.207 109.127 450.476 108.596 448.611 108.596C445.575 108.596 443.124 109.685 441.26 111.863C439.395 114.042 438.463 116.937 438.463 120.55ZM475.875 108.596H468.683V101.263H475.875V87.9539H484.345V101.263H493.374V108.596H484.345V139.359H475.875V108.596ZM510.318 131.549C511.809 131.549 513.327 131.203 514.872 130.513C516.47 129.769 517.802 128.812 518.868 127.644L524.701 133.461C523.049 135.268 520.892 136.756 518.228 137.925C515.565 139.04 513.035 139.598 510.637 139.598C506.908 139.598 503.579 138.801 500.649 137.207C497.719 135.56 495.429 133.276 493.777 130.353C492.126 127.431 491.3 124.137 491.3 120.471C491.3 116.751 492.126 113.457 493.777 110.588C495.429 107.666 497.719 105.381 500.649 103.734C503.579 102.087 506.908 101.263 510.637 101.263C513.141 101.263 515.671 101.848 518.228 103.017C520.785 104.133 522.943 105.62 524.701 107.48L518.868 113.218C517.802 112.049 516.47 111.119 514.872 110.429C513.327 109.685 511.809 109.313 510.318 109.313C507.175 109.313 504.618 110.322 502.647 112.341C500.729 114.361 499.77 117.07 499.77 120.471C499.77 123.818 500.729 126.501 502.647 128.52C504.618 130.539 507.175 131.549 510.318 131.549ZM551.687 118.558C551.687 115.423 550.995 112.926 549.61 111.066C548.225 109.207 546.387 108.277 544.096 108.277C542.392 108.277 540.82 108.782 539.382 109.791C537.943 110.748 536.798 112.076 535.946 113.776C535.147 115.476 534.747 117.336 534.747 119.355V138.642H526.277V82.375H534.747V105.806C535.919 104.319 537.357 103.15 539.062 102.3C540.767 101.396 542.445 100.945 544.096 100.945C547.186 100.945 549.956 101.662 552.406 103.097C554.857 104.531 556.775 106.524 558.16 109.074C559.545 111.571 560.237 114.414 560.237 117.602V138.642H551.687V118.558Z" fill="#202020"/>
<path d="M326.282 156.074H0V213.357H326.282V156.074Z" fill="#DCD3C4"/>
<path d="M45.8666 214.076H38.0358L30.5247 189.529L23.1733 214.076H15.3426L3.91602 176.06H12.7057L19.3379 200.368L26.2098 176.06H34.6798L41.7914 200.368L48.2638 176.06H57.0534L45.8666 214.076ZM84.4836 193.274C84.4836 190.14 83.7911 187.642 82.4061 185.783C81.021 183.923 79.1832 182.993 76.8926 182.993C75.1879 182.993 73.6164 183.498 72.1781 184.508C70.7398 185.464 69.5945 186.792 68.7422 188.493C67.9431 190.193 67.5436 192.052 67.5436 194.071V213.358H59.0735V157.092H67.5436V180.523C68.7155 179.035 70.1538 177.866 71.8585 177.016C73.5631 176.113 75.2412 175.661 76.8926 175.661C79.9823 175.661 82.7523 176.378 85.2028 177.813C87.6532 179.248 89.571 181.24 90.956 183.79C92.341 186.288 93.0335 189.13 93.0335 192.318V213.358H84.4836V193.274ZM113.997 214.394C110.535 214.394 107.418 213.571 104.648 211.924C101.931 210.277 99.8006 208.019 98.2557 205.149C96.7109 202.227 95.9385 198.933 95.9385 195.267C95.9385 191.601 96.7109 188.333 98.2557 185.464C99.8006 182.542 101.931 180.257 104.648 178.61C107.418 176.963 110.535 176.139 113.997 176.139C115.968 176.139 117.913 176.591 119.831 177.494C121.749 178.397 123.454 179.726 124.945 181.479V176.06H133.414V214.076H124.945V208.975C123.507 210.781 121.829 212.136 119.91 213.04C117.993 213.943 116.022 214.394 113.997 214.394ZM104.409 195.267C104.409 198.827 105.342 201.722 107.206 203.954C109.07 206.132 111.52 207.222 114.557 207.222C116.422 207.222 118.153 206.717 119.751 205.707C121.349 204.645 122.628 203.21 123.586 201.404C124.546 199.544 125.025 197.498 125.025 195.267C125.025 193.035 124.546 191.016 123.586 189.21C122.628 187.35 121.349 185.916 119.751 184.906C118.153 183.844 116.422 183.312 114.557 183.312C111.52 183.312 109.07 184.401 107.206 186.58C105.342 188.758 104.409 191.654 104.409 195.267ZM141.82 183.312H134.629V175.98H141.82V162.67H150.29V175.98H159.32V183.312H150.29V214.076H141.82V183.312ZM168.761 169.445H162.608L165.565 150.477H174.354L168.761 169.445ZM185.621 201.005C186.42 202.918 187.645 204.406 189.297 205.468C190.948 206.531 192.52 207.062 194.011 207.062C196.036 207.062 197.634 206.717 198.806 206.026C199.978 205.282 200.564 204.246 200.564 202.918C200.564 201.855 199.978 201.005 198.806 200.368C197.634 199.73 195.743 198.96 193.132 198.056C190.575 197.153 188.471 196.303 186.82 195.506C185.168 194.709 183.703 193.567 182.425 192.079C181.2 190.538 180.587 188.652 180.587 186.42C180.587 183.126 181.919 180.523 184.582 178.61C187.246 176.644 190.575 175.661 194.571 175.661C196.275 175.661 198.06 176.007 199.924 176.697C201.842 177.388 203.547 178.451 205.038 179.885C206.583 181.32 207.649 183.1 208.235 185.225L201.123 187.775C200.537 185.916 199.605 184.64 198.326 183.95C197.101 183.259 195.849 182.914 194.571 182.914C192.866 182.914 191.508 183.232 190.495 183.87C189.537 184.508 189.057 185.358 189.057 186.42C189.057 187.483 189.59 188.307 190.655 188.891C191.721 189.476 193.638 190.246 196.408 191.202C198.965 192.106 201.07 192.982 202.721 193.832C204.426 194.629 205.891 195.772 207.116 197.259C208.394 198.747 209.034 200.607 209.034 202.838C209.034 206.292 207.649 209.081 204.878 211.207C202.108 213.279 198.486 214.315 194.011 214.315C191.028 214.315 188.125 213.465 185.302 211.764C182.478 210.011 180.374 207.7 178.989 204.831L185.621 201.005ZM232.903 157.092V213.996H224.433V157.092H232.903ZM246.673 175.98V213.996H238.203V175.98H246.673ZM237.644 161.794C237.644 160.412 238.097 159.27 239.002 158.367C239.908 157.463 241.053 157.012 242.438 157.012C243.823 157.012 244.969 157.463 245.874 158.367C246.78 159.27 247.233 160.412 247.233 161.794C247.233 163.175 246.78 164.317 245.874 165.221C244.969 166.124 243.823 166.576 242.438 166.576C241.053 166.576 239.908 166.124 239.002 165.221C238.097 164.317 237.644 163.175 237.644 161.794ZM272.319 214.076H264.968L248.987 176.06H258.256L268.643 202.679L279.111 176.06H288.46L272.319 214.076ZM303.52 214.235C299.951 214.235 296.781 213.438 294.011 211.844C291.241 210.197 289.057 207.939 287.459 205.07C285.914 202.148 285.141 198.853 285.141 195.187C285.141 191.468 285.914 188.174 287.459 185.305C289.057 182.382 291.241 180.124 294.011 178.53C296.781 176.883 299.951 176.06 303.52 176.06C308.474 176.06 312.176 177.308 314.627 179.805C317.077 182.25 318.649 184.428 319.341 186.341C320.46 188.944 321.019 192.052 321.019 195.665C321.019 196.622 320.993 197.312 320.939 197.738C320.939 198.109 320.939 198.349 320.939 198.455H293.452C293.931 201.005 295.13 203.077 297.047 204.671C298.965 206.265 301.123 207.062 303.52 207.062C306.237 207.062 308.341 206.531 309.832 205.468C311.324 204.406 312.389 203.343 313.029 202.28L319.821 205.309C318.755 207.753 316.811 209.852 313.987 211.605C311.217 213.358 307.728 214.235 303.52 214.235ZM312.949 191.76C312.523 189.21 311.537 187.164 309.992 185.623C308.447 184.029 306.29 183.232 303.52 183.232C301.016 183.232 298.832 184.029 296.967 185.623C295.103 187.217 293.931 189.263 293.452 191.76H312.949Z" fill="#202020"/>
<path d="M463.886 6.64062H252.469V63.9236H463.886V6.64062Z" fill="#FF491A"/>
<path d="M274.902 64.9608C271.44 64.9608 268.324 64.1372 265.553 62.4901C262.837 60.843 260.706 58.5849 259.161 55.7158C257.616 52.7935 256.844 49.4993 256.844 45.8332C256.844 42.1671 257.616 38.8995 259.161 36.0304C260.706 33.1081 262.837 30.8234 265.553 29.1763C268.324 27.5292 271.44 26.7057 274.902 26.7057C276.873 26.7057 278.818 27.1573 280.736 28.0605C282.653 28.9638 284.358 30.2921 285.85 32.0454V26.626H294.32V64.642H285.85V59.5413C284.411 61.3478 282.733 62.7027 280.816 63.6059C278.898 64.5091 276.927 64.9608 274.902 64.9608ZM265.314 45.8332C265.314 49.3931 266.246 52.2888 268.11 54.5203C269.975 56.6987 272.425 57.7879 275.462 57.7879C277.326 57.7879 279.058 57.2832 280.656 56.2737C282.254 55.211 283.532 53.7765 284.491 51.97C285.45 50.1104 285.929 48.0648 285.929 45.8332C285.929 43.6017 285.45 41.5826 284.491 39.7762C283.532 37.9165 282.254 36.482 280.656 35.4725C279.058 34.4098 277.326 33.8785 275.462 33.8785C272.425 33.8785 269.975 34.9677 268.11 37.1461C266.246 39.3245 265.314 42.2202 265.314 45.8332ZM306.698 7.65782V64.5623H298.228V7.65782H306.698ZM319.19 7.65782V64.5623H310.72V7.65782H319.19ZM352.894 57.6285C354.865 57.6285 356.65 57.0972 358.248 56.0346C359.846 54.9719 361.098 53.5374 362.003 51.7309C362.909 49.8713 363.362 47.8522 363.362 45.6738C363.362 43.5485 362.909 41.5826 362.003 39.7762C361.098 37.9165 359.846 36.4554 358.248 35.3928C356.65 34.3301 354.865 33.7988 352.894 33.7988C349.911 33.7988 347.487 34.888 345.623 37.0664C343.758 39.2448 342.826 42.114 342.826 45.6738C342.826 49.2868 343.731 52.1825 345.543 54.3609C347.407 56.5393 349.858 57.6285 352.894 57.6285ZM334.356 45.7535C334.356 42.0874 335.128 38.7932 336.673 35.871C338.218 32.9487 340.349 30.664 343.066 29.0169C345.836 27.3698 348.952 26.5463 352.415 26.5463C354.439 26.5463 356.436 27.051 358.407 28.0605C360.432 29.0169 362.083 30.3718 363.362 32.1251V26.5463H371.832V61.7728C371.832 65.3858 371.033 68.7066 369.434 71.7351C367.89 74.7636 365.679 77.1546 362.802 78.9079C359.926 80.6613 356.596 81.538 352.814 81.538C349.458 81.538 346.342 80.7941 343.465 79.3064C340.642 77.8719 338.324 75.6669 336.513 72.6915L343.225 68.2284C344.664 70.3005 346.102 71.7882 347.54 72.6915C349.032 73.5947 350.79 74.0464 352.814 74.0464C356.064 74.0464 358.621 72.9306 360.485 70.699C362.403 68.4675 363.362 65.7312 363.362 62.4901V59.1428C361.923 60.9493 360.192 62.3573 358.168 63.3668C356.197 64.3763 354.279 64.8811 352.415 64.8811C348.952 64.8811 345.836 64.0575 343.066 62.4104C340.349 60.7633 338.218 58.5052 336.673 55.6361C335.128 52.7138 334.356 49.4196 334.356 45.7535ZM385.489 26.5463V64.5623H377.019V26.5463H385.489ZM376.46 12.36C376.46 10.9786 376.912 9.83624 377.818 8.93299C378.724 8.02975 379.869 7.57812 381.254 7.57812C382.639 7.57812 383.784 8.02975 384.69 8.93299C385.595 9.83624 386.048 10.9786 386.048 12.36C386.048 13.7414 385.595 14.8838 384.69 15.787C383.784 16.6903 382.639 17.1419 381.254 17.1419C379.869 17.1419 378.724 16.6903 377.818 15.787C376.912 14.8838 376.46 13.7414 376.46 12.36ZM407.92 57.6285C409.891 57.6285 411.676 57.0972 413.274 56.0346C414.872 54.9719 416.124 53.5374 417.029 51.7309C417.935 49.8713 418.388 47.8522 418.388 45.6738C418.388 43.5485 417.935 41.5826 417.029 39.7762C416.124 37.9165 414.872 36.4554 413.274 35.3928C411.676 34.3301 409.891 33.7988 407.92 33.7988C404.937 33.7988 402.513 34.888 400.649 37.0664C398.784 39.2448 397.852 42.114 397.852 45.6738C397.852 49.2868 398.757 52.1825 400.569 54.3609C402.433 56.5393 404.884 57.6285 407.92 57.6285ZM389.382 45.7535C389.382 42.0874 390.154 38.7932 391.699 35.871C393.244 32.9487 395.375 30.664 398.092 29.0169C400.862 27.3698 403.978 26.5463 407.441 26.5463C409.465 26.5463 411.462 27.051 413.433 28.0605C415.458 29.0169 417.109 30.3718 418.388 32.1251V26.5463H426.858V61.7728C426.858 65.3858 426.059 68.7066 424.46 71.7351C422.916 74.7636 420.705 77.1546 417.828 78.9079C414.952 80.6613 411.622 81.538 407.84 81.538C404.484 81.538 401.368 80.7941 398.491 79.3064C395.668 77.8719 393.35 75.6669 391.539 72.6915L398.251 68.2284C399.69 70.3005 401.128 71.7882 402.566 72.6915C404.058 73.5947 405.816 74.0464 407.84 74.0464C411.09 74.0464 413.647 72.9306 415.511 70.699C417.429 68.4675 418.388 65.7312 418.388 62.4901V59.1428C416.949 60.9493 415.218 62.3573 413.194 63.3668C411.223 64.3763 409.305 64.8811 407.441 64.8811C403.978 64.8811 400.862 64.0575 398.092 62.4104C395.375 60.7633 393.244 58.5052 391.699 55.6361C390.154 52.7138 389.382 49.4196 389.382 45.7535ZM435.899 51.5715C436.698 53.4842 437.923 54.9719 439.574 56.0346C441.226 57.0972 442.797 57.6285 444.289 57.6285C446.313 57.6285 447.911 57.2832 449.083 56.5925C450.255 55.8486 450.841 54.8125 450.841 53.4842C450.841 52.4216 450.255 51.5715 449.083 50.9339C447.911 50.2963 446.02 49.5259 443.41 48.6227C440.853 47.7194 438.749 46.8693 437.097 46.0723C435.446 45.2753 433.981 44.133 432.702 42.6453C431.477 41.1045 430.865 39.2183 430.865 36.9867C430.865 33.6925 432.196 31.0891 434.86 29.1763C437.523 27.2104 440.853 26.2275 444.848 26.2275C446.553 26.2275 448.337 26.5728 450.202 27.2636C452.12 27.9543 453.824 29.0169 455.316 30.4515C456.861 31.886 457.926 33.666 458.512 35.7913L451.4 38.3416C450.814 36.482 449.882 35.2068 448.604 34.5161C447.379 33.8254 446.127 33.48 444.848 33.48C443.143 33.48 441.785 33.7988 440.773 34.4364C439.814 35.074 439.335 35.9241 439.335 36.9867C439.335 38.0494 439.867 38.8729 440.933 39.4574C441.998 40.0418 443.916 40.8122 446.686 41.7686C449.243 42.6719 451.347 43.5485 452.999 44.3987C454.703 45.1956 456.168 46.338 457.393 47.8257C458.672 49.3134 459.311 51.173 459.311 53.4045C459.311 56.8581 457.926 59.6476 455.156 61.7728C452.386 63.845 448.764 64.8811 444.289 64.8811C441.306 64.8811 438.402 64.031 435.579 62.3307C432.756 60.5774 430.652 58.2661 429.267 55.397L435.899 51.5715Z" fill="#202020"/>
</svg>
