<svg width="580" height="244" viewBox="0 0 580 244" fill="none" xmlns="http://www.w3.org/2000/svg">
<path d="M375 77H0V146H375V77Z" fill="#DCD3C4"/>
<path d="M17.7893 127.185C17.7893 130.641 18.7173 133.393 20.5733 135.441C22.4293 137.489 24.8933 138.513 27.9653 138.513C31.2293 138.513 33.8533 137.521 35.8373 135.537C37.8213 133.489 38.7813 130.737 38.7173 127.281V101.073H48.9893V146.865H38.7173V141.585C37.3093 143.313 35.5173 144.689 33.3413 145.713C31.1653 146.737 28.9253 147.249 26.6213 147.249C22.9733 147.249 19.7093 146.417 16.8293 144.753C13.9493 143.089 11.6773 140.785 10.0133 137.841C8.41329 134.833 7.61328 131.409 7.61328 127.569V101.073H17.7893V127.185ZM77.8243 138.513C81.5363 138.513 84.4803 137.201 86.6563 134.577C88.8963 131.889 90.0163 128.369 90.0163 124.017C90.0163 119.665 88.8963 116.177 86.6563 113.553C84.4803 110.865 81.5363 109.521 77.8243 109.521C75.5843 109.521 73.4723 110.161 71.4883 111.441C69.5683 112.721 68.0323 114.481 66.8803 116.721C65.7923 118.961 65.2483 121.393 65.2483 124.017C65.2483 126.641 65.7923 129.073 66.8803 131.313C68.0323 133.553 69.5683 135.313 71.4883 136.593C73.4723 137.873 75.5843 138.513 77.8243 138.513ZM54.9763 100.977H65.1523V107.697C66.8163 105.521 68.9283 103.857 71.4883 102.705C74.0483 101.553 76.3523 100.977 78.4003 100.977C82.6243 100.977 86.3683 101.969 89.6323 103.953C92.9603 105.873 95.5523 108.593 97.4083 112.113C99.2643 115.569 100.192 119.537 100.192 124.017C100.192 128.497 99.2643 132.497 97.4083 136.017C95.5523 139.537 92.9603 142.289 89.6323 144.273C86.3683 146.193 82.6243 147.153 78.4003 147.153C76.2883 147.153 73.9523 146.577 71.3923 145.425C68.8963 144.273 66.8163 142.577 65.1523 140.337V167.121H54.9763V100.977ZM125.165 137.457C126.957 137.457 128.781 137.041 130.637 136.209C132.557 135.313 134.157 134.161 135.437 132.753L142.445 139.761C140.461 141.937 137.869 143.729 134.669 145.137C131.469 146.481 128.429 147.153 125.549 147.153C121.069 147.153 117.069 146.193 113.549 144.273C110.029 142.289 107.277 139.537 105.293 136.017C103.309 132.497 102.317 128.529 102.317 124.113C102.317 119.633 103.309 115.665 105.293 112.209C107.277 108.689 110.029 105.937 113.549 103.953C117.069 101.969 121.069 100.977 125.549 100.977C128.557 100.977 131.597 101.681 134.669 103.089C137.741 104.433 140.333 106.225 142.445 108.465L135.437 115.377C134.157 113.969 132.557 112.849 130.637 112.017C128.781 111.121 126.957 110.673 125.165 110.673C121.389 110.673 118.317 111.889 115.949 114.321C113.645 116.753 112.493 120.017 112.493 124.113C112.493 128.145 113.645 131.377 115.949 133.809C118.317 136.241 121.389 137.457 125.165 137.457ZM162.889 138.513C166.473 138.513 169.353 137.201 171.529 134.577C173.705 131.953 174.793 128.465 174.793 124.113C174.793 119.825 173.705 116.369 171.529 113.745C169.353 111.057 166.473 109.713 162.889 109.713C159.305 109.713 156.425 111.025 154.249 113.649C152.073 116.273 150.985 119.761 150.985 124.113C150.985 128.465 152.073 131.953 154.249 134.577C156.425 137.201 159.305 138.513 162.889 138.513ZM140.809 124.113C140.809 119.633 141.737 115.665 143.593 112.209C145.513 108.689 148.137 105.937 151.465 103.953C154.793 101.969 158.601 100.977 162.889 100.977C167.177 100.977 170.985 101.969 174.313 103.953C177.641 105.937 180.233 108.689 182.089 112.209C184.009 115.665 184.969 119.633 184.969 124.113C184.969 128.529 184.009 132.497 182.089 136.017C180.233 139.537 177.641 142.289 174.313 144.273C170.985 146.257 167.177 147.249 162.889 147.249C158.601 147.249 154.793 146.257 151.465 144.273C148.137 142.289 145.513 139.537 143.593 136.017C141.737 132.497 140.809 128.529 140.809 124.113ZM245.817 120.849C245.817 117.585 245.017 114.961 243.417 112.977C241.817 110.993 239.705 110.001 237.081 110.001C234.201 110.001 231.833 110.993 229.977 112.977C228.185 114.961 227.289 117.425 227.289 120.369V146.865H217.017V120.849C217.017 117.585 216.217 114.961 214.617 112.977C213.081 110.993 211.033 110.001 208.473 110.001C205.593 110.001 203.193 111.089 201.273 113.265C199.417 115.441 198.489 118.161 198.489 121.425V146.865H188.313V101.073H198.489V107.313C199.897 105.457 201.529 103.985 203.385 102.897C205.305 101.745 207.321 101.169 209.433 101.169C212.121 101.169 214.713 101.937 217.209 103.473C219.705 105.009 221.625 106.993 222.969 109.425C224.569 106.993 226.745 105.009 229.497 103.473C232.249 101.937 235.001 101.169 237.753 101.169C241.337 101.169 244.505 102.001 247.257 103.665C250.073 105.329 252.249 107.633 253.785 110.577C255.321 113.457 256.089 116.753 256.089 120.465V146.865H245.817V120.849ZM272.374 100.977V146.769H262.198V100.977H272.374ZM261.526 83.8889C261.526 82.2249 262.07 80.8489 263.158 79.7609C264.246 78.6729 265.622 78.1289 267.286 78.1289C268.95 78.1289 270.326 78.6729 271.414 79.7609C272.502 80.8489 273.046 82.2249 273.046 83.8889C273.046 85.5529 272.502 86.9289 271.414 88.0169C270.326 89.1049 268.95 89.6489 267.286 89.6489C265.622 89.6489 264.246 89.1049 263.158 88.0169C262.07 86.9289 261.526 85.5529 261.526 83.8889ZM310.075 121.617C310.075 117.969 309.179 115.121 307.387 113.073C305.595 110.961 303.131 109.905 299.995 109.905C296.859 109.969 294.235 111.121 292.123 113.361C290.011 115.537 288.987 118.289 289.051 121.617V146.865H278.875V101.073H289.051V107.313C290.523 105.521 292.379 104.049 294.619 102.897C296.859 101.745 299.067 101.169 301.243 101.169C304.379 101.169 307.387 101.873 310.267 103.281C313.147 104.689 315.515 106.897 317.371 109.905C319.291 112.913 320.251 116.689 320.251 121.233V146.865H310.075V121.617ZM345.174 138.417C347.542 138.417 349.686 137.777 351.606 136.497C353.526 135.217 355.03 133.489 356.118 131.313C357.206 129.073 357.75 126.641 357.75 124.017C357.75 121.457 357.206 119.089 356.118 116.913C355.03 114.673 353.526 112.913 351.606 111.633C349.686 110.353 347.542 109.713 345.174 109.713C341.59 109.713 338.678 111.025 336.438 113.649C334.198 116.273 333.078 119.729 333.078 124.017C333.078 128.369 334.166 131.857 336.342 134.481C338.582 137.105 341.526 138.417 345.174 138.417ZM322.902 124.113C322.902 119.697 323.83 115.729 325.686 112.209C327.542 108.689 330.102 105.937 333.366 103.953C336.694 101.969 340.438 100.977 344.598 100.977C347.03 100.977 349.43 101.585 351.798 102.801C354.23 103.953 356.214 105.585 357.75 107.697V100.977H367.926V143.409C367.926 147.761 366.966 151.761 365.046 155.409C363.19 159.057 360.534 161.937 357.078 164.049C353.622 166.161 349.622 167.217 345.078 167.217C341.046 167.217 337.302 166.321 333.846 164.529C330.454 162.801 327.67 160.145 325.494 156.561L333.558 151.185C335.286 153.681 337.014 155.473 338.742 156.561C340.534 157.649 342.646 158.193 345.078 158.193C348.982 158.193 352.054 156.849 354.294 154.161C356.598 151.473 357.75 148.177 357.75 144.273V140.241C356.022 142.417 353.942 144.113 351.51 145.329C349.142 146.545 346.838 147.153 344.598 147.153C340.438 147.153 336.694 146.161 333.366 144.177C330.102 142.193 327.542 139.473 325.686 136.017C323.83 132.497 322.902 128.529 322.902 124.113Z" fill="#171717"/>
<path d="M580 167H247V236H580V167Z" fill="#DCD3C4"/>
<path d="M263.543 168.225V236.769H253.367V168.225H263.543ZM280.087 190.977V236.769H269.911V190.977H280.087ZM269.239 173.889C269.239 172.225 269.783 170.849 270.871 169.761C271.959 168.673 273.335 168.129 274.999 168.129C276.663 168.129 278.039 168.673 279.127 169.761C280.215 170.849 280.759 172.225 280.759 173.889C280.759 175.553 280.215 176.929 279.127 178.017C278.039 179.105 276.663 179.649 274.999 179.649C273.335 179.649 271.959 179.105 270.871 178.017C269.783 176.929 269.239 175.553 269.239 173.889ZM310.898 236.865H302.066L282.866 191.073H294.002L306.482 223.137L319.058 191.073H330.29L310.898 236.865ZM348.383 237.057C344.094 237.057 340.286 236.097 336.958 234.177C333.63 232.193 331.006 229.473 329.086 226.017C327.23 222.497 326.302 218.529 326.302 214.113C326.302 209.633 327.23 205.665 329.086 202.209C331.006 198.689 333.63 195.969 336.958 194.049C340.286 192.065 344.094 191.073 348.383 191.073C354.335 191.073 358.783 192.577 361.727 195.585C364.671 198.529 366.559 201.153 367.391 203.457C368.735 206.593 369.407 210.337 369.407 214.689C369.407 215.841 369.375 216.673 369.311 217.185C369.311 217.633 369.311 217.921 369.311 218.049H336.286C336.862 221.121 338.302 223.617 340.606 225.537C342.91 227.457 345.502 228.417 348.383 228.417C351.647 228.417 354.175 227.777 355.967 226.497C357.759 225.217 359.039 223.937 359.807 222.657L367.967 226.305C366.687 229.249 364.351 231.777 360.959 233.889C357.631 236.001 353.439 237.057 348.383 237.057ZM359.711 209.985C359.199 206.913 358.015 204.449 356.159 202.593C354.303 200.673 351.711 199.713 348.383 199.713C345.374 199.713 342.75 200.673 340.51 202.593C338.27 204.513 336.862 206.977 336.286 209.985H359.711ZM395.134 221.121C396.094 223.425 397.566 225.217 399.55 226.497C401.534 227.777 403.422 228.417 405.214 228.417C407.646 228.417 409.566 228.001 410.974 227.169C412.382 226.273 413.086 225.025 413.086 223.425C413.086 222.145 412.382 221.121 410.974 220.353C409.566 219.585 407.294 218.657 404.158 217.569C401.086 216.481 398.558 215.457 396.574 214.497C394.59 213.537 392.83 212.161 391.294 210.369C389.822 208.513 389.086 206.241 389.086 203.553C389.086 199.585 390.686 196.449 393.886 194.145C397.086 191.777 401.086 190.593 405.886 190.593C407.934 190.593 410.078 191.009 412.318 191.841C414.622 192.673 416.67 193.953 418.462 195.681C420.318 197.409 421.598 199.553 422.302 202.113L413.758 205.185C413.054 202.945 411.934 201.409 410.398 200.577C408.926 199.745 407.422 199.329 405.886 199.329C403.838 199.329 402.206 199.713 400.99 200.481C399.838 201.249 399.262 202.273 399.262 203.553C399.262 204.833 399.902 205.825 401.182 206.529C402.462 207.233 404.766 208.161 408.094 209.313C411.166 210.401 413.694 211.457 415.678 212.481C417.726 213.441 419.486 214.817 420.958 216.609C422.494 218.401 423.262 220.641 423.262 223.329C423.262 227.489 421.598 230.849 418.27 233.409C414.942 235.905 410.59 237.153 405.214 237.153C401.63 237.153 398.142 236.129 394.75 234.081C391.358 231.969 388.83 229.185 387.166 225.729L395.134 221.121ZM457.508 211.809C457.508 208.033 456.676 205.025 455.012 202.785C453.348 200.545 451.14 199.425 448.388 199.425C446.34 199.425 444.452 200.033 442.724 201.249C440.996 202.401 439.62 204.001 438.596 206.049C437.636 208.097 437.156 210.337 437.156 212.769V236.001H426.98V168.225H437.156V196.449C438.564 194.657 440.292 193.249 442.34 192.225C444.388 191.137 446.404 190.593 448.388 190.593C452.1 190.593 455.428 191.457 458.372 193.185C461.316 194.913 463.62 197.313 465.284 200.385C466.948 203.393 467.78 206.817 467.78 210.657V236.001H457.508V211.809ZM493.35 228.513C496.934 228.513 499.814 227.201 501.99 224.577C504.166 221.953 505.254 218.465 505.254 214.113C505.254 209.825 504.166 206.369 501.99 203.745C499.814 201.057 496.934 199.713 493.35 199.713C489.766 199.713 486.886 201.025 484.71 203.649C482.534 206.273 481.446 209.761 481.446 214.113C481.446 218.465 482.534 221.953 484.71 224.577C486.886 227.201 489.766 228.513 493.35 228.513ZM471.27 214.113C471.27 209.633 472.198 205.665 474.054 202.209C475.974 198.689 478.598 195.937 481.926 193.953C485.254 191.969 489.062 190.977 493.35 190.977C497.638 190.977 501.446 191.969 504.774 193.953C508.102 195.937 510.694 198.689 512.55 202.209C514.47 205.665 515.43 209.633 515.43 214.113C515.43 218.529 514.47 222.497 512.55 226.017C510.694 229.537 508.102 232.289 504.774 234.273C501.446 236.257 497.638 237.249 493.35 237.249C489.062 237.249 485.254 236.257 481.926 234.273C478.598 232.289 475.974 229.537 474.054 226.017C472.198 222.497 471.27 218.529 471.27 214.113ZM562.354 236.865H552.946L543.922 207.297L535.09 236.865H525.682L511.954 191.073H522.514L530.482 220.353L538.738 191.073H548.914L557.458 220.353L565.234 191.073H575.794L562.354 236.865Z" fill="#171717"/>
<path d="M450.5 8H213.5V77H450.5V8Z" fill="#DCD3C4"/>
<path d="M244.279 78.3436C242.231 78.3436 239.991 77.8316 237.559 76.8076C235.127 75.7196 232.951 73.9596 231.031 71.5276V77.9596H220.855V9.22363H231.031V38.8876C232.951 36.3916 235.095 34.6316 237.463 33.6076C239.895 32.5836 242.199 32.0716 244.375 32.0716C248.535 32.0716 252.279 33.0636 255.607 35.0476C258.935 37.0316 261.527 39.7836 263.383 43.3036C265.239 46.7596 266.167 50.7276 266.167 55.2076C266.167 59.6876 265.239 63.6876 263.383 67.2076C261.527 70.6636 258.935 73.3836 255.607 75.3676C252.279 77.3516 248.503 78.3436 244.279 78.3436ZM231.031 55.3036C231.031 57.9916 231.575 60.4556 232.663 62.6956C233.815 64.8716 235.351 66.5996 237.271 67.8796C239.255 69.1596 241.399 69.7996 243.703 69.7996C247.415 69.7996 250.391 68.4876 252.631 65.8636C254.871 63.1756 255.991 59.6556 255.991 55.3036C255.991 50.9516 254.871 47.4636 252.631 44.8396C250.391 42.2156 247.415 40.9036 243.703 40.9036C241.399 40.9036 239.255 41.5436 237.271 42.8236C235.351 44.1036 233.815 45.8636 232.663 48.1036C231.575 50.2796 231.031 52.6796 231.031 55.3036ZM280.07 58.1836C280.07 61.6396 280.998 64.3916 282.854 66.4396C284.71 68.4876 287.174 69.5116 290.246 69.5116C293.51 69.5116 296.134 68.5196 298.118 66.5356C300.102 64.4876 301.062 61.7356 300.998 58.2796V32.0716H311.27V77.8636H300.998V72.5836C299.59 74.3116 297.798 75.6876 295.622 76.7116C293.446 77.7356 291.206 78.2476 288.902 78.2476C285.254 78.2476 281.99 77.4156 279.11 75.7516C276.23 74.0876 273.958 71.7836 272.294 68.8396C270.694 65.8316 269.894 62.4076 269.894 58.5676V32.0716H280.07V58.1836ZM323.017 62.1196C323.977 64.4236 325.449 66.2156 327.433 67.4956C329.417 68.7756 331.305 69.4156 333.097 69.4156C335.529 69.4156 337.449 68.9996 338.857 68.1676C340.265 67.2716 340.969 66.0236 340.969 64.4236C340.969 63.1436 340.265 62.1196 338.857 61.3516C337.449 60.5836 335.177 59.6556 332.041 58.5676C328.969 57.4796 326.441 56.4556 324.457 55.4956C322.473 54.5356 320.713 53.1596 319.177 51.3676C317.705 49.5116 316.969 47.2396 316.969 44.5516C316.969 40.5836 318.569 37.4476 321.769 35.1436C324.969 32.7756 328.969 31.5916 333.769 31.5916C335.817 31.5916 337.961 32.0076 340.201 32.8396C342.505 33.6716 344.553 34.9516 346.345 36.6796C348.201 38.4076 349.481 40.5516 350.185 43.1116L341.641 46.1836C340.937 43.9436 339.817 42.4076 338.281 41.5756C336.809 40.7436 335.305 40.3276 333.769 40.3276C331.721 40.3276 330.089 40.7116 328.873 41.4796C327.721 42.2476 327.145 43.2716 327.145 44.5516C327.145 45.8316 327.785 46.8236 329.065 47.5276C330.345 48.2316 332.649 49.1596 335.977 50.3116C339.049 51.3996 341.577 52.4556 343.561 53.4796C345.609 54.4396 347.369 55.8156 348.841 57.6076C350.377 59.3996 351.145 61.6396 351.145 64.3276C351.145 68.4876 349.481 71.8476 346.153 74.4076C342.825 76.9036 338.473 78.1516 333.097 78.1516C329.513 78.1516 326.025 77.1276 322.633 75.0796C319.241 72.9676 316.713 70.1836 315.049 66.7276L323.017 62.1196ZM374.904 78.2476C370.744 78.2476 367 77.2556 363.672 75.2716C360.408 73.2876 357.848 70.5676 355.992 67.1116C354.136 63.5916 353.208 59.6236 353.208 55.2076C353.208 50.7916 354.136 46.8556 355.992 43.3996C357.848 39.8796 360.408 37.1276 363.672 35.1436C367 33.1596 370.744 32.1676 374.904 32.1676C377.272 32.1676 379.608 32.7116 381.912 33.7996C384.216 34.8876 386.264 36.4876 388.056 38.5996V32.0716H398.232V77.8636H388.056V71.7196C386.328 73.8956 384.312 75.5276 382.008 76.6156C379.704 77.7036 377.336 78.2476 374.904 78.2476ZM363.384 55.2076C363.384 59.4956 364.504 62.9836 366.744 65.6716C368.984 68.2956 371.928 69.6076 375.576 69.6076C377.816 69.6076 379.896 68.9996 381.816 67.7836C383.736 66.5036 385.272 64.7756 386.424 62.5996C387.576 60.3596 388.152 57.8956 388.152 55.2076C388.152 52.5196 387.576 50.0876 386.424 47.9116C385.272 45.6716 383.736 43.9436 381.816 42.7276C379.896 41.4476 377.816 40.8076 375.576 40.8076C371.928 40.8076 368.984 42.1196 366.744 44.7436C364.504 47.3676 363.384 50.8556 363.384 55.2076ZM434.239 52.6156C434.239 48.9676 433.343 46.1196 431.551 44.0716C429.759 41.9596 427.295 40.9036 424.159 40.9036C421.023 40.9676 418.399 42.1196 416.287 44.3596C414.175 46.5356 413.151 49.2876 413.215 52.6156V77.8636H403.039V32.0716H413.215V38.3116C414.687 36.5196 416.543 35.0476 418.783 33.8956C421.023 32.7436 423.231 32.1676 425.407 32.1676C428.543 32.1676 431.551 32.8716 434.431 34.2796C437.311 35.6876 439.679 37.8956 441.535 40.9036C443.455 43.9116 444.415 47.6876 444.415 52.2316V77.8636H434.239V52.6156Z" fill="#171717"/>
</svg>
