<svg width="580" height="244" viewBox="0 0 580 244" fill="none" xmlns="http://www.w3.org/2000/svg">
<path d="M375 77H0V146H375V77Z" fill="#F3703C"/>
<path d="M17.7893 127.185C17.7893 130.641 18.7173 133.393 20.5733 135.441C22.4293 137.489 24.8933 138.513 27.9653 138.513C31.2293 138.513 33.8533 137.521 35.8373 135.537C37.8213 133.489 38.7813 130.737 38.7173 127.281V101.073H48.9893V146.865H38.7173V141.585C37.3093 143.313 35.5173 144.689 33.3413 145.713C31.1653 146.737 28.9253 147.249 26.6213 147.249C22.9733 147.249 19.7093 146.417 16.8293 144.753C13.9493 143.089 11.6773 140.785 10.0133 137.841C8.41329 134.833 7.61328 131.409 7.61328 127.569V101.073H17.7893V127.185ZM77.8243 138.513C81.5363 138.513 84.4803 137.201 86.6563 134.577C88.8963 131.889 90.0163 128.369 90.0163 124.017C90.0163 119.665 88.8963 116.177 86.6563 113.553C84.4803 110.865 81.5363 109.521 77.8243 109.521C75.5843 109.521 73.4723 110.161 71.4883 111.441C69.5683 112.721 68.0323 114.481 66.8803 116.721C65.7923 118.961 65.2483 121.393 65.2483 124.017C65.2483 126.641 65.7923 129.073 66.8803 131.313C68.0323 133.553 69.5683 135.313 71.4883 136.593C73.4723 137.873 75.5843 138.513 77.8243 138.513ZM54.9763 100.977H65.1523V107.697C66.8163 105.521 68.9283 103.857 71.4883 102.705C74.0483 101.553 76.3523 100.977 78.4003 100.977C82.6243 100.977 86.3683 101.969 89.6323 103.953C92.9603 105.873 95.5523 108.593 97.4083 112.113C99.2643 115.569 100.192 119.537 100.192 124.017C100.192 128.497 99.2643 132.497 97.4083 136.017C95.5523 139.537 92.9603 142.289 89.6323 144.273C86.3683 146.193 82.6243 147.153 78.4003 147.153C76.2883 147.153 73.9523 146.577 71.3923 145.425C68.8963 144.273 66.8163 142.577 65.1523 140.337V167.121H54.9763V100.977ZM125.165 137.457C126.957 137.457 128.781 137.041 130.637 136.209C132.557 135.313 134.157 134.161 135.437 132.753L142.445 139.761C140.461 141.937 137.869 143.729 134.669 145.137C131.469 146.481 128.429 147.153 125.549 147.153C121.069 147.153 117.069 146.193 113.549 144.273C110.029 142.289 107.277 139.537 105.293 136.017C103.309 132.497 102.317 128.529 102.317 124.113C102.317 119.633 103.309 115.665 105.293 112.209C107.277 108.689 110.029 105.937 113.549 103.953C117.069 101.969 121.069 100.977 125.549 100.977C128.557 100.977 131.597 101.681 134.669 103.089C137.741 104.433 140.333 106.225 142.445 108.465L135.437 115.377C134.157 113.969 132.557 112.849 130.637 112.017C128.781 111.121 126.957 110.673 125.165 110.673C121.389 110.673 118.317 111.889 115.949 114.321C113.645 116.753 112.493 120.017 112.493 124.113C112.493 128.145 113.645 131.377 115.949 133.809C118.317 136.241 121.389 137.457 125.165 137.457ZM162.889 138.513C166.473 138.513 169.353 137.201 171.529 134.577C173.705 131.953 174.793 128.465 174.793 124.113C174.793 119.825 173.705 116.369 171.529 113.745C169.353 111.057 166.473 109.713 162.889 109.713C159.305 109.713 156.425 111.025 154.249 113.649C152.073 116.273 150.985 119.761 150.985 124.113C150.985 128.465 152.073 131.953 154.249 134.577C156.425 137.201 159.305 138.513 162.889 138.513ZM140.809 124.113C140.809 119.633 141.737 115.665 143.593 112.209C145.513 108.689 148.137 105.937 151.465 103.953C154.793 101.969 158.601 100.977 162.889 100.977C167.177 100.977 170.985 101.969 174.313 103.953C177.641 105.937 180.233 108.689 182.089 112.209C184.009 115.665 184.969 119.633 184.969 124.113C184.969 128.529 184.009 132.497 182.089 136.017C180.233 139.537 177.641 142.289 174.313 144.273C170.985 146.257 167.177 147.249 162.889 147.249C158.601 147.249 154.793 146.257 151.465 144.273C148.137 142.289 145.513 139.537 143.593 136.017C141.737 132.497 140.809 128.529 140.809 124.113ZM245.817 120.849C245.817 117.585 245.017 114.961 243.417 112.977C241.817 110.993 239.705 110.001 237.081 110.001C234.201 110.001 231.833 110.993 229.977 112.977C228.185 114.961 227.289 117.425 227.289 120.369V146.865H217.017V120.849C217.017 117.585 216.217 114.961 214.617 112.977C213.081 110.993 211.033 110.001 208.473 110.001C205.593 110.001 203.193 111.089 201.273 113.265C199.417 115.441 198.489 118.161 198.489 121.425V146.865H188.313V101.073H198.489V107.313C199.897 105.457 201.529 103.985 203.385 102.897C205.305 101.745 207.321 101.169 209.433 101.169C212.121 101.169 214.713 101.937 217.209 103.473C219.705 105.009 221.625 106.993 222.969 109.425C224.569 106.993 226.745 105.009 229.497 103.473C232.249 101.937 235.001 101.169 237.753 101.169C241.337 101.169 244.505 102.001 247.257 103.665C250.073 105.329 252.249 107.633 253.785 110.577C255.321 113.457 256.089 116.753 256.089 120.465V146.865H245.817V120.849ZM272.374 100.977V146.769H262.198V100.977H272.374ZM261.526 83.8889C261.526 82.2249 262.07 80.8489 263.158 79.7609C264.246 78.6729 265.622 78.1289 267.286 78.1289C268.95 78.1289 270.326 78.6729 271.414 79.7609C272.502 80.8489 273.046 82.2249 273.046 83.8889C273.046 85.5529 272.502 86.9289 271.414 88.0169C270.326 89.1049 268.95 89.6489 267.286 89.6489C265.622 89.6489 264.246 89.1049 263.158 88.0169C262.07 86.9289 261.526 85.5529 261.526 83.8889ZM310.075 121.617C310.075 117.969 309.179 115.121 307.387 113.073C305.595 110.961 303.131 109.905 299.995 109.905C296.859 109.969 294.235 111.121 292.123 113.361C290.011 115.537 288.987 118.289 289.051 121.617V146.865H278.875V101.073H289.051V107.313C290.523 105.521 292.379 104.049 294.619 102.897C296.859 101.745 299.067 101.169 301.243 101.169C304.379 101.169 307.387 101.873 310.267 103.281C313.147 104.689 315.515 106.897 317.371 109.905C319.291 112.913 320.251 116.689 320.251 121.233V146.865H310.075V121.617ZM345.174 138.417C347.542 138.417 349.686 137.777 351.606 136.497C353.526 135.217 355.03 133.489 356.118 131.313C357.206 129.073 357.75 126.641 357.75 124.017C357.75 121.457 357.206 119.089 356.118 116.913C355.03 114.673 353.526 112.913 351.606 111.633C349.686 110.353 347.542 109.713 345.174 109.713C341.59 109.713 338.678 111.025 336.438 113.649C334.198 116.273 333.078 119.729 333.078 124.017C333.078 128.369 334.166 131.857 336.342 134.481C338.582 137.105 341.526 138.417 345.174 138.417ZM322.902 124.113C322.902 119.697 323.83 115.729 325.686 112.209C327.542 108.689 330.102 105.937 333.366 103.953C336.694 101.969 340.438 100.977 344.598 100.977C347.03 100.977 349.43 101.585 351.798 102.801C354.23 103.953 356.214 105.585 357.75 107.697V100.977H367.926V143.409C367.926 147.761 366.966 151.761 365.046 155.409C363.19 159.057 360.534 161.937 357.078 164.049C353.622 166.161 349.622 167.217 345.078 167.217C341.046 167.217 337.302 166.321 333.846 164.529C330.454 162.801 327.67 160.145 325.494 156.561L333.558 151.185C335.286 153.681 337.014 155.473 338.742 156.561C340.534 157.649 342.646 158.193 345.078 158.193C348.982 158.193 352.054 156.849 354.294 154.161C356.598 151.473 357.75 148.177 357.75 144.273V140.241C356.022 142.417 353.942 144.113 351.51 145.329C349.142 146.545 346.838 147.153 344.598 147.153C340.438 147.153 336.694 146.161 333.366 144.177C330.102 142.193 327.542 139.473 325.686 136.017C323.83 132.497 322.902 128.529 322.902 124.113Z" fill="#202020"/>
<path d="M438 167H105V236H438V167Z" fill="#F3703C"/>
<path d="M121.543 168.225V236.769H111.367V168.225H121.543ZM138.087 190.977V236.769H127.911V190.977H138.087ZM127.239 173.889C127.239 172.225 127.783 170.849 128.871 169.761C129.959 168.673 131.335 168.129 132.999 168.129C134.663 168.129 136.039 168.673 137.127 169.761C138.215 170.849 138.759 172.225 138.759 173.889C138.759 175.553 138.215 176.929 137.127 178.017C136.039 179.105 134.663 179.649 132.999 179.649C131.335 179.649 129.959 179.105 128.871 178.017C127.783 176.929 127.239 175.553 127.239 173.889ZM168.898 236.865H160.066L140.866 191.073H152.002L164.482 223.137L177.058 191.073H188.29L168.898 236.865ZM206.383 237.057C202.094 237.057 198.286 236.097 194.958 234.177C191.63 232.193 189.006 229.473 187.086 226.017C185.23 222.497 184.302 218.529 184.302 214.113C184.302 209.633 185.23 205.665 187.086 202.209C189.006 198.689 191.63 195.969 194.958 194.049C198.286 192.065 202.094 191.073 206.383 191.073C212.335 191.073 216.783 192.577 219.727 195.585C222.671 198.529 224.559 201.153 225.391 203.457C226.735 206.593 227.407 210.337 227.407 214.689C227.407 215.841 227.375 216.673 227.311 217.185C227.311 217.633 227.311 217.921 227.311 218.049H194.286C194.862 221.121 196.302 223.617 198.606 225.537C200.91 227.457 203.502 228.417 206.383 228.417C209.647 228.417 212.175 227.777 213.967 226.497C215.759 225.217 217.039 223.937 217.807 222.657L225.967 226.305C224.687 229.249 222.351 231.777 218.959 233.889C215.631 236.001 211.439 237.057 206.383 237.057ZM217.711 209.985C217.199 206.913 216.015 204.449 214.159 202.593C212.303 200.673 209.711 199.713 206.383 199.713C203.374 199.713 200.75 200.673 198.51 202.593C196.27 204.513 194.862 206.977 194.286 209.985H217.711ZM253.134 221.121C254.094 223.425 255.566 225.217 257.55 226.497C259.534 227.777 261.422 228.417 263.214 228.417C265.646 228.417 267.566 228.001 268.974 227.169C270.382 226.273 271.086 225.025 271.086 223.425C271.086 222.145 270.382 221.121 268.974 220.353C267.566 219.585 265.294 218.657 262.158 217.569C259.086 216.481 256.558 215.457 254.574 214.497C252.59 213.537 250.83 212.161 249.294 210.369C247.822 208.513 247.086 206.241 247.086 203.553C247.086 199.585 248.686 196.449 251.886 194.145C255.086 191.777 259.086 190.593 263.886 190.593C265.934 190.593 268.078 191.009 270.318 191.841C272.622 192.673 274.67 193.953 276.462 195.681C278.318 197.409 279.598 199.553 280.302 202.113L271.758 205.185C271.054 202.945 269.934 201.409 268.398 200.577C266.926 199.745 265.422 199.329 263.886 199.329C261.838 199.329 260.206 199.713 258.99 200.481C257.838 201.249 257.262 202.273 257.262 203.553C257.262 204.833 257.902 205.825 259.182 206.529C260.462 207.233 262.766 208.161 266.094 209.313C269.166 210.401 271.694 211.457 273.678 212.481C275.726 213.441 277.486 214.817 278.958 216.609C280.494 218.401 281.262 220.641 281.262 223.329C281.262 227.489 279.598 230.849 276.27 233.409C272.942 235.905 268.59 237.153 263.214 237.153C259.63 237.153 256.142 236.129 252.75 234.081C249.358 231.969 246.83 229.185 245.166 225.729L253.134 221.121ZM315.508 211.809C315.508 208.033 314.676 205.025 313.012 202.785C311.348 200.545 309.14 199.425 306.388 199.425C304.34 199.425 302.452 200.033 300.724 201.249C298.996 202.401 297.62 204.001 296.596 206.049C295.636 208.097 295.156 210.337 295.156 212.769V236.001H284.98V168.225H295.156V196.449C296.564 194.657 298.292 193.249 300.34 192.225C302.388 191.137 304.404 190.593 306.388 190.593C310.1 190.593 313.428 191.457 316.372 193.185C319.316 194.913 321.62 197.313 323.284 200.385C324.948 203.393 325.78 206.817 325.78 210.657V236.001H315.508V211.809ZM351.35 228.513C354.934 228.513 357.814 227.201 359.99 224.577C362.166 221.953 363.254 218.465 363.254 214.113C363.254 209.825 362.166 206.369 359.99 203.745C357.814 201.057 354.934 199.713 351.35 199.713C347.766 199.713 344.886 201.025 342.71 203.649C340.534 206.273 339.446 209.761 339.446 214.113C339.446 218.465 340.534 221.953 342.71 224.577C344.886 227.201 347.766 228.513 351.35 228.513ZM329.27 214.113C329.27 209.633 330.198 205.665 332.054 202.209C333.974 198.689 336.598 195.937 339.926 193.953C343.254 191.969 347.062 190.977 351.35 190.977C355.638 190.977 359.446 191.969 362.774 193.953C366.102 195.937 368.694 198.689 370.55 202.209C372.47 205.665 373.43 209.633 373.43 214.113C373.43 218.529 372.47 222.497 370.55 226.017C368.694 229.537 366.102 232.289 362.774 234.273C359.446 236.257 355.638 237.249 351.35 237.249C347.062 237.249 343.254 236.257 339.926 234.273C336.598 232.289 333.974 229.537 332.054 226.017C330.198 222.497 329.27 218.529 329.27 214.113ZM420.354 236.865H410.946L401.922 207.297L393.09 236.865H383.682L369.954 191.073H380.514L388.482 220.353L396.738 191.073H406.914L415.458 220.353L423.234 191.073H433.794L420.354 236.865Z" fill="#202020"/>
<g clip-path="url(#clip0_5414_2932)">
<path d="M580 7.99609H215V76.9961H580V7.99609Z" fill="#F3703C"/>
<path d="M227.435 77.8603V40.9003H219.371V31.8763H227.435V22.2763C227.435 19.3963 228.075 16.7723 229.355 14.4043C230.699 12.0363 232.523 10.1803 234.827 8.83631C237.131 7.49231 239.755 6.82031 242.699 6.82031C244.619 6.82031 246.539 7.17231 248.459 7.87631C250.379 8.51631 251.851 9.34831 252.875 10.3723L247.691 17.8603C246.091 16.5163 244.619 15.8443 243.275 15.8443C241.611 15.8443 240.235 16.4203 239.147 17.5723C238.123 18.7243 237.611 20.2923 237.611 22.2763V31.8763H250.475V40.9003H237.611V77.8603H227.435ZM254.343 32.0683H264.519V38.7883C266.055 36.6123 268.103 34.8843 270.663 33.6043C273.223 32.3243 275.847 31.7483 278.535 31.8763V41.2843C275.911 41.1563 273.511 41.7643 271.335 43.1083C269.223 44.3883 267.559 46.1163 266.343 48.2923C265.127 50.4683 264.519 52.7403 264.519 55.1083V77.8603H254.343V32.0683ZM299.149 78.0523C294.861 78.0523 291.053 77.0923 287.725 75.1723C284.397 73.1883 281.773 70.4683 279.853 67.0123C277.997 63.4923 277.069 59.5243 277.069 55.1083C277.069 50.6283 277.997 46.6603 279.853 43.2043C281.773 39.6843 284.397 36.9643 287.725 35.0443C291.053 33.0603 294.861 32.0683 299.149 32.0683C305.101 32.0683 309.549 33.5723 312.493 36.5803C315.437 39.5243 317.325 42.1483 318.157 44.4523C319.501 47.5883 320.173 51.3323 320.173 55.6843C320.173 56.8363 320.141 57.6683 320.077 58.1803C320.077 58.6283 320.077 58.9163 320.077 59.0443H287.053C287.629 62.1163 289.069 64.6123 291.373 66.5323C293.677 68.4523 296.269 69.4123 299.149 69.4123C302.413 69.4123 304.941 68.7723 306.733 67.4923C308.525 66.2123 309.805 64.9323 310.573 63.6523L318.733 67.3003C317.453 70.2443 315.117 72.7723 311.725 74.8843C308.397 76.9963 304.205 78.0523 299.149 78.0523ZM310.477 50.9803C309.965 47.9083 308.781 45.4443 306.925 43.5883C305.069 41.6683 302.477 40.7083 299.149 40.7083C296.141 40.7083 293.517 41.6683 291.277 43.5883C289.037 45.5083 287.629 47.9723 287.053 50.9803H310.477ZM343.875 78.0523C339.587 78.0523 335.779 77.0923 332.451 75.1723C329.123 73.1883 326.499 70.4683 324.579 67.0123C322.723 63.4923 321.795 59.5243 321.795 55.1083C321.795 50.6283 322.723 46.6603 324.579 43.2043C326.499 39.6843 329.123 36.9643 332.451 35.0443C335.779 33.0603 339.587 32.0683 343.875 32.0683C349.827 32.0683 354.275 33.5723 357.219 36.5803C360.163 39.5243 362.051 42.1483 362.883 44.4523C364.227 47.5883 364.899 51.3323 364.899 55.6843C364.899 56.8363 364.867 57.6683 364.803 58.1803C364.803 58.6283 364.803 58.9163 364.803 59.0443H331.779C332.355 62.1163 333.795 64.6123 336.099 66.5323C338.403 68.4523 340.995 69.4123 343.875 69.4123C347.139 69.4123 349.667 68.7723 351.459 67.4923C353.251 66.2123 354.531 64.9323 355.299 63.6523L363.459 67.3003C362.179 70.2443 359.843 72.7723 356.451 74.8843C353.123 76.9963 348.931 78.0523 343.875 78.0523ZM355.203 50.9803C354.691 47.9083 353.507 45.4443 351.651 43.5883C349.795 41.6683 347.203 40.7083 343.875 40.7083C340.867 40.7083 338.243 41.6683 336.003 43.5883C333.763 45.5083 332.355 47.9723 331.779 50.9803H355.203ZM404.547 78.0523C400.259 78.0523 396.451 77.0923 393.123 75.1723C389.795 73.1883 387.171 70.4683 385.251 67.0123C383.395 63.4923 382.467 59.5243 382.467 55.1083C382.467 50.6283 383.395 46.6603 385.251 43.2043C387.171 39.6843 389.795 36.9643 393.123 35.0443C396.451 33.0603 400.259 32.0683 404.547 32.0683C410.499 32.0683 414.947 33.5723 417.891 36.5803C420.835 39.5243 422.723 42.1483 423.555 44.4523C424.899 47.5883 425.571 51.3323 425.571 55.6843C425.571 56.8363 425.539 57.6683 425.475 58.1803C425.475 58.6283 425.475 58.9163 425.475 59.0443H392.451C393.027 62.1163 394.467 64.6123 396.771 66.5323C399.075 68.4523 401.667 69.4123 404.547 69.4123C407.811 69.4123 410.339 68.7723 412.131 67.4923C413.923 66.2123 415.203 64.9323 415.971 63.6523L424.131 67.3003C422.851 70.2443 420.515 72.7723 417.123 74.8843C413.795 76.9963 409.603 78.0523 404.547 78.0523ZM415.875 50.9803C415.363 47.9083 414.179 45.4443 412.323 43.5883C410.467 41.6683 407.875 40.7083 404.547 40.7083C401.539 40.7083 398.915 41.6683 396.675 43.5883C394.435 45.5083 393.027 47.9723 392.451 50.9803H415.875ZM459.842 52.6123C459.842 48.9643 458.946 46.1163 457.154 44.0683C455.362 41.9563 452.898 40.9003 449.762 40.9003C446.626 40.9643 444.002 42.1163 441.89 44.3563C439.778 46.5323 438.754 49.2843 438.818 52.6123V77.8603H428.642V32.0683H438.818V38.3083C440.29 36.5163 442.146 35.0443 444.386 33.8923C446.626 32.7403 448.834 32.1643 451.01 32.1643C454.146 32.1643 457.154 32.8683 460.034 34.2763C462.914 35.6843 465.282 37.8923 467.138 40.9003C469.058 43.9083 470.018 47.6843 470.018 52.2283V77.8603H459.842V52.6123ZM479.128 40.8043H470.488V31.9723H479.128V15.9403H489.304V31.9723H500.152V40.8043H489.304V77.8603H479.128V40.8043ZM503.552 32.0683H513.728V38.7883C515.264 36.6123 517.312 34.8843 519.872 33.6043C522.432 32.3243 525.056 31.7483 527.744 31.8763V41.2843C525.12 41.1563 522.72 41.7643 520.544 43.1083C518.432 44.3883 516.768 46.1163 515.552 48.2923C514.336 50.4683 513.728 52.7403 513.728 55.1083V77.8603H503.552V32.0683ZM536.994 97.7323L546.978 74.0203L528.546 32.0683H539.778L552.354 62.4043L564.45 32.0683H575.49L558.402 73.2523L548.13 97.7323H536.994Z" fill="#202020"/>
</g>
<defs>
<clipPath id="clip0_5414_2932">
<rect width="365" height="91" fill="white" transform="translate(215 6.82031)"/>
</clipPath>
</defs>
</svg>
