<svg width="580" height="244" viewBox="0 0 580 244" fill="none" xmlns="http://www.w3.org/2000/svg">
<path d="M375 77H0V146H375V77Z" fill="#DCD3C4"/>
<path d="M17.7893 127.185C17.7893 130.641 18.7173 133.393 20.5733 135.441C22.4293 137.489 24.8933 138.513 27.9653 138.513C31.2293 138.513 33.8533 137.521 35.8373 135.537C37.8213 133.489 38.7813 130.737 38.7173 127.281V101.073H48.9893V146.865H38.7173V141.585C37.3093 143.313 35.5173 144.689 33.3413 145.713C31.1653 146.737 28.9253 147.249 26.6213 147.249C22.9733 147.249 19.7093 146.417 16.8293 144.753C13.9493 143.089 11.6773 140.785 10.0133 137.841C8.41329 134.833 7.61328 131.409 7.61328 127.569V101.073H17.7893V127.185ZM77.8243 138.513C81.5363 138.513 84.4803 137.201 86.6563 134.577C88.8963 131.889 90.0163 128.369 90.0163 124.017C90.0163 119.665 88.8963 116.177 86.6563 113.553C84.4803 110.865 81.5363 109.521 77.8243 109.521C75.5843 109.521 73.4723 110.161 71.4883 111.441C69.5683 112.721 68.0323 114.481 66.8803 116.721C65.7923 118.961 65.2483 121.393 65.2483 124.017C65.2483 126.641 65.7923 129.073 66.8803 131.313C68.0323 133.553 69.5683 135.313 71.4883 136.593C73.4723 137.873 75.5843 138.513 77.8243 138.513ZM54.9763 100.977H65.1523V107.697C66.8163 105.521 68.9283 103.857 71.4883 102.705C74.0483 101.553 76.3523 100.977 78.4003 100.977C82.6243 100.977 86.3683 101.969 89.6323 103.953C92.9603 105.873 95.5523 108.593 97.4083 112.113C99.2643 115.569 100.192 119.537 100.192 124.017C100.192 128.497 99.2643 132.497 97.4083 136.017C95.5523 139.537 92.9603 142.289 89.6323 144.273C86.3683 146.193 82.6243 147.153 78.4003 147.153C76.2883 147.153 73.9523 146.577 71.3923 145.425C68.8963 144.273 66.8163 142.577 65.1523 140.337V167.121H54.9763V100.977ZM125.165 137.457C126.957 137.457 128.781 137.041 130.637 136.209C132.557 135.313 134.157 134.161 135.437 132.753L142.445 139.761C140.461 141.937 137.869 143.729 134.669 145.137C131.469 146.481 128.429 147.153 125.549 147.153C121.069 147.153 117.069 146.193 113.549 144.273C110.029 142.289 107.277 139.537 105.293 136.017C103.309 132.497 102.317 128.529 102.317 124.113C102.317 119.633 103.309 115.665 105.293 112.209C107.277 108.689 110.029 105.937 113.549 103.953C117.069 101.969 121.069 100.977 125.549 100.977C128.557 100.977 131.597 101.681 134.669 103.089C137.741 104.433 140.333 106.225 142.445 108.465L135.437 115.377C134.157 113.969 132.557 112.849 130.637 112.017C128.781 111.121 126.957 110.673 125.165 110.673C121.389 110.673 118.317 111.889 115.949 114.321C113.645 116.753 112.493 120.017 112.493 124.113C112.493 128.145 113.645 131.377 115.949 133.809C118.317 136.241 121.389 137.457 125.165 137.457ZM162.889 138.513C166.473 138.513 169.353 137.201 171.529 134.577C173.705 131.953 174.793 128.465 174.793 124.113C174.793 119.825 173.705 116.369 171.529 113.745C169.353 111.057 166.473 109.713 162.889 109.713C159.305 109.713 156.425 111.025 154.249 113.649C152.073 116.273 150.985 119.761 150.985 124.113C150.985 128.465 152.073 131.953 154.249 134.577C156.425 137.201 159.305 138.513 162.889 138.513ZM140.809 124.113C140.809 119.633 141.737 115.665 143.593 112.209C145.513 108.689 148.137 105.937 151.465 103.953C154.793 101.969 158.601 100.977 162.889 100.977C167.177 100.977 170.985 101.969 174.313 103.953C177.641 105.937 180.233 108.689 182.089 112.209C184.009 115.665 184.969 119.633 184.969 124.113C184.969 128.529 184.009 132.497 182.089 136.017C180.233 139.537 177.641 142.289 174.313 144.273C170.985 146.257 167.177 147.249 162.889 147.249C158.601 147.249 154.793 146.257 151.465 144.273C148.137 142.289 145.513 139.537 143.593 136.017C141.737 132.497 140.809 128.529 140.809 124.113ZM245.817 120.849C245.817 117.585 245.017 114.961 243.417 112.977C241.817 110.993 239.705 110.001 237.081 110.001C234.201 110.001 231.833 110.993 229.977 112.977C228.185 114.961 227.289 117.425 227.289 120.369V146.865H217.017V120.849C217.017 117.585 216.217 114.961 214.617 112.977C213.081 110.993 211.033 110.001 208.473 110.001C205.593 110.001 203.193 111.089 201.273 113.265C199.417 115.441 198.489 118.161 198.489 121.425V146.865H188.313V101.073H198.489V107.313C199.897 105.457 201.529 103.985 203.385 102.897C205.305 101.745 207.321 101.169 209.433 101.169C212.121 101.169 214.713 101.937 217.209 103.473C219.705 105.009 221.625 106.993 222.969 109.425C224.569 106.993 226.745 105.009 229.497 103.473C232.249 101.937 235.001 101.169 237.753 101.169C241.337 101.169 244.505 102.001 247.257 103.665C250.073 105.329 252.249 107.633 253.785 110.577C255.321 113.457 256.089 116.753 256.089 120.465V146.865H245.817V120.849ZM272.374 100.977V146.769H262.198V100.977H272.374ZM261.526 83.8889C261.526 82.2249 262.07 80.8489 263.158 79.7609C264.246 78.6729 265.622 78.1289 267.286 78.1289C268.95 78.1289 270.326 78.6729 271.414 79.7609C272.502 80.8489 273.046 82.2249 273.046 83.8889C273.046 85.5529 272.502 86.9289 271.414 88.0169C270.326 89.1049 268.95 89.6489 267.286 89.6489C265.622 89.6489 264.246 89.1049 263.158 88.0169C262.07 86.9289 261.526 85.5529 261.526 83.8889ZM310.075 121.617C310.075 117.969 309.179 115.121 307.387 113.073C305.595 110.961 303.131 109.905 299.995 109.905C296.859 109.969 294.235 111.121 292.123 113.361C290.011 115.537 288.987 118.289 289.051 121.617V146.865H278.875V101.073H289.051V107.313C290.523 105.521 292.379 104.049 294.619 102.897C296.859 101.745 299.067 101.169 301.243 101.169C304.379 101.169 307.387 101.873 310.267 103.281C313.147 104.689 315.515 106.897 317.371 109.905C319.291 112.913 320.251 116.689 320.251 121.233V146.865H310.075V121.617ZM345.174 138.417C347.542 138.417 349.686 137.777 351.606 136.497C353.526 135.217 355.03 133.489 356.118 131.313C357.206 129.073 357.75 126.641 357.75 124.017C357.75 121.457 357.206 119.089 356.118 116.913C355.03 114.673 353.526 112.913 351.606 111.633C349.686 110.353 347.542 109.713 345.174 109.713C341.59 109.713 338.678 111.025 336.438 113.649C334.198 116.273 333.078 119.729 333.078 124.017C333.078 128.369 334.166 131.857 336.342 134.481C338.582 137.105 341.526 138.417 345.174 138.417ZM322.902 124.113C322.902 119.697 323.83 115.729 325.686 112.209C327.542 108.689 330.102 105.937 333.366 103.953C336.694 101.969 340.438 100.977 344.598 100.977C347.03 100.977 349.43 101.585 351.798 102.801C354.23 103.953 356.214 105.585 357.75 107.697V100.977H367.926V143.409C367.926 147.761 366.966 151.761 365.046 155.409C363.19 159.057 360.534 161.937 357.078 164.049C353.622 166.161 349.622 167.217 345.078 167.217C341.046 167.217 337.302 166.321 333.846 164.529C330.454 162.801 327.67 160.145 325.494 156.561L333.558 151.185C335.286 153.681 337.014 155.473 338.742 156.561C340.534 157.649 342.646 158.193 345.078 158.193C348.982 158.193 352.054 156.849 354.294 154.161C356.598 151.473 357.75 148.177 357.75 144.273V140.241C356.022 142.417 353.942 144.113 351.51 145.329C349.142 146.545 346.838 147.153 344.598 147.153C340.438 147.153 336.694 146.161 333.366 144.177C330.102 142.193 327.542 139.473 325.686 136.017C323.83 132.497 322.902 128.529 322.902 124.113Z" fill="#171717"/>
<path d="M457 167H124V236H457V167Z" fill="#DCD3C4"/>
<path d="M140.543 168.225V236.769H130.367V168.225H140.543ZM157.087 190.977V236.769H146.911V190.977H157.087ZM146.239 173.889C146.239 172.225 146.783 170.849 147.871 169.761C148.959 168.673 150.335 168.129 151.999 168.129C153.663 168.129 155.039 168.673 156.127 169.761C157.215 170.849 157.759 172.225 157.759 173.889C157.759 175.553 157.215 176.929 156.127 178.017C155.039 179.105 153.663 179.649 151.999 179.649C150.335 179.649 148.959 179.105 147.871 178.017C146.783 176.929 146.239 175.553 146.239 173.889ZM187.898 236.865H179.066L159.866 191.073H171.002L183.482 223.137L196.058 191.073H207.29L187.898 236.865ZM225.383 237.057C221.094 237.057 217.286 236.097 213.958 234.177C210.63 232.193 208.006 229.473 206.086 226.017C204.23 222.497 203.302 218.529 203.302 214.113C203.302 209.633 204.23 205.665 206.086 202.209C208.006 198.689 210.63 195.969 213.958 194.049C217.286 192.065 221.094 191.073 225.383 191.073C231.335 191.073 235.783 192.577 238.727 195.585C241.671 198.529 243.559 201.153 244.391 203.457C245.735 206.593 246.407 210.337 246.407 214.689C246.407 215.841 246.375 216.673 246.311 217.185C246.311 217.633 246.311 217.921 246.311 218.049H213.286C213.862 221.121 215.302 223.617 217.606 225.537C219.91 227.457 222.502 228.417 225.383 228.417C228.647 228.417 231.175 227.777 232.967 226.497C234.759 225.217 236.039 223.937 236.807 222.657L244.967 226.305C243.687 229.249 241.351 231.777 237.959 233.889C234.631 236.001 230.439 237.057 225.383 237.057ZM236.711 209.985C236.199 206.913 235.015 204.449 233.159 202.593C231.303 200.673 228.711 199.713 225.383 199.713C222.374 199.713 219.75 200.673 217.51 202.593C215.27 204.513 213.862 206.977 213.286 209.985H236.711ZM272.134 221.121C273.094 223.425 274.566 225.217 276.55 226.497C278.534 227.777 280.422 228.417 282.214 228.417C284.646 228.417 286.566 228.001 287.974 227.169C289.382 226.273 290.086 225.025 290.086 223.425C290.086 222.145 289.382 221.121 287.974 220.353C286.566 219.585 284.294 218.657 281.158 217.569C278.086 216.481 275.558 215.457 273.574 214.497C271.59 213.537 269.83 212.161 268.294 210.369C266.822 208.513 266.086 206.241 266.086 203.553C266.086 199.585 267.686 196.449 270.886 194.145C274.086 191.777 278.086 190.593 282.886 190.593C284.934 190.593 287.078 191.009 289.318 191.841C291.622 192.673 293.67 193.953 295.462 195.681C297.318 197.409 298.598 199.553 299.302 202.113L290.758 205.185C290.054 202.945 288.934 201.409 287.398 200.577C285.926 199.745 284.422 199.329 282.886 199.329C280.838 199.329 279.206 199.713 277.99 200.481C276.838 201.249 276.262 202.273 276.262 203.553C276.262 204.833 276.902 205.825 278.182 206.529C279.462 207.233 281.766 208.161 285.094 209.313C288.166 210.401 290.694 211.457 292.678 212.481C294.726 213.441 296.486 214.817 297.958 216.609C299.494 218.401 300.262 220.641 300.262 223.329C300.262 227.489 298.598 230.849 295.27 233.409C291.942 235.905 287.59 237.153 282.214 237.153C278.63 237.153 275.142 236.129 271.75 234.081C268.358 231.969 265.83 229.185 264.166 225.729L272.134 221.121ZM334.508 211.809C334.508 208.033 333.676 205.025 332.012 202.785C330.348 200.545 328.14 199.425 325.388 199.425C323.34 199.425 321.452 200.033 319.724 201.249C317.996 202.401 316.62 204.001 315.596 206.049C314.636 208.097 314.156 210.337 314.156 212.769V236.001H303.98V168.225H314.156V196.449C315.564 194.657 317.292 193.249 319.34 192.225C321.388 191.137 323.404 190.593 325.388 190.593C329.1 190.593 332.428 191.457 335.372 193.185C338.316 194.913 340.62 197.313 342.284 200.385C343.948 203.393 344.78 206.817 344.78 210.657V236.001H334.508V211.809ZM370.35 228.513C373.934 228.513 376.814 227.201 378.99 224.577C381.166 221.953 382.254 218.465 382.254 214.113C382.254 209.825 381.166 206.369 378.99 203.745C376.814 201.057 373.934 199.713 370.35 199.713C366.766 199.713 363.886 201.025 361.71 203.649C359.534 206.273 358.446 209.761 358.446 214.113C358.446 218.465 359.534 221.953 361.71 224.577C363.886 227.201 366.766 228.513 370.35 228.513ZM348.27 214.113C348.27 209.633 349.198 205.665 351.054 202.209C352.974 198.689 355.598 195.937 358.926 193.953C362.254 191.969 366.062 190.977 370.35 190.977C374.638 190.977 378.446 191.969 381.774 193.953C385.102 195.937 387.694 198.689 389.55 202.209C391.47 205.665 392.43 209.633 392.43 214.113C392.43 218.529 391.47 222.497 389.55 226.017C387.694 229.537 385.102 232.289 381.774 234.273C378.446 236.257 374.638 237.249 370.35 237.249C366.062 237.249 362.254 236.257 358.926 234.273C355.598 232.289 352.974 229.537 351.054 226.017C349.198 222.497 348.27 218.529 348.27 214.113ZM439.354 236.865H429.946L420.922 207.297L412.09 236.865H402.682L388.954 191.073H399.514L407.482 220.353L415.738 191.073H425.914L434.458 220.353L442.234 191.073H452.794L439.354 236.865Z" fill="#171717"/>
<mask id="mask0_5414_2896" style="mask-type:luminance" maskUnits="userSpaceOnUse" x="244" y="8" width="336" height="91">
<path d="M580 8H244V99H580V8Z" fill="white"/>
</mask>
<g mask="url(#mask0_5414_2896)">
<path d="M580 8H244V77H580V8Z" fill="#DCD3C4"/>
<path d="M283.196 52.8067C283.196 49.0307 282.364 46.0227 280.7 43.7827C279.036 41.5427 276.828 40.4227 274.076 40.4227C272.028 40.4227 270.14 41.0307 268.412 42.2467C266.684 43.3987 265.308 44.9987 264.284 47.0467C263.324 49.0947 262.844 51.3347 262.844 53.7667V76.9987H252.668V9.22266H262.844V37.4467C264.252 35.6547 265.98 34.2467 268.028 33.2227C270.076 32.1347 272.092 31.5907 274.076 31.5907C277.788 31.5907 281.116 32.4547 284.06 34.1827C287.004 35.9107 289.308 38.3107 290.972 41.3827C292.636 44.3907 293.468 47.8147 293.468 51.6547V76.9987H283.196V52.8067ZM318.538 69.5107C322.122 69.5107 325.002 68.1987 327.178 65.5747C329.354 62.9507 330.442 59.4627 330.442 55.1107C330.442 50.8227 329.354 47.3667 327.178 44.7427C325.002 42.0547 322.122 40.7107 318.538 40.7107C314.954 40.7107 312.074 42.0227 309.898 44.6467C307.722 47.2707 306.634 50.7587 306.634 55.1107C306.634 59.4627 307.722 62.9507 309.898 65.5747C312.074 68.1987 314.954 69.5107 318.538 69.5107ZM296.458 55.1107C296.458 50.6307 297.386 46.6627 299.242 43.2067C301.162 39.6867 303.786 36.9347 307.114 34.9507C310.442 32.9667 314.25 31.9747 318.538 31.9747C322.826 31.9747 326.634 32.9667 329.962 34.9507C333.29 36.9347 335.882 39.6867 337.738 43.2067C339.658 46.6627 340.618 50.6307 340.618 55.1107C340.618 59.5267 339.658 63.4947 337.738 67.0147C335.882 70.5347 333.29 73.2867 329.962 75.2707C326.634 77.2547 322.826 78.2467 318.538 78.2467C314.25 78.2467 310.442 77.2547 307.114 75.2707C303.786 73.2867 301.162 70.5347 299.242 67.0147C297.386 63.4947 296.458 59.5267 296.458 55.1107ZM374.989 52.6147C374.989 48.9667 374.093 46.1187 372.301 44.0707C370.509 41.9587 368.045 40.9027 364.909 40.9027C361.773 40.9667 359.149 42.1187 357.037 44.3587C354.925 46.5347 353.901 49.2867 353.965 52.6147V77.8627H343.79V32.0707H353.965V38.3107C355.437 36.5187 357.293 35.0467 359.533 33.8947C361.773 32.7427 363.981 32.1667 366.157 32.1667C369.293 32.1667 372.301 32.8707 375.181 34.2787C378.061 35.6867 380.429 37.8947 382.285 40.9027C384.205 43.9107 385.165 47.6867 385.165 52.2307V77.8627H374.989V52.6147ZM410.089 69.4147C412.457 69.4147 414.601 68.7747 416.521 67.4947C418.441 66.2147 419.945 64.4867 421.033 62.3107C422.121 60.0707 422.665 57.6387 422.665 55.0147C422.665 52.4547 422.121 50.0867 421.033 47.9107C419.945 45.6707 418.441 43.9107 416.521 42.6307C414.601 41.3507 412.457 40.7107 410.089 40.7107C406.505 40.7107 403.593 42.0227 401.353 44.6467C399.113 47.2707 397.993 50.7267 397.993 55.0147C397.993 59.3667 399.081 62.8547 401.257 65.4787C403.497 68.1027 406.441 69.4147 410.089 69.4147ZM387.817 55.1107C387.817 50.6947 388.745 46.7267 390.601 43.2067C392.457 39.6867 395.017 36.9347 398.281 34.9507C401.609 32.9667 405.353 31.9747 409.513 31.9747C411.945 31.9747 414.345 32.5827 416.713 33.7987C419.145 34.9507 421.129 36.5827 422.665 38.6947V31.9747H432.841V74.4067C432.841 78.7587 431.881 82.7587 429.961 86.4067C428.105 90.0547 425.449 92.9347 421.993 95.0467C418.537 97.1587 414.537 98.2147 409.993 98.2147C405.961 98.2147 402.217 97.3187 398.761 95.5267C395.369 93.7987 392.585 91.1427 390.409 87.5587L398.473 82.1827C400.201 84.6787 401.929 86.4707 403.657 87.5587C405.449 88.6467 407.561 89.1907 409.993 89.1907C413.897 89.1907 416.969 87.8467 419.209 85.1587C421.513 82.4707 422.665 79.1747 422.665 75.2707V71.2387C420.937 73.4147 418.857 75.1107 416.425 76.3267C414.057 77.5427 411.753 78.1507 409.513 78.1507C405.353 78.1507 401.609 77.1587 398.281 75.1747C395.017 73.1907 392.457 70.4707 390.601 67.0147C388.745 63.4947 387.817 59.5267 387.817 55.1107ZM457.304 78.2467C453.144 78.2467 449.4 77.2547 446.072 75.2707C442.744 73.2867 440.152 70.5667 438.296 67.1107C436.44 63.5907 435.512 59.5907 435.512 55.1107C435.512 50.6307 436.44 46.6627 438.296 43.2067C440.152 39.6867 442.744 36.9347 446.072 34.9507C449.4 32.9667 453.144 31.9747 457.304 31.9747C459.48 31.9747 461.784 32.5187 464.216 33.6067C466.712 34.6947 468.856 36.4227 470.648 38.7907V9.22266H480.824V77.8627H470.648V71.4307C468.792 73.7347 466.616 75.4627 464.12 76.6147C461.688 77.7027 459.416 78.2467 457.304 78.2467ZM445.688 55.2067C445.688 59.5587 446.808 63.0787 449.048 65.7667C451.288 68.3907 454.264 69.7027 457.976 69.7027C460.28 69.7027 462.392 69.0627 464.312 67.7827C466.232 66.5027 467.768 64.7747 468.92 62.5987C470.072 60.3587 470.648 57.8947 470.648 55.2067C470.648 52.5827 470.072 50.1507 468.92 47.9107C467.768 45.6707 466.2 43.9107 464.216 42.6307C462.296 41.3507 460.216 40.7107 457.976 40.7107C454.264 40.7107 451.288 42.0547 449.048 44.7427C446.808 47.3667 445.688 50.8547 445.688 55.2067ZM505.309 78.2467C501.149 78.2467 497.405 77.2547 494.077 75.2707C490.813 73.2867 488.253 70.5667 486.397 67.1107C484.541 63.5907 483.613 59.6227 483.613 55.2067C483.613 50.7907 484.541 46.8547 486.397 43.3987C488.253 39.8787 490.813 37.1267 494.077 35.1427C497.405 33.1587 501.149 32.1667 505.309 32.1667C507.677 32.1667 510.013 32.7107 512.317 33.7987C514.621 34.8867 516.669 36.4867 518.461 38.5987V32.0707H528.637V77.8627H518.461V71.7187C516.733 73.8947 514.717 75.5267 512.413 76.6147C510.109 77.7027 507.741 78.2467 505.309 78.2467ZM493.789 55.2067C493.789 59.4947 494.909 62.9827 497.149 65.6707C499.389 68.2947 502.333 69.6067 505.981 69.6067C508.221 69.6067 510.301 68.9987 512.221 67.7827C514.141 66.5027 515.677 64.7747 516.829 62.5987C517.981 60.3587 518.557 57.8947 518.557 55.2067C518.557 52.5187 517.981 50.0867 516.829 47.9107C515.677 45.6707 514.141 43.9427 512.221 42.7267C510.301 41.4467 508.221 40.8067 505.981 40.8067C502.333 40.8067 499.389 42.1187 497.149 44.7427C494.909 47.3667 493.789 50.8547 493.789 55.2067ZM553.357 78.0547C549.069 78.0547 545.261 77.0947 541.933 75.1747C538.605 73.1907 535.981 70.4707 534.061 67.0147C532.205 63.4947 531.277 59.5267 531.277 55.1107C531.277 50.6307 532.205 46.6627 534.061 43.2067C535.981 39.6867 538.605 36.9667 541.933 35.0467C545.261 33.0627 549.069 32.0707 553.357 32.0707C559.309 32.0707 563.757 33.5747 566.701 36.5827C569.645 39.5267 571.533 42.1507 572.365 44.4547C573.709 47.5907 574.381 51.3347 574.381 55.6867C574.381 56.8387 574.349 57.6707 574.285 58.1827C574.285 58.6307 574.285 58.9187 574.285 59.0467H541.261C541.837 62.1187 543.277 64.6147 545.581 66.5347C547.885 68.4547 550.477 69.4147 553.357 69.4147C556.621 69.4147 559.149 68.7747 560.941 67.4947C562.733 66.2147 564.013 64.9347 564.781 63.6547L572.941 67.3027C571.661 70.2467 569.325 72.7747 565.933 74.8867C562.605 76.9987 558.413 78.0547 553.357 78.0547ZM564.685 50.9827C564.173 47.9107 562.989 45.4467 561.133 43.5907C559.277 41.6707 556.685 40.7107 553.357 40.7107C550.349 40.7107 547.725 41.6707 545.485 43.5907C543.245 45.5107 541.837 47.9747 541.261 50.9827H564.685Z" fill="#171717"/>
</g>
</svg>
