<svg width="580" height="244" viewBox="0 0 580 244" fill="none" xmlns="http://www.w3.org/2000/svg">
<path d="M580 77H205V146H580V77Z" fill="#C4B59C" fill-opacity="0.6"/>
<path d="M222.789 127.185C222.789 130.641 223.717 133.393 225.573 135.441C227.429 137.489 229.893 138.513 232.965 138.513C236.229 138.513 238.853 137.521 240.837 135.537C242.821 133.489 243.781 130.737 243.717 127.281V101.073H253.989V146.865H243.717V141.585C242.309 143.313 240.517 144.689 238.341 145.713C236.165 146.737 233.925 147.249 231.621 147.249C227.973 147.249 224.709 146.417 221.829 144.753C218.949 143.089 216.677 140.785 215.013 137.841C213.413 134.833 212.613 131.409 212.613 127.569V101.073H222.789V127.185ZM282.824 138.513C286.536 138.513 289.48 137.201 291.656 134.577C293.896 131.889 295.016 128.369 295.016 124.017C295.016 119.665 293.896 116.177 291.656 113.553C289.48 110.865 286.536 109.521 282.824 109.521C280.584 109.521 278.472 110.161 276.488 111.441C274.568 112.721 273.032 114.481 271.88 116.721C270.792 118.961 270.248 121.393 270.248 124.017C270.248 126.641 270.792 129.073 271.88 131.313C273.032 133.553 274.568 135.313 276.488 136.593C278.472 137.873 280.584 138.513 282.824 138.513ZM259.976 100.977H270.152V107.697C271.816 105.521 273.928 103.857 276.488 102.705C279.048 101.553 281.352 100.977 283.4 100.977C287.624 100.977 291.368 101.969 294.632 103.953C297.96 105.873 300.552 108.593 302.408 112.113C304.264 115.569 305.192 119.537 305.192 124.017C305.192 128.497 304.264 132.497 302.408 136.017C300.552 139.537 297.96 142.289 294.632 144.273C291.368 146.193 287.624 147.153 283.4 147.153C281.288 147.153 278.952 146.577 276.392 145.425C273.896 144.273 271.816 142.577 270.152 140.337V167.121H259.976V100.977ZM330.165 137.457C331.957 137.457 333.781 137.041 335.637 136.209C337.557 135.313 339.157 134.161 340.437 132.753L347.445 139.761C345.461 141.937 342.869 143.729 339.669 145.137C336.469 146.481 333.429 147.153 330.549 147.153C326.069 147.153 322.069 146.193 318.549 144.273C315.029 142.289 312.277 139.537 310.293 136.017C308.309 132.497 307.317 128.529 307.317 124.113C307.317 119.633 308.309 115.665 310.293 112.209C312.277 108.689 315.029 105.937 318.549 103.953C322.069 101.969 326.069 100.977 330.549 100.977C333.557 100.977 336.597 101.681 339.669 103.089C342.741 104.433 345.333 106.225 347.445 108.465L340.437 115.377C339.157 113.969 337.557 112.849 335.637 112.017C333.781 111.121 331.957 110.673 330.165 110.673C326.389 110.673 323.317 111.889 320.949 114.321C318.645 116.753 317.493 120.017 317.493 124.113C317.493 128.145 318.645 131.377 320.949 133.809C323.317 136.241 326.389 137.457 330.165 137.457ZM367.889 138.513C371.473 138.513 374.353 137.201 376.529 134.577C378.705 131.953 379.793 128.465 379.793 124.113C379.793 119.825 378.705 116.369 376.529 113.745C374.353 111.057 371.473 109.713 367.889 109.713C364.305 109.713 361.425 111.025 359.249 113.649C357.073 116.273 355.985 119.761 355.985 124.113C355.985 128.465 357.073 131.953 359.249 134.577C361.425 137.201 364.305 138.513 367.889 138.513ZM345.809 124.113C345.809 119.633 346.737 115.665 348.593 112.209C350.513 108.689 353.137 105.937 356.465 103.953C359.793 101.969 363.601 100.977 367.889 100.977C372.177 100.977 375.985 101.969 379.313 103.953C382.641 105.937 385.233 108.689 387.089 112.209C389.009 115.665 389.969 119.633 389.969 124.113C389.969 128.529 389.009 132.497 387.089 136.017C385.233 139.537 382.641 142.289 379.313 144.273C375.985 146.257 372.177 147.249 367.889 147.249C363.601 147.249 359.793 146.257 356.465 144.273C353.137 142.289 350.513 139.537 348.593 136.017C346.737 132.497 345.809 128.529 345.809 124.113ZM450.817 120.849C450.817 117.585 450.017 114.961 448.417 112.977C446.817 110.993 444.705 110.001 442.081 110.001C439.201 110.001 436.833 110.993 434.977 112.977C433.185 114.961 432.289 117.425 432.289 120.369V146.865H422.017V120.849C422.017 117.585 421.217 114.961 419.617 112.977C418.081 110.993 416.033 110.001 413.473 110.001C410.593 110.001 408.193 111.089 406.273 113.265C404.417 115.441 403.489 118.161 403.489 121.425V146.865H393.313V101.073H403.489V107.313C404.897 105.457 406.529 103.985 408.385 102.897C410.305 101.745 412.321 101.169 414.433 101.169C417.121 101.169 419.713 101.937 422.209 103.473C424.705 105.009 426.625 106.993 427.969 109.425C429.569 106.993 431.745 105.009 434.497 103.473C437.249 101.937 440.001 101.169 442.753 101.169C446.337 101.169 449.505 102.001 452.257 103.665C455.073 105.329 457.249 107.633 458.785 110.577C460.321 113.457 461.089 116.753 461.089 120.465V146.865H450.817V120.849ZM477.374 100.977V146.769H467.198V100.977H477.374ZM466.526 83.8889C466.526 82.2249 467.07 80.8489 468.158 79.7609C469.246 78.6729 470.622 78.1289 472.286 78.1289C473.95 78.1289 475.326 78.6729 476.414 79.7609C477.502 80.8489 478.046 82.2249 478.046 83.8889C478.046 85.5529 477.502 86.9289 476.414 88.0169C475.326 89.1049 473.95 89.6489 472.286 89.6489C470.622 89.6489 469.246 89.1049 468.158 88.0169C467.07 86.9289 466.526 85.5529 466.526 83.8889ZM515.075 121.617C515.075 117.969 514.179 115.121 512.387 113.073C510.595 110.961 508.131 109.905 504.995 109.905C501.859 109.969 499.235 111.121 497.123 113.361C495.011 115.537 493.987 118.289 494.051 121.617V146.865H483.875V101.073H494.051V107.313C495.523 105.521 497.379 104.049 499.619 102.897C501.859 101.745 504.067 101.169 506.243 101.169C509.379 101.169 512.387 101.873 515.267 103.281C518.147 104.689 520.515 106.897 522.371 109.905C524.291 112.913 525.251 116.689 525.251 121.233V146.865H515.075V121.617ZM550.174 138.417C552.542 138.417 554.686 137.777 556.606 136.497C558.526 135.217 560.03 133.489 561.118 131.313C562.206 129.073 562.75 126.641 562.75 124.017C562.75 121.457 562.206 119.089 561.118 116.913C560.03 114.673 558.526 112.913 556.606 111.633C554.686 110.353 552.542 109.713 550.174 109.713C546.59 109.713 543.678 111.025 541.438 113.649C539.198 116.273 538.078 119.729 538.078 124.017C538.078 128.369 539.166 131.857 541.342 134.481C543.582 137.105 546.526 138.417 550.174 138.417ZM527.902 124.113C527.902 119.697 528.83 115.729 530.686 112.209C532.542 108.689 535.102 105.937 538.366 103.953C541.694 101.969 545.438 100.977 549.598 100.977C552.03 100.977 554.43 101.585 556.798 102.801C559.23 103.953 561.214 105.585 562.75 107.697V100.977H572.926V143.409C572.926 147.761 571.966 151.761 570.046 155.409C568.19 159.057 565.534 161.937 562.078 164.049C558.622 166.161 554.622 167.217 550.078 167.217C546.046 167.217 542.302 166.321 538.846 164.529C535.454 162.801 532.67 160.145 530.494 156.561L538.558 151.185C540.286 153.681 542.014 155.473 543.742 156.561C545.534 157.649 547.646 158.193 550.078 158.193C553.982 158.193 557.054 156.849 559.294 154.161C561.598 151.473 562.75 148.177 562.75 144.273V140.241C561.022 142.417 558.942 144.113 556.51 145.329C554.142 146.545 551.838 147.153 549.598 147.153C545.438 147.153 541.694 146.161 538.366 144.177C535.102 142.193 532.542 139.473 530.686 136.017C528.83 132.497 527.902 128.529 527.902 124.113Z" fill="#171717"/>
<path d="M333 167H0V236H333V167Z" fill="#C4B59C" fill-opacity="0.6"/>
<path d="M16.5432 168.225V236.769H6.36719V168.225H16.5432ZM33.0867 190.977V236.769H22.9107V190.977H33.0867ZM22.2387 173.889C22.2387 172.225 22.7827 170.849 23.8707 169.761C24.9587 168.673 26.3347 168.129 27.9987 168.129C29.6627 168.129 31.0387 168.673 32.1267 169.761C33.2147 170.849 33.7587 172.225 33.7587 173.889C33.7587 175.553 33.2147 176.929 32.1267 178.017C31.0387 179.105 29.6627 179.649 27.9987 179.649C26.3347 179.649 24.9587 179.105 23.8707 178.017C22.7827 176.929 22.2387 175.553 22.2387 173.889ZM63.8982 236.865H55.0662L35.8662 191.073H47.0022L59.4822 223.137L72.0582 191.073H83.2902L63.8982 236.865ZM101.383 237.057C97.0945 237.057 93.2865 236.097 89.9585 234.177C86.6305 232.193 84.0065 229.473 82.0865 226.017C80.2305 222.497 79.3025 218.529 79.3025 214.113C79.3025 209.633 80.2305 205.665 82.0865 202.209C84.0065 198.689 86.6305 195.969 89.9585 194.049C93.2865 192.065 97.0945 191.073 101.383 191.073C107.335 191.073 111.783 192.577 114.727 195.585C117.671 198.529 119.559 201.153 120.391 203.457C121.735 206.593 122.407 210.337 122.407 214.689C122.407 215.841 122.375 216.673 122.311 217.185C122.311 217.633 122.311 217.921 122.311 218.049H89.2865C89.8625 221.121 91.3025 223.617 93.6065 225.537C95.9105 227.457 98.5025 228.417 101.383 228.417C104.647 228.417 107.175 227.777 108.967 226.497C110.759 225.217 112.039 223.937 112.807 222.657L120.967 226.305C119.687 229.249 117.351 231.777 113.959 233.889C110.631 236.001 106.439 237.057 101.383 237.057ZM112.711 209.985C112.199 206.913 111.015 204.449 109.159 202.593C107.303 200.673 104.711 199.713 101.383 199.713C98.3745 199.713 95.7505 200.673 93.5105 202.593C91.2705 204.513 89.8625 206.977 89.2865 209.985H112.711ZM148.134 221.121C149.094 223.425 150.566 225.217 152.55 226.497C154.534 227.777 156.422 228.417 158.214 228.417C160.646 228.417 162.566 228.001 163.974 227.169C165.382 226.273 166.086 225.025 166.086 223.425C166.086 222.145 165.382 221.121 163.974 220.353C162.566 219.585 160.294 218.657 157.158 217.569C154.086 216.481 151.558 215.457 149.574 214.497C147.59 213.537 145.83 212.161 144.294 210.369C142.822 208.513 142.086 206.241 142.086 203.553C142.086 199.585 143.686 196.449 146.886 194.145C150.086 191.777 154.086 190.593 158.886 190.593C160.934 190.593 163.078 191.009 165.318 191.841C167.622 192.673 169.67 193.953 171.462 195.681C173.318 197.409 174.598 199.553 175.302 202.113L166.758 205.185C166.054 202.945 164.934 201.409 163.398 200.577C161.926 199.745 160.422 199.329 158.886 199.329C156.838 199.329 155.206 199.713 153.99 200.481C152.838 201.249 152.262 202.273 152.262 203.553C152.262 204.833 152.902 205.825 154.182 206.529C155.462 207.233 157.766 208.161 161.094 209.313C164.166 210.401 166.694 211.457 168.678 212.481C170.726 213.441 172.486 214.817 173.958 216.609C175.494 218.401 176.262 220.641 176.262 223.329C176.262 227.489 174.598 230.849 171.27 233.409C167.942 235.905 163.59 237.153 158.214 237.153C154.63 237.153 151.142 236.129 147.75 234.081C144.358 231.969 141.83 229.185 140.166 225.729L148.134 221.121ZM210.508 211.809C210.508 208.033 209.676 205.025 208.012 202.785C206.348 200.545 204.14 199.425 201.388 199.425C199.34 199.425 197.452 200.033 195.724 201.249C193.996 202.401 192.62 204.001 191.596 206.049C190.636 208.097 190.156 210.337 190.156 212.769V236.001H179.98V168.225H190.156V196.449C191.564 194.657 193.292 193.249 195.34 192.225C197.388 191.137 199.404 190.593 201.388 190.593C205.1 190.593 208.428 191.457 211.372 193.185C214.316 194.913 216.62 197.313 218.284 200.385C219.948 203.393 220.78 206.817 220.78 210.657V236.001H210.508V211.809ZM246.35 228.513C249.934 228.513 252.814 227.201 254.99 224.577C257.166 221.953 258.254 218.465 258.254 214.113C258.254 209.825 257.166 206.369 254.99 203.745C252.814 201.057 249.934 199.713 246.35 199.713C242.766 199.713 239.886 201.025 237.71 203.649C235.534 206.273 234.446 209.761 234.446 214.113C234.446 218.465 235.534 221.953 237.71 224.577C239.886 227.201 242.766 228.513 246.35 228.513ZM224.27 214.113C224.27 209.633 225.198 205.665 227.054 202.209C228.974 198.689 231.598 195.937 234.926 193.953C238.254 191.969 242.062 190.977 246.35 190.977C250.638 190.977 254.446 191.969 257.774 193.953C261.102 195.937 263.694 198.689 265.55 202.209C267.47 205.665 268.43 209.633 268.43 214.113C268.43 218.529 267.47 222.497 265.55 226.017C263.694 229.537 261.102 232.289 257.774 234.273C254.446 236.257 250.638 237.249 246.35 237.249C242.062 237.249 238.254 236.257 234.926 234.273C231.598 232.289 228.974 229.537 227.054 226.017C225.198 222.497 224.27 218.529 224.27 214.113ZM315.354 236.865H305.946L296.922 207.297L288.09 236.865H278.682L264.954 191.073H275.514L283.482 220.353L291.738 191.073H301.914L310.458 220.353L318.234 191.073H328.794L315.354 236.865Z" fill="#171717"/>
<mask id="mask0_5414_2921" style="mask-type:luminance" maskUnits="userSpaceOnUse" x="99" y="8" width="199" height="71">
<path d="M298 8H99V79H298V8Z" fill="white"/>
</mask>
<g mask="url(#mask0_5414_2921)">
<path d="M298 8H99V77H298V8Z" fill="#C4B59C" fill-opacity="0.6"/>
<path d="M112.751 62.1187C113.711 64.4227 115.183 66.2147 117.167 67.4947C119.151 68.7747 121.039 69.4147 122.831 69.4147C125.263 69.4147 127.183 68.9987 128.591 68.1667C129.999 67.2707 130.703 66.0227 130.703 64.4227C130.703 63.1427 129.999 62.1187 128.591 61.3507C127.183 60.5827 124.911 59.6547 121.775 58.5667C118.703 57.4787 116.175 56.4547 114.191 55.4947C112.207 54.5347 110.447 53.1587 108.911 51.3667C107.439 49.5107 106.703 47.2387 106.703 44.5507C106.703 40.5827 108.303 37.4467 111.503 35.1427C114.703 32.7747 118.703 31.5907 123.503 31.5907C125.551 31.5907 127.695 32.0067 129.935 32.8387C132.239 33.6707 134.287 34.9507 136.079 36.6787C137.935 38.4067 139.215 40.5507 139.919 43.1107L131.375 46.1827C130.671 43.9427 129.551 42.4067 128.015 41.5747C126.543 40.7427 125.039 40.3267 123.503 40.3267C121.455 40.3267 119.823 40.7107 118.607 41.4787C117.455 42.2467 116.879 43.2707 116.879 44.5507C116.879 45.8307 117.519 46.8227 118.799 47.5267C120.079 48.2307 122.383 49.1587 125.711 50.3107C128.783 51.3987 131.311 52.4547 133.295 53.4787C135.343 54.4387 137.103 55.8147 138.575 57.6067C140.111 59.3987 140.879 61.6387 140.879 64.3267C140.879 68.4867 139.215 71.8467 135.887 74.4067C132.559 76.9027 128.207 78.1507 122.831 78.1507C119.247 78.1507 115.759 77.1267 112.367 75.0787C108.975 72.9667 106.447 70.1827 104.783 66.7267L112.751 62.1187ZM164.522 78.0547C160.234 78.0547 156.427 77.0947 153.099 75.1747C149.771 73.1907 147.147 70.4707 145.227 67.0147C143.371 63.4947 142.443 59.5267 142.443 55.1107C142.443 50.6307 143.371 46.6627 145.227 43.2067C147.147 39.6867 149.771 36.9667 153.099 35.0467C156.427 33.0627 160.234 32.0707 164.522 32.0707C170.474 32.0707 174.923 33.5747 177.867 36.5827C180.811 39.5267 182.699 42.1507 183.531 44.4547C184.875 47.5907 185.547 51.3347 185.547 55.6867C185.547 56.8387 185.515 57.6707 185.451 58.1827C185.451 58.6307 185.451 58.9187 185.451 59.0467H152.427C153.003 62.1187 154.443 64.6147 156.747 66.5347C159.051 68.4547 161.642 69.4147 164.522 69.4147C167.786 69.4147 170.314 68.7747 172.106 67.4947C173.898 66.2147 175.179 64.9347 175.947 63.6547L184.106 67.3027C182.826 70.2467 180.491 72.7747 177.099 74.8867C173.771 76.9987 169.578 78.0547 164.522 78.0547ZM175.851 50.9827C175.339 47.9107 174.155 45.4467 172.299 43.5907C170.443 41.6707 167.85 40.7107 164.522 40.7107C161.514 40.7107 158.891 41.6707 156.651 43.5907C154.411 45.5107 153.003 47.9747 152.427 50.9827H175.851ZM209.749 69.5107C213.333 69.5107 216.213 68.1987 218.389 65.5747C220.565 62.9507 221.653 59.4627 221.653 55.1107C221.653 50.8227 220.565 47.3667 218.389 44.7427C216.213 42.0547 213.333 40.7107 209.749 40.7107C206.165 40.7107 203.285 42.0227 201.109 44.6467C198.933 47.2707 197.845 50.7587 197.845 55.1107C197.845 59.4627 198.933 62.9507 201.109 65.5747C203.285 68.1987 206.165 69.5107 209.749 69.5107ZM187.669 55.1107C187.669 50.6307 188.597 46.6627 190.453 43.2067C192.373 39.6867 194.997 36.9347 198.325 34.9507C201.653 32.9667 205.461 31.9747 209.749 31.9747C214.037 31.9747 217.845 32.9667 221.173 34.9507C224.501 36.9347 227.093 39.6867 228.949 43.2067C230.869 46.6627 231.829 50.6307 231.829 55.1107C231.829 59.5267 230.869 63.4947 228.949 67.0147C227.093 70.5347 224.501 73.2867 221.173 75.2707C217.845 77.2547 214.037 78.2467 209.749 78.2467C205.461 78.2467 201.653 77.2547 198.325 75.2707C194.997 73.2867 192.373 70.5347 190.453 67.0147C188.597 63.4947 187.669 59.5267 187.669 55.1107ZM245.71 58.1827C245.71 61.6387 246.638 64.3907 248.494 66.4387C250.35 68.4867 252.814 69.5107 255.886 69.5107C259.15 69.5107 261.774 68.5187 263.758 66.5347C265.742 64.4867 266.702 61.7347 266.638 58.2787V32.0707H276.91V77.8627H266.638V72.5827C265.23 74.3107 263.438 75.6867 261.262 76.7107C259.086 77.7347 256.846 78.2467 254.542 78.2467C250.894 78.2467 247.63 77.4147 244.75 75.7507C241.87 74.0867 239.598 71.7827 237.934 68.8387C236.334 65.8307 235.534 62.4067 235.534 58.5667V32.0707H245.71V58.1827ZM291.729 9.22266V77.7667H281.553V9.22266H291.729Z" fill="#171717"/>
</g>
</svg>
