<svg width="580" height="244" viewBox="0 0 580 244" fill="none" xmlns="http://www.w3.org/2000/svg">
<path d="M580 77H205V146H580V77Z" fill="#171717"/>
<path d="M222.789 127.185C222.789 130.641 223.717 133.393 225.573 135.441C227.429 137.489 229.893 138.513 232.965 138.513C236.229 138.513 238.853 137.521 240.837 135.537C242.821 133.489 243.781 130.737 243.717 127.281V101.073H253.989V146.865H243.717V141.585C242.309 143.313 240.517 144.689 238.341 145.713C236.165 146.737 233.925 147.249 231.621 147.249C227.973 147.249 224.709 146.417 221.829 144.753C218.949 143.089 216.677 140.785 215.013 137.841C213.413 134.833 212.613 131.409 212.613 127.569V101.073H222.789V127.185ZM282.824 138.513C286.536 138.513 289.48 137.201 291.656 134.577C293.896 131.889 295.016 128.369 295.016 124.017C295.016 119.665 293.896 116.177 291.656 113.553C289.48 110.865 286.536 109.521 282.824 109.521C280.584 109.521 278.472 110.161 276.488 111.441C274.568 112.721 273.032 114.481 271.88 116.721C270.792 118.961 270.248 121.393 270.248 124.017C270.248 126.641 270.792 129.073 271.88 131.313C273.032 133.553 274.568 135.313 276.488 136.593C278.472 137.873 280.584 138.513 282.824 138.513ZM259.976 100.977H270.152V107.697C271.816 105.521 273.928 103.857 276.488 102.705C279.048 101.553 281.352 100.977 283.4 100.977C287.624 100.977 291.368 101.969 294.632 103.953C297.96 105.873 300.552 108.593 302.408 112.113C304.264 115.569 305.192 119.537 305.192 124.017C305.192 128.497 304.264 132.497 302.408 136.017C300.552 139.537 297.96 142.289 294.632 144.273C291.368 146.193 287.624 147.153 283.4 147.153C281.288 147.153 278.952 146.577 276.392 145.425C273.896 144.273 271.816 142.577 270.152 140.337V167.121H259.976V100.977ZM330.165 137.457C331.957 137.457 333.781 137.041 335.637 136.209C337.557 135.313 339.157 134.161 340.437 132.753L347.445 139.761C345.461 141.937 342.869 143.729 339.669 145.137C336.469 146.481 333.429 147.153 330.549 147.153C326.069 147.153 322.069 146.193 318.549 144.273C315.029 142.289 312.277 139.537 310.293 136.017C308.309 132.497 307.317 128.529 307.317 124.113C307.317 119.633 308.309 115.665 310.293 112.209C312.277 108.689 315.029 105.937 318.549 103.953C322.069 101.969 326.069 100.977 330.549 100.977C333.557 100.977 336.597 101.681 339.669 103.089C342.741 104.433 345.333 106.225 347.445 108.465L340.437 115.377C339.157 113.969 337.557 112.849 335.637 112.017C333.781 111.121 331.957 110.673 330.165 110.673C326.389 110.673 323.317 111.889 320.949 114.321C318.645 116.753 317.493 120.017 317.493 124.113C317.493 128.145 318.645 131.377 320.949 133.809C323.317 136.241 326.389 137.457 330.165 137.457ZM367.889 138.513C371.473 138.513 374.353 137.201 376.529 134.577C378.705 131.953 379.793 128.465 379.793 124.113C379.793 119.825 378.705 116.369 376.529 113.745C374.353 111.057 371.473 109.713 367.889 109.713C364.305 109.713 361.425 111.025 359.249 113.649C357.073 116.273 355.985 119.761 355.985 124.113C355.985 128.465 357.073 131.953 359.249 134.577C361.425 137.201 364.305 138.513 367.889 138.513ZM345.809 124.113C345.809 119.633 346.737 115.665 348.593 112.209C350.513 108.689 353.137 105.937 356.465 103.953C359.793 101.969 363.601 100.977 367.889 100.977C372.177 100.977 375.985 101.969 379.313 103.953C382.641 105.937 385.233 108.689 387.089 112.209C389.009 115.665 389.969 119.633 389.969 124.113C389.969 128.529 389.009 132.497 387.089 136.017C385.233 139.537 382.641 142.289 379.313 144.273C375.985 146.257 372.177 147.249 367.889 147.249C363.601 147.249 359.793 146.257 356.465 144.273C353.137 142.289 350.513 139.537 348.593 136.017C346.737 132.497 345.809 128.529 345.809 124.113ZM450.817 120.849C450.817 117.585 450.017 114.961 448.417 112.977C446.817 110.993 444.705 110.001 442.081 110.001C439.201 110.001 436.833 110.993 434.977 112.977C433.185 114.961 432.289 117.425 432.289 120.369V146.865H422.017V120.849C422.017 117.585 421.217 114.961 419.617 112.977C418.081 110.993 416.033 110.001 413.473 110.001C410.593 110.001 408.193 111.089 406.273 113.265C404.417 115.441 403.489 118.161 403.489 121.425V146.865H393.313V101.073H403.489V107.313C404.897 105.457 406.529 103.985 408.385 102.897C410.305 101.745 412.321 101.169 414.433 101.169C417.121 101.169 419.713 101.937 422.209 103.473C424.705 105.009 426.625 106.993 427.969 109.425C429.569 106.993 431.745 105.009 434.497 103.473C437.249 101.937 440.001 101.169 442.753 101.169C446.337 101.169 449.505 102.001 452.257 103.665C455.073 105.329 457.249 107.633 458.785 110.577C460.321 113.457 461.089 116.753 461.089 120.465V146.865H450.817V120.849ZM477.374 100.977V146.769H467.198V100.977H477.374ZM466.526 83.8889C466.526 82.2249 467.07 80.8489 468.158 79.7609C469.246 78.6729 470.622 78.1289 472.286 78.1289C473.95 78.1289 475.326 78.6729 476.414 79.7609C477.502 80.8489 478.046 82.2249 478.046 83.8889C478.046 85.5529 477.502 86.9289 476.414 88.0169C475.326 89.1049 473.95 89.6489 472.286 89.6489C470.622 89.6489 469.246 89.1049 468.158 88.0169C467.07 86.9289 466.526 85.5529 466.526 83.8889ZM515.075 121.617C515.075 117.969 514.179 115.121 512.387 113.073C510.595 110.961 508.131 109.905 504.995 109.905C501.859 109.969 499.235 111.121 497.123 113.361C495.011 115.537 493.987 118.289 494.051 121.617V146.865H483.875V101.073H494.051V107.313C495.523 105.521 497.379 104.049 499.619 102.897C501.859 101.745 504.067 101.169 506.243 101.169C509.379 101.169 512.387 101.873 515.267 103.281C518.147 104.689 520.515 106.897 522.371 109.905C524.291 112.913 525.251 116.689 525.251 121.233V146.865H515.075V121.617ZM550.174 138.417C552.542 138.417 554.686 137.777 556.606 136.497C558.526 135.217 560.03 133.489 561.118 131.313C562.206 129.073 562.75 126.641 562.75 124.017C562.75 121.457 562.206 119.089 561.118 116.913C560.03 114.673 558.526 112.913 556.606 111.633C554.686 110.353 552.542 109.713 550.174 109.713C546.59 109.713 543.678 111.025 541.438 113.649C539.198 116.273 538.078 119.729 538.078 124.017C538.078 128.369 539.166 131.857 541.342 134.481C543.582 137.105 546.526 138.417 550.174 138.417ZM527.902 124.113C527.902 119.697 528.83 115.729 530.686 112.209C532.542 108.689 535.102 105.937 538.366 103.953C541.694 101.969 545.438 100.977 549.598 100.977C552.03 100.977 554.43 101.585 556.798 102.801C559.23 103.953 561.214 105.585 562.75 107.697V100.977H572.926V143.409C572.926 147.761 571.966 151.761 570.046 155.409C568.19 159.057 565.534 161.937 562.078 164.049C558.622 166.161 554.622 167.217 550.078 167.217C546.046 167.217 542.302 166.321 538.846 164.529C535.454 162.801 532.67 160.145 530.494 156.561L538.558 151.185C540.286 153.681 542.014 155.473 543.742 156.561C545.534 157.649 547.646 158.193 550.078 158.193C553.982 158.193 557.054 156.849 559.294 154.161C561.598 151.473 562.75 148.177 562.75 144.273V140.241C561.022 142.417 558.942 144.113 556.51 145.329C554.142 146.545 551.838 147.153 549.598 147.153C545.438 147.153 541.694 146.161 538.366 144.177C535.102 142.193 532.542 139.473 530.686 136.017C528.83 132.497 527.902 128.529 527.902 124.113Z" fill="white"/>
<path d="M402 167H69V236H402V167Z" fill="#171717"/>
<path d="M85.5432 168.225V236.769H75.3672V168.225H85.5432ZM102.087 190.977V236.769H91.9107V190.977H102.087ZM91.2387 173.889C91.2387 172.225 91.7827 170.849 92.8707 169.761C93.9587 168.673 95.3347 168.129 96.9987 168.129C98.663 168.129 100.039 168.673 101.127 169.761C102.215 170.849 102.759 172.225 102.759 173.889C102.759 175.553 102.215 176.929 101.127 178.017C100.039 179.105 98.663 179.649 96.9987 179.649C95.3347 179.649 93.9587 179.105 92.8707 178.017C91.7827 176.929 91.2387 175.553 91.2387 173.889ZM132.898 236.865H124.066L104.866 191.073H116.002L128.482 223.137L141.058 191.073H152.29L132.898 236.865ZM170.383 237.057C166.094 237.057 162.286 236.097 158.958 234.177C155.63 232.193 153.006 229.473 151.086 226.017C149.23 222.497 148.302 218.529 148.302 214.113C148.302 209.633 149.23 205.665 151.086 202.209C153.006 198.689 155.63 195.969 158.958 194.049C162.286 192.065 166.094 191.073 170.383 191.073C176.335 191.073 180.783 192.577 183.727 195.585C186.671 198.529 188.559 201.153 189.391 203.457C190.735 206.593 191.407 210.337 191.407 214.689C191.407 215.841 191.375 216.673 191.311 217.185C191.311 217.633 191.311 217.921 191.311 218.049H158.286C158.862 221.121 160.302 223.617 162.606 225.537C164.91 227.457 167.502 228.417 170.383 228.417C173.647 228.417 176.175 227.777 177.967 226.497C179.759 225.217 181.039 223.937 181.807 222.657L189.967 226.305C188.687 229.249 186.351 231.777 182.959 233.889C179.631 236.001 175.439 237.057 170.383 237.057ZM181.711 209.985C181.199 206.913 180.015 204.449 178.159 202.593C176.303 200.673 173.711 199.713 170.383 199.713C167.374 199.713 164.75 200.673 162.51 202.593C160.27 204.513 158.862 206.977 158.286 209.985H181.711ZM217.134 221.121C218.094 223.425 219.566 225.217 221.55 226.497C223.534 227.777 225.422 228.417 227.214 228.417C229.646 228.417 231.566 228.001 232.974 227.169C234.382 226.273 235.086 225.025 235.086 223.425C235.086 222.145 234.382 221.121 232.974 220.353C231.566 219.585 229.294 218.657 226.158 217.569C223.086 216.481 220.558 215.457 218.574 214.497C216.59 213.537 214.83 212.161 213.294 210.369C211.822 208.513 211.086 206.241 211.086 203.553C211.086 199.585 212.686 196.449 215.886 194.145C219.086 191.777 223.086 190.593 227.886 190.593C229.934 190.593 232.078 191.009 234.318 191.841C236.622 192.673 238.67 193.953 240.462 195.681C242.318 197.409 243.598 199.553 244.302 202.113L235.758 205.185C235.054 202.945 233.934 201.409 232.398 200.577C230.926 199.745 229.422 199.329 227.886 199.329C225.838 199.329 224.206 199.713 222.99 200.481C221.838 201.249 221.262 202.273 221.262 203.553C221.262 204.833 221.902 205.825 223.182 206.529C224.462 207.233 226.766 208.161 230.094 209.313C233.166 210.401 235.694 211.457 237.678 212.481C239.726 213.441 241.486 214.817 242.958 216.609C244.494 218.401 245.262 220.641 245.262 223.329C245.262 227.489 243.598 230.849 240.27 233.409C236.942 235.905 232.59 237.153 227.214 237.153C223.63 237.153 220.142 236.129 216.75 234.081C213.358 231.969 210.83 229.185 209.166 225.729L217.134 221.121ZM279.508 211.809C279.508 208.033 278.676 205.025 277.012 202.785C275.348 200.545 273.14 199.425 270.388 199.425C268.34 199.425 266.452 200.033 264.724 201.249C262.996 202.401 261.62 204.001 260.596 206.049C259.636 208.097 259.156 210.337 259.156 212.769V236.001H248.98V168.225H259.156V196.449C260.564 194.657 262.292 193.249 264.34 192.225C266.388 191.137 268.404 190.593 270.388 190.593C274.1 190.593 277.428 191.457 280.372 193.185C283.316 194.913 285.62 197.313 287.284 200.385C288.948 203.393 289.78 206.817 289.78 210.657V236.001H279.508V211.809ZM315.35 228.513C318.934 228.513 321.814 227.201 323.99 224.577C326.166 221.953 327.254 218.465 327.254 214.113C327.254 209.825 326.166 206.369 323.99 203.745C321.814 201.057 318.934 199.713 315.35 199.713C311.766 199.713 308.886 201.025 306.71 203.649C304.534 206.273 303.446 209.761 303.446 214.113C303.446 218.465 304.534 221.953 306.71 224.577C308.886 227.201 311.766 228.513 315.35 228.513ZM293.27 214.113C293.27 209.633 294.198 205.665 296.054 202.209C297.974 198.689 300.598 195.937 303.926 193.953C307.254 191.969 311.062 190.977 315.35 190.977C319.638 190.977 323.446 191.969 326.774 193.953C330.102 195.937 332.694 198.689 334.55 202.209C336.47 205.665 337.43 209.633 337.43 214.113C337.43 218.529 336.47 222.497 334.55 226.017C332.694 229.537 330.102 232.289 326.774 234.273C323.446 236.257 319.638 237.249 315.35 237.249C311.062 237.249 307.254 236.257 303.926 234.273C300.598 232.289 297.974 229.537 296.054 226.017C294.198 222.497 293.27 218.529 293.27 214.113ZM384.354 236.865H374.946L365.922 207.297L357.09 236.865H347.682L333.954 191.073H344.514L352.482 220.353L360.738 191.073H370.914L379.458 220.353L387.234 191.073H397.794L384.354 236.865Z" fill="white"/>
<path d="M283 8H0V77H283V8Z" fill="#171717"/>
<path d="M12.7845 40.552H4.14453V31.72H12.7845V15.688H22.9605V31.72H33.8085V40.552H22.9605V77.608H12.7845V40.552ZM55.413 69.256C58.997 69.256 61.877 67.944 64.053 65.32C66.229 62.696 67.317 59.208 67.317 54.856C67.317 50.568 66.229 47.112 64.053 44.488C61.877 41.8 58.997 40.456 55.413 40.456C51.829 40.456 48.949 41.768 46.773 44.392C44.597 47.016 43.509 50.504 43.509 54.856C43.509 59.208 44.597 62.696 46.773 65.32C48.949 67.944 51.829 69.256 55.413 69.256ZM33.333 54.856C33.333 50.376 34.261 46.408 36.117 42.952C38.037 39.432 40.661 36.68 43.989 34.696C47.317 32.712 51.125 31.72 55.413 31.72C59.701 31.72 63.509 32.712 66.837 34.696C70.165 36.68 72.757 39.432 74.613 42.952C76.533 46.408 77.493 50.376 77.493 54.856C77.493 59.272 76.533 63.24 74.613 66.76C72.757 70.28 70.165 73.032 66.837 75.016C63.509 77 59.701 77.992 55.413 77.992C51.125 77.992 47.317 77 43.989 75.016C40.661 73.032 38.037 70.28 36.117 66.76C34.261 63.24 33.333 59.272 33.333 54.856ZM101.507 77.992C97.3475 77.992 93.6035 77 90.2755 75.016C86.9475 73.032 84.3555 70.312 82.4995 66.856C80.6435 63.336 79.7155 59.336 79.7155 54.856C79.7155 50.376 80.6435 46.408 82.4995 42.952C84.3555 39.432 86.9475 36.68 90.2755 34.696C93.6035 32.712 97.3475 31.72 101.507 31.72C103.683 31.72 105.987 32.264 108.419 33.352C110.915 34.44 113.059 36.168 114.851 38.536V8.968H125.027V77.608H114.851V71.176C112.995 73.48 110.819 75.208 108.323 76.36C105.891 77.448 103.619 77.992 101.507 77.992ZM89.8915 54.952C89.8915 59.304 91.0115 62.824 93.2515 65.512C95.4915 68.136 98.4675 69.448 102.179 69.448C104.483 69.448 106.595 68.808 108.515 67.528C110.435 66.248 111.971 64.52 113.123 62.344C114.275 60.104 114.851 57.64 114.851 54.952C114.851 52.328 114.275 49.896 113.123 47.656C111.971 45.416 110.403 43.656 108.419 42.376C106.499 41.096 104.419 40.456 102.179 40.456C98.4675 40.456 95.4915 41.8 93.2515 44.488C91.0115 47.112 89.8915 50.6 89.8915 54.952ZM149.513 77.992C145.353 77.992 141.609 77 138.281 75.016C135.017 73.032 132.457 70.312 130.601 66.856C128.745 63.336 127.817 59.368 127.817 54.952C127.817 50.536 128.745 46.6 130.601 43.144C132.457 39.624 135.017 36.872 138.281 34.888C141.609 32.904 145.353 31.912 149.513 31.912C151.881 31.912 154.217 32.456 156.521 33.544C158.825 34.632 160.873 36.232 162.665 38.344V31.816H172.841V77.608H162.665V71.464C160.937 73.64 158.921 75.272 156.617 76.36C154.313 77.448 151.945 77.992 149.513 77.992ZM137.993 54.952C137.993 59.24 139.113 62.728 141.353 65.416C143.593 68.04 146.537 69.352 150.185 69.352C152.425 69.352 154.505 68.744 156.425 67.528C158.345 66.248 159.881 64.52 161.033 62.344C162.185 60.104 162.761 57.64 162.761 54.952C162.761 52.264 162.185 49.832 161.033 47.656C159.881 45.416 158.345 43.688 156.425 42.472C154.505 41.192 152.425 40.552 150.185 40.552C146.537 40.552 143.593 41.864 141.353 44.488C139.113 47.112 137.993 50.6 137.993 54.952ZM183.384 97.48L193.368 73.768L174.936 31.816H186.168L198.744 62.152L210.84 31.816H221.88L204.792 73L194.52 97.48H183.384ZM233.119 23.848H225.727L229.279 1H239.839L233.119 23.848ZM249.374 61.864C250.334 64.168 251.806 65.96 253.79 67.24C255.774 68.52 257.662 69.16 259.454 69.16C261.886 69.16 263.806 68.744 265.214 67.912C266.622 67.016 267.326 65.768 267.326 64.168C267.326 62.888 266.622 61.864 265.214 61.096C263.806 60.328 261.534 59.4 258.398 58.312C255.326 57.224 252.798 56.2 250.814 55.24C248.83 54.28 247.07 52.904 245.534 51.112C244.062 49.256 243.326 46.984 243.326 44.296C243.326 40.328 244.926 37.192 248.126 34.888C251.326 32.52 255.326 31.336 260.126 31.336C262.174 31.336 264.318 31.752 266.558 32.584C268.862 33.416 270.91 34.696 272.702 36.424C274.558 38.152 275.838 40.296 276.542 42.856L267.998 45.928C267.294 43.688 266.174 42.152 264.638 41.32C263.166 40.488 261.662 40.072 260.126 40.072C258.078 40.072 256.446 40.456 255.23 41.224C254.078 41.992 253.502 43.016 253.502 44.296C253.502 45.576 254.142 46.568 255.422 47.272C256.702 47.976 259.006 48.904 262.334 50.056C265.406 51.144 267.934 52.2 269.918 53.224C271.966 54.184 273.726 55.56 275.198 57.352C276.734 59.144 277.502 61.384 277.502 64.072C277.502 68.232 275.838 71.592 272.51 74.152C269.182 76.648 264.83 77.896 259.454 77.896C255.87 77.896 252.382 76.872 248.99 74.824C245.598 72.712 243.07 69.928 241.406 66.472L249.374 61.864Z" fill="white"/>
</svg>
