<svg width="580" height="244" viewBox="0 0 580 244" fill="none" xmlns="http://www.w3.org/2000/svg">
<path d="M580 77H205V146H580V77Z" fill="#FF491A"/>
<path d="M222.789 127.185C222.789 130.641 223.717 133.393 225.573 135.441C227.429 137.489 229.893 138.513 232.965 138.513C236.229 138.513 238.853 137.521 240.837 135.537C242.821 133.489 243.781 130.737 243.717 127.281V101.073H253.989V146.865H243.717V141.585C242.309 143.313 240.517 144.689 238.341 145.713C236.165 146.737 233.925 147.249 231.621 147.249C227.973 147.249 224.709 146.417 221.829 144.753C218.949 143.089 216.677 140.785 215.013 137.841C213.413 134.833 212.613 131.409 212.613 127.569V101.073H222.789V127.185ZM282.824 138.513C286.536 138.513 289.48 137.201 291.656 134.577C293.896 131.889 295.016 128.369 295.016 124.017C295.016 119.665 293.896 116.177 291.656 113.553C289.48 110.865 286.536 109.521 282.824 109.521C280.584 109.521 278.472 110.161 276.488 111.441C274.568 112.721 273.032 114.481 271.88 116.721C270.792 118.961 270.248 121.393 270.248 124.017C270.248 126.641 270.792 129.073 271.88 131.313C273.032 133.553 274.568 135.313 276.488 136.593C278.472 137.873 280.584 138.513 282.824 138.513ZM259.976 100.977H270.152V107.697C271.816 105.521 273.928 103.857 276.488 102.705C279.048 101.553 281.352 100.977 283.4 100.977C287.624 100.977 291.368 101.969 294.632 103.953C297.96 105.873 300.552 108.593 302.408 112.113C304.264 115.569 305.192 119.537 305.192 124.017C305.192 128.497 304.264 132.497 302.408 136.017C300.552 139.537 297.96 142.289 294.632 144.273C291.368 146.193 287.624 147.153 283.4 147.153C281.288 147.153 278.952 146.577 276.392 145.425C273.896 144.273 271.816 142.577 270.152 140.337V167.121H259.976V100.977ZM330.165 137.457C331.957 137.457 333.781 137.041 335.637 136.209C337.557 135.313 339.157 134.161 340.437 132.753L347.445 139.761C345.461 141.937 342.869 143.729 339.669 145.137C336.469 146.481 333.429 147.153 330.549 147.153C326.069 147.153 322.069 146.193 318.549 144.273C315.029 142.289 312.277 139.537 310.293 136.017C308.309 132.497 307.317 128.529 307.317 124.113C307.317 119.633 308.309 115.665 310.293 112.209C312.277 108.689 315.029 105.937 318.549 103.953C322.069 101.969 326.069 100.977 330.549 100.977C333.557 100.977 336.597 101.681 339.669 103.089C342.741 104.433 345.333 106.225 347.445 108.465L340.437 115.377C339.157 113.969 337.557 112.849 335.637 112.017C333.781 111.121 331.957 110.673 330.165 110.673C326.389 110.673 323.317 111.889 320.949 114.321C318.645 116.753 317.493 120.017 317.493 124.113C317.493 128.145 318.645 131.377 320.949 133.809C323.317 136.241 326.389 137.457 330.165 137.457ZM367.889 138.513C371.473 138.513 374.353 137.201 376.529 134.577C378.705 131.953 379.793 128.465 379.793 124.113C379.793 119.825 378.705 116.369 376.529 113.745C374.353 111.057 371.473 109.713 367.889 109.713C364.305 109.713 361.425 111.025 359.249 113.649C357.073 116.273 355.985 119.761 355.985 124.113C355.985 128.465 357.073 131.953 359.249 134.577C361.425 137.201 364.305 138.513 367.889 138.513ZM345.809 124.113C345.809 119.633 346.737 115.665 348.593 112.209C350.513 108.689 353.137 105.937 356.465 103.953C359.793 101.969 363.601 100.977 367.889 100.977C372.177 100.977 375.985 101.969 379.313 103.953C382.641 105.937 385.233 108.689 387.089 112.209C389.009 115.665 389.969 119.633 389.969 124.113C389.969 128.529 389.009 132.497 387.089 136.017C385.233 139.537 382.641 142.289 379.313 144.273C375.985 146.257 372.177 147.249 367.889 147.249C363.601 147.249 359.793 146.257 356.465 144.273C353.137 142.289 350.513 139.537 348.593 136.017C346.737 132.497 345.809 128.529 345.809 124.113ZM450.817 120.849C450.817 117.585 450.017 114.961 448.417 112.977C446.817 110.993 444.705 110.001 442.081 110.001C439.201 110.001 436.833 110.993 434.977 112.977C433.185 114.961 432.289 117.425 432.289 120.369V146.865H422.017V120.849C422.017 117.585 421.217 114.961 419.617 112.977C418.081 110.993 416.033 110.001 413.473 110.001C410.593 110.001 408.193 111.089 406.273 113.265C404.417 115.441 403.489 118.161 403.489 121.425V146.865H393.313V101.073H403.489V107.313C404.897 105.457 406.529 103.985 408.385 102.897C410.305 101.745 412.321 101.169 414.433 101.169C417.121 101.169 419.713 101.937 422.209 103.473C424.705 105.009 426.625 106.993 427.969 109.425C429.569 106.993 431.745 105.009 434.497 103.473C437.249 101.937 440.001 101.169 442.753 101.169C446.337 101.169 449.505 102.001 452.257 103.665C455.073 105.329 457.249 107.633 458.785 110.577C460.321 113.457 461.089 116.753 461.089 120.465V146.865H450.817V120.849ZM477.374 100.977V146.769H467.198V100.977H477.374ZM466.526 83.8889C466.526 82.2249 467.07 80.8489 468.158 79.7609C469.246 78.6729 470.622 78.1289 472.286 78.1289C473.95 78.1289 475.326 78.6729 476.414 79.7609C477.502 80.8489 478.046 82.2249 478.046 83.8889C478.046 85.5529 477.502 86.9289 476.414 88.0169C475.326 89.1049 473.95 89.6489 472.286 89.6489C470.622 89.6489 469.246 89.1049 468.158 88.0169C467.07 86.9289 466.526 85.5529 466.526 83.8889ZM515.075 121.617C515.075 117.969 514.179 115.121 512.387 113.073C510.595 110.961 508.131 109.905 504.995 109.905C501.859 109.969 499.235 111.121 497.123 113.361C495.011 115.537 493.987 118.289 494.051 121.617V146.865H483.875V101.073H494.051V107.313C495.523 105.521 497.379 104.049 499.619 102.897C501.859 101.745 504.067 101.169 506.243 101.169C509.379 101.169 512.387 101.873 515.267 103.281C518.147 104.689 520.515 106.897 522.371 109.905C524.291 112.913 525.251 116.689 525.251 121.233V146.865H515.075V121.617ZM550.174 138.417C552.542 138.417 554.686 137.777 556.606 136.497C558.526 135.217 560.03 133.489 561.118 131.313C562.206 129.073 562.75 126.641 562.75 124.017C562.75 121.457 562.206 119.089 561.118 116.913C560.03 114.673 558.526 112.913 556.606 111.633C554.686 110.353 552.542 109.713 550.174 109.713C546.59 109.713 543.678 111.025 541.438 113.649C539.198 116.273 538.078 119.729 538.078 124.017C538.078 128.369 539.166 131.857 541.342 134.481C543.582 137.105 546.526 138.417 550.174 138.417ZM527.902 124.113C527.902 119.697 528.83 115.729 530.686 112.209C532.542 108.689 535.102 105.937 538.366 103.953C541.694 101.969 545.438 100.977 549.598 100.977C552.03 100.977 554.43 101.585 556.798 102.801C559.23 103.953 561.214 105.585 562.75 107.697V100.977H572.926V143.409C572.926 147.761 571.966 151.761 570.046 155.409C568.19 159.057 565.534 161.937 562.078 164.049C558.622 166.161 554.622 167.217 550.078 167.217C546.046 167.217 542.302 166.321 538.846 164.529C535.454 162.801 532.67 160.145 530.494 156.561L538.558 151.185C540.286 153.681 542.014 155.473 543.742 156.561C545.534 157.649 547.646 158.193 550.078 158.193C553.982 158.193 557.054 156.849 559.294 154.161C561.598 151.473 562.75 148.177 562.75 144.273V140.241C561.022 142.417 558.942 144.113 556.51 145.329C554.142 146.545 551.838 147.153 549.598 147.153C545.438 147.153 541.694 146.161 538.366 144.177C535.102 142.193 532.542 139.473 530.686 136.017C528.83 132.497 527.902 128.529 527.902 124.113Z" fill="#171717"/>
<path d="M509 8H104V77H509V8Z" fill="#FF491A"/>
<path d="M117.536 40.8098H108.896V31.9778H117.536V15.9458H127.712V31.9778H138.56V40.8098H127.712V77.8658H117.536V40.8098ZM171.86 52.8098C171.86 49.0338 171.028 46.0258 169.364 43.7858C167.7 41.5458 165.492 40.4258 162.74 40.4258C160.692 40.4258 158.804 41.0338 157.076 42.2498C155.348 43.4018 153.972 45.0018 152.948 47.0498C151.988 49.0978 151.508 51.3378 151.508 53.7698V77.0018H141.332V9.22581H151.508V37.4498C152.916 35.6578 154.644 34.2498 156.692 33.2258C158.74 32.1378 160.756 31.5938 162.74 31.5938C166.452 31.5938 169.78 32.4578 172.724 34.1858C175.668 35.9138 177.972 38.3138 179.636 41.3858C181.3 44.3938 182.132 47.8178 182.132 51.6578V77.0018H171.86V52.8098ZM198.391 31.9778V77.7698H188.215V31.9778H198.391ZM187.543 14.8898C187.543 13.2258 188.087 11.8498 189.175 10.7618C190.263 9.67381 191.639 9.12981 193.303 9.12981C194.967 9.12981 196.343 9.67381 197.431 10.7618C198.519 11.8498 199.063 13.2258 199.063 14.8898C199.063 16.5538 198.519 17.9298 197.431 19.0178C196.343 20.1058 194.967 20.6498 193.303 20.6498C191.639 20.6498 190.263 20.1058 189.175 19.0178C188.087 17.9298 187.543 16.5538 187.543 14.8898ZM211.228 62.1218C212.188 64.4258 213.66 66.2178 215.644 67.4978C217.628 68.7778 219.516 69.4178 221.308 69.4178C223.74 69.4178 225.66 69.0018 227.068 68.1698C228.476 67.2738 229.18 66.0258 229.18 64.4258C229.18 63.1458 228.476 62.1218 227.068 61.3538C225.66 60.5858 223.388 59.6578 220.252 58.5698C217.18 57.4818 214.652 56.4578 212.668 55.4978C210.684 54.5378 208.924 53.1618 207.388 51.3698C205.916 49.5138 205.18 47.2418 205.18 44.5538C205.18 40.5858 206.78 37.4498 209.98 35.1458C213.18 32.7778 217.18 31.5938 221.98 31.5938C224.028 31.5938 226.172 32.0098 228.412 32.8418C230.716 33.6738 232.764 34.9538 234.556 36.6818C236.412 38.4098 237.692 40.5538 238.396 43.1138L229.852 46.1858C229.148 43.9458 228.028 42.4098 226.492 41.5778C225.02 40.7458 223.516 40.3298 221.98 40.3298C219.932 40.3298 218.3 40.7138 217.084 41.4818C215.932 42.2498 215.356 43.2738 215.356 44.5538C215.356 45.8338 215.996 46.8258 217.276 47.5298C218.556 48.2338 220.86 49.1618 224.188 50.3138C227.26 51.4018 229.788 52.4578 231.772 53.4818C233.82 54.4418 235.58 55.8178 237.052 57.6098C238.588 59.4018 239.356 61.6418 239.356 64.3298C239.356 68.4898 237.692 71.8498 234.364 74.4098C231.036 76.9058 226.684 78.1538 221.308 78.1538C217.724 78.1538 214.236 77.1298 210.844 75.0818C207.452 72.9698 204.924 70.1858 203.26 66.7298L211.228 62.1218ZM305.722 77.8658H296.314L287.29 48.2978L278.458 77.8658H269.05L255.322 32.0738H265.882L273.85 61.3538L282.106 32.0738H292.282L300.826 61.3538L308.602 32.0738H319.162L305.722 77.8658ZM338.233 78.0578C333.945 78.0578 330.137 77.0978 326.809 75.1778C323.481 73.1938 320.857 70.4738 318.937 67.0178C317.081 63.4978 316.153 59.5298 316.153 55.1138C316.153 50.6338 317.081 46.6658 318.937 43.2098C320.857 39.6898 323.481 36.9698 326.809 35.0498C330.137 33.0658 333.945 32.0738 338.233 32.0738C344.185 32.0738 348.633 33.5778 351.577 36.5858C354.521 39.5298 356.409 42.1538 357.241 44.4578C358.585 47.5938 359.257 51.3378 359.257 55.6898C359.257 56.8418 359.225 57.6738 359.161 58.1858C359.161 58.6338 359.161 58.9218 359.161 59.0498H326.137C326.713 62.1218 328.153 64.6178 330.457 66.5378C332.761 68.4578 335.353 69.4178 338.233 69.4178C341.497 69.4178 344.025 68.7778 345.817 67.4978C347.609 66.2178 348.889 64.9378 349.657 63.6578L357.817 67.3058C356.537 70.2498 354.201 72.7778 350.809 74.8898C347.481 77.0018 343.289 78.0578 338.233 78.0578ZM349.561 50.9858C349.049 47.9138 347.865 45.4498 346.009 43.5938C344.153 41.6738 341.561 40.7138 338.233 40.7138C335.225 40.7138 332.601 41.6738 330.361 43.5938C328.121 45.5138 326.713 47.9778 326.137 50.9858H349.561ZM382.959 78.0578C378.671 78.0578 374.863 77.0978 371.535 75.1778C368.207 73.1938 365.583 70.4738 363.663 67.0178C361.807 63.4978 360.879 59.5298 360.879 55.1138C360.879 50.6338 361.807 46.6658 363.663 43.2098C365.583 39.6898 368.207 36.9698 371.535 35.0498C374.863 33.0658 378.671 32.0738 382.959 32.0738C388.911 32.0738 393.359 33.5778 396.303 36.5858C399.247 39.5298 401.135 42.1538 401.967 44.4578C403.311 47.5938 403.983 51.3378 403.983 55.6898C403.983 56.8418 403.951 57.6738 403.887 58.1858C403.887 58.6338 403.887 58.9218 403.887 59.0498H370.863C371.439 62.1218 372.879 64.6178 375.183 66.5378C377.487 68.4578 380.079 69.4178 382.959 69.4178C386.223 69.4178 388.751 68.7778 390.543 67.4978C392.335 66.2178 393.615 64.9378 394.383 63.6578L402.543 67.3058C401.263 70.2498 398.927 72.7778 395.535 74.8898C392.207 77.0018 388.015 78.0578 382.959 78.0578ZM394.287 50.9858C393.775 47.9138 392.591 45.4498 390.735 43.5938C388.879 41.6738 386.287 40.7138 382.959 40.7138C379.951 40.7138 377.327 41.6738 375.087 43.5938C372.847 45.5138 371.439 47.9778 370.863 50.9858H394.287ZM417.71 50.9858L434.03 32.0738H447.758L429.902 52.5218L447.374 77.8658H434.99L422.606 60.1058L417.71 65.8658V77.8658H407.534V9.22581H417.71V50.9858ZM455.119 24.1058H447.727L451.279 1.25781H461.839L455.119 24.1058ZM475.374 62.1218C476.334 64.4258 477.806 66.2178 479.79 67.4978C481.774 68.7778 483.662 69.4178 485.454 69.4178C487.886 69.4178 489.806 69.0018 491.214 68.1698C492.622 67.2738 493.326 66.0258 493.326 64.4258C493.326 63.1458 492.622 62.1218 491.214 61.3538C489.806 60.5858 487.534 59.6578 484.398 58.5698C481.326 57.4818 478.798 56.4578 476.814 55.4978C474.83 54.5378 473.07 53.1618 471.534 51.3698C470.062 49.5138 469.326 47.2418 469.326 44.5538C469.326 40.5858 470.926 37.4498 474.126 35.1458C477.326 32.7778 481.326 31.5938 486.126 31.5938C488.174 31.5938 490.318 32.0098 492.558 32.8418C494.862 33.6738 496.91 34.9538 498.702 36.6818C500.558 38.4098 501.838 40.5538 502.542 43.1138L493.998 46.1858C493.294 43.9458 492.174 42.4098 490.638 41.5778C489.166 40.7458 487.662 40.3298 486.126 40.3298C484.078 40.3298 482.446 40.7138 481.23 41.4818C480.078 42.2498 479.502 43.2738 479.502 44.5538C479.502 45.8338 480.142 46.8258 481.422 47.5298C482.702 48.2338 485.006 49.1618 488.334 50.3138C491.406 51.4018 493.934 52.4578 495.918 53.4818C497.966 54.4418 499.726 55.8178 501.198 57.6098C502.734 59.4018 503.502 61.6418 503.502 64.3298C503.502 68.4898 501.838 71.8498 498.51 74.4098C495.182 76.9058 490.83 78.1538 485.454 78.1538C481.87 78.1538 478.382 77.1298 474.99 75.0818C471.598 72.9698 469.07 70.1858 467.406 66.7298L475.374 62.1218Z" fill="#171717"/>
<path d="M333 167H0V236H333V167Z" fill="#FF491A"/>
<path d="M16.5432 168.225V236.769H6.36719V168.225H16.5432ZM33.0867 190.977V236.769H22.9107V190.977H33.0867ZM22.2387 173.889C22.2387 172.225 22.7827 170.849 23.8707 169.761C24.9587 168.673 26.3347 168.129 27.9987 168.129C29.6627 168.129 31.0387 168.673 32.1267 169.761C33.2147 170.849 33.7587 172.225 33.7587 173.889C33.7587 175.553 33.2147 176.929 32.1267 178.017C31.0387 179.105 29.6627 179.649 27.9987 179.649C26.3347 179.649 24.9587 179.105 23.8707 178.017C22.7827 176.929 22.2387 175.553 22.2387 173.889ZM63.8982 236.865H55.0662L35.8662 191.073H47.0022L59.4822 223.137L72.0582 191.073H83.2902L63.8982 236.865ZM101.383 237.057C97.0945 237.057 93.2865 236.097 89.9585 234.177C86.6305 232.193 84.0065 229.473 82.0865 226.017C80.2305 222.497 79.3025 218.529 79.3025 214.113C79.3025 209.633 80.2305 205.665 82.0865 202.209C84.0065 198.689 86.6305 195.969 89.9585 194.049C93.2865 192.065 97.0945 191.073 101.383 191.073C107.335 191.073 111.783 192.577 114.727 195.585C117.671 198.529 119.559 201.153 120.391 203.457C121.735 206.593 122.407 210.337 122.407 214.689C122.407 215.841 122.375 216.673 122.311 217.185C122.311 217.633 122.311 217.921 122.311 218.049H89.2865C89.8625 221.121 91.3025 223.617 93.6065 225.537C95.9105 227.457 98.5025 228.417 101.383 228.417C104.647 228.417 107.175 227.777 108.967 226.497C110.759 225.217 112.039 223.937 112.807 222.657L120.967 226.305C119.687 229.249 117.351 231.777 113.959 233.889C110.631 236.001 106.439 237.057 101.383 237.057ZM112.711 209.985C112.199 206.913 111.015 204.449 109.159 202.593C107.303 200.673 104.711 199.713 101.383 199.713C98.3745 199.713 95.7505 200.673 93.5105 202.593C91.2705 204.513 89.8625 206.977 89.2865 209.985H112.711ZM148.134 221.121C149.094 223.425 150.566 225.217 152.55 226.497C154.534 227.777 156.422 228.417 158.214 228.417C160.646 228.417 162.566 228.001 163.974 227.169C165.382 226.273 166.086 225.025 166.086 223.425C166.086 222.145 165.382 221.121 163.974 220.353C162.566 219.585 160.294 218.657 157.158 217.569C154.086 216.481 151.558 215.457 149.574 214.497C147.59 213.537 145.83 212.161 144.294 210.369C142.822 208.513 142.086 206.241 142.086 203.553C142.086 199.585 143.686 196.449 146.886 194.145C150.086 191.777 154.086 190.593 158.886 190.593C160.934 190.593 163.078 191.009 165.318 191.841C167.622 192.673 169.67 193.953 171.462 195.681C173.318 197.409 174.598 199.553 175.302 202.113L166.758 205.185C166.054 202.945 164.934 201.409 163.398 200.577C161.926 199.745 160.422 199.329 158.886 199.329C156.838 199.329 155.206 199.713 153.99 200.481C152.838 201.249 152.262 202.273 152.262 203.553C152.262 204.833 152.902 205.825 154.182 206.529C155.462 207.233 157.766 208.161 161.094 209.313C164.166 210.401 166.694 211.457 168.678 212.481C170.726 213.441 172.486 214.817 173.958 216.609C175.494 218.401 176.262 220.641 176.262 223.329C176.262 227.489 174.598 230.849 171.27 233.409C167.942 235.905 163.59 237.153 158.214 237.153C154.63 237.153 151.142 236.129 147.75 234.081C144.358 231.969 141.83 229.185 140.166 225.729L148.134 221.121ZM210.508 211.809C210.508 208.033 209.676 205.025 208.012 202.785C206.348 200.545 204.14 199.425 201.388 199.425C199.34 199.425 197.452 200.033 195.724 201.249C193.996 202.401 192.62 204.001 191.596 206.049C190.636 208.097 190.156 210.337 190.156 212.769V236.001H179.98V168.225H190.156V196.449C191.564 194.657 193.292 193.249 195.34 192.225C197.388 191.137 199.404 190.593 201.388 190.593C205.1 190.593 208.428 191.457 211.372 193.185C214.316 194.913 216.62 197.313 218.284 200.385C219.948 203.393 220.78 206.817 220.78 210.657V236.001H210.508V211.809ZM246.35 228.513C249.934 228.513 252.814 227.201 254.99 224.577C257.166 221.953 258.254 218.465 258.254 214.113C258.254 209.825 257.166 206.369 254.99 203.745C252.814 201.057 249.934 199.713 246.35 199.713C242.766 199.713 239.886 201.025 237.71 203.649C235.534 206.273 234.446 209.761 234.446 214.113C234.446 218.465 235.534 221.953 237.71 224.577C239.886 227.201 242.766 228.513 246.35 228.513ZM224.27 214.113C224.27 209.633 225.198 205.665 227.054 202.209C228.974 198.689 231.598 195.937 234.926 193.953C238.254 191.969 242.062 190.977 246.35 190.977C250.638 190.977 254.446 191.969 257.774 193.953C261.102 195.937 263.694 198.689 265.55 202.209C267.47 205.665 268.43 209.633 268.43 214.113C268.43 218.529 267.47 222.497 265.55 226.017C263.694 229.537 261.102 232.289 257.774 234.273C254.446 236.257 250.638 237.249 246.35 237.249C242.062 237.249 238.254 236.257 234.926 234.273C231.598 232.289 228.974 229.537 227.054 226.017C225.198 222.497 224.27 218.529 224.27 214.113ZM315.354 236.865H305.946L296.922 207.297L288.09 236.865H278.682L264.954 191.073H275.514L283.482 220.353L291.738 191.073H301.914L310.458 220.353L318.234 191.073H328.794L315.354 236.865Z" fill="#171717"/>
</svg>
