<svg width="24" height="24" viewBox="0 0 24 24" fill="none" xmlns="http://www.w3.org/2000/svg">
<path d="M12 20.3252L10.8963 19.3329C9.23858 17.8291 7.86775 16.5369 6.78375 15.4562C5.69975 14.3754 4.84075 13.4134 4.20675 12.5704C3.57275 11.7276 3.12983 10.9587 2.878 10.2637C2.626 9.56885 2.5 8.86377 2.5 8.14844C2.5 6.72927 2.9785 5.5411 3.9355 4.58394C4.89267 3.62694 6.08083 3.14844 7.5 3.14844C8.373 3.14844 9.198 3.3526 9.975 3.76094C10.752 4.16927 11.427 4.75485 12 5.51769C12.573 4.75485 13.248 4.16927 14.025 3.76094C14.802 3.3526 15.627 3.14844 16.5 3.14844C17.9192 3.14844 19.1073 3.62694 20.0645 4.58394C21.0215 5.5411 21.5 6.72927 21.5 8.14844C21.5 8.86377 21.374 9.56885 21.122 10.2637C20.8702 10.9587 20.4272 11.7276 19.7932 12.5704C19.1592 13.4134 18.3018 14.3754 17.221 15.4562C16.1403 16.5369 14.7679 17.8291 13.1038 19.3329L12 20.3252Z" fill="#FF491A"/>
</svg>
