<svg width="20" height="20" viewBox="0 0 20 20" fill="none" xmlns="http://www.w3.org/2000/svg">
<path d="M9.99908 6.14844C8.97712 6.14844 7.99701 6.55441 7.27437 7.27705C6.55173 7.99969 6.14575 8.9798 6.14575 10.0018C6.14575 11.0237 6.55173 12.0038 7.27437 12.7265C7.99701 13.4491 8.97712 13.8551 9.99908 13.8551C11.0211 13.8551 12.0012 13.4491 12.7238 12.7265C13.4464 12.0038 13.8524 11.0237 13.8524 10.0018C13.8524 8.9798 13.4464 7.99969 12.7238 7.27705C12.0012 6.55441 11.0211 6.14844 9.99908 6.14844ZM9.99908 12.5043C9.33516 12.5043 8.69843 12.2405 8.22896 11.7711C7.7595 11.3016 7.49575 10.6649 7.49575 10.0009C7.49575 9.33701 7.7595 8.70028 8.22896 8.23081C8.69843 7.76135 9.33516 7.4976 9.99908 7.4976C10.663 7.4976 11.2997 7.76135 11.7692 8.23081C12.2387 8.70028 12.5024 9.33701 12.5024 10.0009C12.5024 10.6649 12.2387 11.3016 11.7692 11.7711C11.2997 12.2405 10.663 12.5043 9.99908 12.5043Z" fill="#202020"/>
<path d="M14.005 6.90236C14.5011 6.90236 14.9033 6.50017 14.9033 6.00403C14.9033 5.5079 14.5011 5.1057 14.005 5.1057C13.5088 5.1057 13.1066 5.5079 13.1066 6.00403C13.1066 6.50017 13.5088 6.90236 14.005 6.90236Z" fill="#202020"/>
<path d="M17.1109 5.09322C16.918 4.59503 16.6231 4.14262 16.2453 3.76493C15.8675 3.38725 15.415 3.09261 14.9167 2.89988C14.3337 2.68101 13.7177 2.56267 13.095 2.54988C12.2925 2.51488 12.0384 2.50488 10.0034 2.50488C7.96837 2.50488 7.70754 2.50488 6.91171 2.54988C6.28953 2.56201 5.67401 2.68038 5.09171 2.89988C4.59332 3.09238 4.14068 3.38694 3.76282 3.76466C3.38496 4.14237 3.09023 4.5949 2.89754 5.09322C2.67863 5.67623 2.56055 6.29225 2.54838 6.91488C2.51254 7.71655 2.50171 7.97072 2.50171 10.0066C2.50171 12.0416 2.50171 12.3007 2.54838 13.0982C2.56088 13.7216 2.67838 14.3366 2.89754 14.9207C3.09077 15.4189 3.38579 15.8712 3.76374 16.2489C4.14169 16.6265 4.59426 16.9212 5.09254 17.114C5.67374 17.3417 6.28952 17.4685 6.91337 17.4891C7.71587 17.5241 7.97004 17.5349 10.005 17.5349C12.04 17.5349 12.3009 17.5349 13.0967 17.4891C13.7193 17.4764 14.3352 17.3583 14.9184 17.1399C15.4165 16.9467 15.8689 16.6518 16.2467 16.274C16.6245 15.8962 16.9194 15.4438 17.1125 14.9457C17.3317 14.3624 17.4492 13.7474 17.4617 13.1241C17.4975 12.3224 17.5084 12.0682 17.5084 10.0324C17.5084 7.99655 17.5084 7.73822 17.4617 6.94072C17.452 6.30928 17.3333 5.68426 17.1109 5.09322ZM16.0959 13.0366C16.0905 13.5168 16.0028 13.9926 15.8367 14.4432C15.7116 14.7673 15.52 15.0616 15.2743 15.3071C15.0286 15.5527 14.7342 15.7441 14.41 15.8691C13.9644 16.0344 13.4937 16.1221 13.0184 16.1282C12.2267 16.1649 12.0034 16.1741 9.97337 16.1741C7.94171 16.1741 7.73421 16.1741 6.92754 16.1282C6.45248 16.1224 5.98198 16.0347 5.53671 15.8691C5.21145 15.7449 4.91588 15.5538 4.66912 15.3082C4.42236 15.0626 4.2299 14.7679 4.10421 14.4432C3.94041 13.9974 3.8528 13.5273 3.84504 13.0524C3.80921 12.2607 3.80088 12.0374 3.80088 10.0074C3.80088 7.97655 3.80088 7.76905 3.84504 6.96155C3.85043 6.48157 3.93809 6.00607 4.10421 5.55572C4.35838 4.89822 4.87921 4.38072 5.53671 4.12905C5.9822 3.96417 6.45256 3.87652 6.92754 3.86988C7.72004 3.83405 7.94254 3.82405 9.97337 3.82405C12.0042 3.82405 12.2125 3.82405 13.0184 3.86988C13.4937 3.8756 13.9645 3.96328 14.41 4.12905C14.7341 4.25428 15.0285 4.44588 15.2742 4.69157C15.5199 4.93726 15.7115 5.23161 15.8367 5.55572C16.0005 6.00151 16.0881 6.47168 16.0959 6.94655C16.1317 7.73905 16.1409 7.96155 16.1409 9.99238C16.1409 12.0224 16.1409 12.2407 16.105 13.0374L16.0959 13.0366Z" fill="#202020"/>
</svg>
