<svg width="24" height="24" viewBox="0 0 24 24" fill="none" xmlns="http://www.w3.org/2000/svg">
<path d="M14.8283 16.2423L11.9999 19.0707C11.0217 20.0489 9.84324 20.5379 8.46438 20.5379C7.08552 20.5379 5.90701 20.0489 4.92884 19.0707C3.95068 18.0925 3.4616 16.914 3.4616 15.5352C3.4616 14.1563 3.95068 12.9778 4.92884 11.9996L7.75727 9.1712L9.17149 10.5854L6.34306 13.4138C5.7538 14.0031 5.45917 14.7102 5.45917 15.5352C5.45917 16.3601 5.7538 17.0672 6.34306 17.6565C6.93231 18.2457 7.63942 18.5404 8.46438 18.5404C9.28934 18.5404 9.99644 18.2457 10.5857 17.6565L13.4141 14.828L14.8283 16.2423ZM9.87859 15.5352L8.46438 14.1209L14.1212 8.46409L15.5354 9.8783L9.87859 15.5352ZM16.2426 14.828L14.8283 13.4138L17.6568 10.5854C18.246 9.99615 18.5406 9.28905 18.5406 8.46409C18.5407 7.63913 18.246 6.93202 17.6568 6.34277C17.0675 5.75351 16.3604 5.45888 15.5354 5.45888C14.7105 5.45889 14.0034 5.75351 13.4141 6.34277L10.5857 9.1712L9.17149 7.75698L11.9999 4.92855C12.9781 3.95039 14.1566 3.46131 15.5354 3.46131C16.9143 3.46131 18.0928 3.95039 19.071 4.92855C20.0491 5.90672 20.5382 7.08523 20.5382 8.46409C20.5382 9.84295 20.0491 11.0215 19.071 11.9996L16.2426 14.828Z" fill="white"/>
</svg>
