<svg width="20" height="20" viewBox="0 0 20 20" fill="none" xmlns="http://www.w3.org/2000/svg">
<path d="M14.1665 18.3337C13.4721 18.3337 12.8818 18.0906 12.3957 17.6045C11.9096 17.1184 11.6665 16.5281 11.6665 15.8337C11.6665 15.7503 11.6873 15.5559 11.729 15.2503L5.87484 11.8337C5.65262 12.042 5.39567 12.2052 5.104 12.3232C4.81234 12.4413 4.49984 12.5003 4.1665 12.5003C3.47206 12.5003 2.88178 12.2573 2.39567 11.7712C1.90956 11.285 1.6665 10.6948 1.6665 10.0003C1.6665 9.30588 1.90956 8.7156 2.39567 8.22949C2.88178 7.74338 3.47206 7.50032 4.1665 7.50032C4.49984 7.50032 4.81234 7.55935 5.104 7.67741C5.39567 7.79546 5.65262 7.95866 5.87484 8.16699L11.729 4.75032C11.7012 4.6531 11.6839 4.55935 11.6769 4.46908C11.67 4.3788 11.6665 4.2781 11.6665 4.16699C11.6665 3.47255 11.9096 2.88227 12.3957 2.39616C12.8818 1.91005 13.4721 1.66699 14.1665 1.66699C14.8609 1.66699 15.4512 1.91005 15.9373 2.39616C16.4234 2.88227 16.6665 3.47255 16.6665 4.16699C16.6665 4.86144 16.4234 5.45171 15.9373 5.93782C15.4512 6.42394 14.8609 6.66699 14.1665 6.66699C13.8332 6.66699 13.5207 6.60796 13.229 6.48991C12.9373 6.37185 12.6804 6.20866 12.4582 6.00032L6.604 9.41699C6.63178 9.51421 6.64914 9.60796 6.65609 9.69824C6.66303 9.78852 6.6665 9.88921 6.6665 10.0003C6.6665 10.1114 6.66303 10.2121 6.65609 10.3024C6.64914 10.3927 6.63178 10.4864 6.604 10.5837L12.4582 14.0003C12.6804 13.792 12.9373 13.6288 13.229 13.5107C13.5207 13.3927 13.8332 13.3337 14.1665 13.3337C14.8609 13.3337 15.4512 13.5767 15.9373 14.0628C16.4234 14.5489 16.6665 15.1392 16.6665 15.8337C16.6665 16.5281 16.4234 17.1184 15.9373 17.6045C15.4512 18.0906 14.8609 18.3337 14.1665 18.3337ZM14.1665 16.667C14.4026 16.667 14.6005 16.5871 14.7603 16.4274C14.92 16.2677 14.9998 16.0698 14.9998 15.8337C14.9998 15.5975 14.92 15.3996 14.7603 15.2399C14.6005 15.0802 14.4026 15.0003 14.1665 15.0003C13.9304 15.0003 13.7325 15.0802 13.5728 15.2399C13.413 15.3996 13.3332 15.5975 13.3332 15.8337C13.3332 16.0698 13.413 16.2677 13.5728 16.4274C13.7325 16.5871 13.9304 16.667 14.1665 16.667ZM4.1665 10.8337C4.40262 10.8337 4.60053 10.7538 4.76025 10.5941C4.91998 10.4344 4.99984 10.2364 4.99984 10.0003C4.99984 9.76421 4.91998 9.5663 4.76025 9.40657C4.60053 9.24685 4.40262 9.16699 4.1665 9.16699C3.93039 9.16699 3.73248 9.24685 3.57275 9.40657C3.41303 9.5663 3.33317 9.76421 3.33317 10.0003C3.33317 10.2364 3.41303 10.4344 3.57275 10.5941C3.73248 10.7538 3.93039 10.8337 4.1665 10.8337ZM14.1665 5.00032C14.4026 5.00032 14.6005 4.92046 14.7603 4.76074C14.92 4.60102 14.9998 4.4031 14.9998 4.16699C14.9998 3.93088 14.92 3.73296 14.7603 3.57324C14.6005 3.41352 14.4026 3.33366 14.1665 3.33366C13.9304 3.33366 13.7325 3.41352 13.5728 3.57324C13.413 3.73296 13.3332 3.93088 13.3332 4.16699C13.3332 4.4031 13.413 4.60102 13.5728 4.76074C13.7325 4.92046 13.9304 5.00032 14.1665 5.00032Z" fill="#202020"/>
</svg>
