<svg width="144" height="104" viewBox="0 0 144 104" fill="none" xmlns="http://www.w3.org/2000/svg">
<path d="M37.6 59.08H45.36V65.72H37.6V81.16H30V65.72H4.88L4.08 59.08L30.32 23.08H37.6V59.08ZM30 59.08V35.88L13.2 59.08H30Z" fill="#202020"/>
<path d="M131.6 47.08H139.36V53.72H131.6V69.16H124V53.72H98.88L98.08 47.08L124.32 11.08H131.6V47.08ZM124 47.08V23.88L107.2 47.08H124Z" fill="#202020"/>
<path d="M71.44 87C74.16 87 76.56 86.04 78.64 84.12C80.72 82.2 82.3467 79.5067 83.52 76.04C84.6933 72.5733 85.28 68.6 85.28 64.12C85.28 59.64 84.6933 55.6667 83.52 52.2C82.4 48.7333 80.7733 46.04 78.64 44.12C76.56 42.2 74.16 41.24 71.44 41.24C68.72 41.24 66.2933 42.2 64.16 44.12C62.08 46.04 60.4533 48.7333 59.28 52.2C58.16 55.6667 57.6 59.64 57.6 64.12C57.6 68.6 58.1867 72.5733 59.36 76.04C60.5333 79.5067 62.16 82.2 64.24 84.12C66.32 86.04 68.72 87 71.44 87ZM50 64.12C50 58.4133 50.9067 53.32 52.72 48.84C54.5333 44.3067 57.0667 40.7867 60.32 38.28C63.5733 35.7733 67.28 34.52 71.44 34.52C75.6 34.52 79.3067 35.7733 82.56 38.28C85.8133 40.7867 88.3467 44.3067 90.16 48.84C91.9733 53.32 92.88 58.4133 92.88 64.12C92.88 69.8267 91.9733 74.9467 90.16 79.48C88.3467 83.96 85.8133 87.4533 82.56 89.96C79.3067 92.4667 75.6 93.72 71.44 93.72C67.28 93.72 63.5733 92.4667 60.32 89.96C57.0667 87.4533 54.5333 83.96 52.72 79.48C50.9067 74.9467 50 69.8267 50 64.12Z" fill="#202020"/>
</svg>
