<svg width="335" height="130" viewBox="0 0 335 130" fill="none" xmlns="http://www.w3.org/2000/svg">
<path d="M15.8909 38.1961H11.5399L2.08105 15.7321H7.56717L13.7154 31.4616L19.9109 15.7321H25.4443L15.8909 38.1961ZM31.6635 15.685V38.149H26.6503V15.685H31.6635ZM26.3193 7.30222C26.3193 6.48592 26.5873 5.8109 27.1233 5.27717C27.6593 4.74343 28.3372 4.47656 29.1569 4.47656C29.9767 4.47656 30.6546 4.74343 31.1906 5.27717C31.7266 5.8109 31.9946 6.48592 31.9946 7.30222C31.9946 8.11852 31.7266 8.79354 31.1906 9.32728C30.6546 9.86102 29.9767 10.1279 29.1569 10.1279C28.3372 10.1279 27.6593 9.86102 27.1233 9.32728C26.5873 8.79354 26.3193 8.11852 26.3193 7.30222ZM44.8453 38.2903C42.7328 38.2903 40.8568 37.8194 39.2173 36.8775C37.5778 35.9042 36.285 34.5698 35.3392 32.8745C34.4248 31.1477 33.9676 29.2011 33.9676 27.0348C33.9676 24.837 34.4248 22.8905 35.3392 21.1951C36.285 19.4683 37.5778 18.1339 39.2173 17.192C40.8568 16.2188 42.7328 15.7321 44.8453 15.7321C47.7775 15.7321 49.9688 16.4699 51.4192 17.9455C52.8695 19.3898 53.7996 20.677 54.2095 21.8073C54.8716 23.3457 55.2027 25.1824 55.2027 27.3173C55.2027 27.8825 55.1869 28.2906 55.1554 28.5418C55.1554 28.7615 55.1554 28.9028 55.1554 28.9656H38.8862C39.17 30.4726 39.8794 31.6971 41.0145 32.639C42.1495 33.5809 43.4265 34.0518 44.8453 34.0518C46.4533 34.0518 47.6987 33.7379 48.5815 33.1099C49.4643 32.482 50.0949 31.8541 50.4733 31.2261L54.4933 33.0157C53.8627 34.46 52.7119 35.7001 51.0408 36.7362C49.4013 37.7723 47.3361 38.2903 44.8453 38.2903ZM50.426 25.0097C50.1738 23.5027 49.5905 22.2939 48.6761 21.3834C47.7618 20.4415 46.4848 19.9706 44.8453 19.9706C43.3634 19.9706 42.0707 20.4415 40.9672 21.3834C39.8636 22.3253 39.17 23.5341 38.8862 25.0097H50.426ZM78.5162 38.1961H73.8819L69.4363 23.6911L65.0852 38.1961H60.4499L53.6868 15.7321H58.8892L62.8151 30.0959L66.8819 15.7321H71.8955L76.1042 30.0959L79.9355 15.7321H85.1379L78.5162 38.1961Z" fill="#202020"/>
<path d="M195.769 62.0977V67.0897H175.148V62.0977H195.769ZM211.66 62.0977V67.0897H191.04V62.0977H211.66ZM227.552 62.0977V67.0897H206.932V62.0977H227.552ZM246.795 77.733C247.677 77.733 248.576 77.5289 249.49 77.1208C250.436 76.6812 251.224 76.1161 251.855 75.4254L255.308 78.8633C254.33 79.9307 253.053 80.8098 251.477 81.5005C249.9 82.1599 248.403 82.4895 246.984 82.4895C244.777 82.4895 242.806 82.0186 241.072 81.0767C239.338 80.1034 237.982 78.7534 237.005 77.0266C236.027 75.2998 235.539 73.3532 235.539 71.1869C235.539 68.9891 236.027 67.0426 237.005 65.3472C237.982 63.6204 239.338 62.2703 241.072 61.2971C242.806 60.3238 244.777 59.8371 246.984 59.8371C248.466 59.8371 249.963 60.1825 251.477 60.8732C252.99 61.5325 254.267 62.4116 255.308 63.5105L251.855 66.9013C251.224 66.2106 250.436 65.6611 249.49 65.253C248.576 64.8134 247.677 64.5937 246.795 64.5937C244.934 64.5937 243.421 65.1902 242.254 66.3833C241.119 67.5763 240.552 69.1775 240.552 71.1869C240.552 73.1648 241.119 74.7503 242.254 75.9434C243.421 77.1365 244.934 77.733 246.795 77.733ZM265.19 82.5366C263.141 82.5366 261.296 82.05 259.657 81.0767C258.049 80.1034 256.787 78.7691 255.873 77.0737C254.959 75.3469 254.502 73.4003 254.502 71.234C254.502 69.0676 254.959 67.1368 255.873 65.4414C256.787 63.7146 258.049 62.3645 259.657 61.3913C261.296 60.418 263.141 59.9313 265.19 59.9313C266.357 59.9313 267.507 60.1982 268.643 60.7319C269.778 61.2657 270.787 62.0506 271.669 63.0867V59.8842H276.683V82.3482H271.669V79.3342C270.818 80.4017 269.825 81.2023 268.69 81.736C267.555 82.2697 266.388 82.5366 265.19 82.5366ZM259.515 71.234C259.515 73.3375 260.067 75.0486 261.17 76.3673C262.274 77.6545 263.724 78.2981 265.521 78.2981C266.625 78.2981 267.649 77.9999 268.595 77.4033C269.541 76.7754 270.298 75.9277 270.865 74.8602C271.433 73.7614 271.717 72.5526 271.717 71.234C271.717 69.9153 271.433 68.7223 270.865 67.6548C270.298 66.5559 269.541 65.7082 268.595 65.1117C267.649 64.4838 266.625 64.1698 265.521 64.1698C263.724 64.1698 262.274 64.8134 261.17 66.1007C260.067 67.3879 259.515 69.099 259.515 71.234ZM281.658 64.1698H277.401V59.8371H281.658V51.9724H286.671V59.8371H292.015V64.1698H286.671V82.3482H281.658V64.1698ZM302.043 77.733C302.926 77.733 303.825 77.5289 304.739 77.1208C305.685 76.6812 306.473 76.1161 307.104 75.4254L310.556 78.8633C309.579 79.9307 308.302 80.8098 306.726 81.5005C305.149 82.1599 303.652 82.4895 302.233 82.4895C300.026 82.4895 298.055 82.0186 296.321 81.0767C294.587 80.1034 293.231 78.7534 292.254 77.0266C291.276 75.2998 290.787 73.3532 290.787 71.1869C290.787 68.9891 291.276 67.0426 292.254 65.3472C293.231 63.6204 294.587 62.2703 296.321 61.2971C298.055 60.3238 300.026 59.8371 302.233 59.8371C303.715 59.8371 305.212 60.1825 306.726 60.8732C308.239 61.5325 309.516 62.4116 310.556 63.5105L307.104 66.9013C306.473 66.2106 305.685 65.6611 304.739 65.253C303.825 64.8134 302.926 64.5937 302.043 64.5937C300.183 64.5937 298.67 65.1902 297.503 66.3833C296.368 67.5763 295.801 69.1775 295.801 71.1869C295.801 73.1648 296.368 74.7503 297.503 75.9434C298.67 77.1365 300.183 77.733 302.043 77.733ZM326.529 70.0566C326.529 68.2042 326.119 66.7286 325.299 65.6297C324.48 64.5309 323.392 63.9814 322.036 63.9814C321.027 63.9814 320.097 64.2797 319.246 64.8762C318.394 65.4414 317.717 66.2263 317.212 67.231C316.739 68.2356 316.503 69.3345 316.503 70.5276V81.9244H311.49V48.6758H316.503V62.5215C317.196 61.6424 318.048 60.9517 319.057 60.4494C320.065 59.9156 321.059 59.6488 322.036 59.6488C323.865 59.6488 325.504 60.0726 326.955 60.9203C328.405 61.768 329.54 62.9454 330.36 64.4524C331.18 65.928 331.589 67.6077 331.589 69.4915V81.9244H326.529V70.0566Z" fill="#202020"/>
<path d="M257.162 92.2266H64.0439V126.076H257.162V92.2266Z" fill="#D5D1C6"/>
<path d="M91.1907 126.503H86.5559L82.1103 111.998L77.7592 126.503H73.1244L66.3613 104.039H71.5637L75.4891 118.403L79.5564 104.039H84.5696L88.7787 118.403L92.6096 104.039H97.8119L91.1907 126.503ZM114.047 114.212C114.047 112.359 113.637 110.884 112.817 109.785C111.998 108.686 110.91 108.136 109.554 108.136C108.545 108.136 107.615 108.435 106.764 109.031C105.913 109.596 105.235 110.381 104.73 111.386C104.257 112.391 104.021 113.489 104.021 114.682V126.079H99.0076V92.8307H104.021V106.676C104.714 105.797 105.566 105.107 106.575 104.604C107.584 104.071 108.577 103.804 109.554 103.804C111.383 103.804 113.022 104.228 114.473 105.075C115.923 105.923 117.058 107.1 117.878 108.607C118.698 110.083 119.108 111.763 119.108 113.646V126.079H114.047V114.212ZM131.515 126.692C129.466 126.692 127.622 126.205 125.982 125.232C124.374 124.258 123.113 122.924 122.198 121.229C121.284 119.502 120.827 117.555 120.827 115.389C120.827 113.223 121.284 111.292 122.198 109.596C123.113 107.869 124.374 106.519 125.982 105.546C127.622 104.573 129.466 104.086 131.515 104.086C132.682 104.086 133.833 104.353 134.968 104.887C136.103 105.421 137.112 106.206 137.995 107.242V104.039H143.008V126.503H137.995V123.489C137.144 124.557 136.151 125.357 135.015 125.891C133.881 126.425 132.714 126.692 131.515 126.692ZM125.841 115.389C125.841 117.492 126.392 119.204 127.496 120.522C128.599 121.809 130.049 122.453 131.846 122.453C132.95 122.453 133.975 122.155 134.921 121.558C135.867 120.93 136.624 120.083 137.191 119.015C137.759 117.916 138.042 116.708 138.042 115.389C138.042 114.07 137.759 112.877 137.191 111.81C136.624 110.711 135.867 109.863 134.921 109.267C133.975 108.639 132.95 108.325 131.846 108.325C130.049 108.325 128.599 108.968 127.496 110.256C126.392 111.543 125.841 113.254 125.841 115.389ZM147.983 108.325H143.727V103.992H147.983V96.1273H152.996V103.992H158.341V108.325H152.996V126.503H147.983V108.325ZM163.929 100.13H160.287L162.037 88.9219H167.239L163.929 100.13ZM173.908 118.78C174.381 119.91 175.106 120.789 176.083 121.417C177.061 122.045 177.991 122.359 178.874 122.359C180.072 122.359 181.018 122.155 181.711 121.747C182.405 121.307 182.752 120.695 182.752 119.91C182.752 119.282 182.405 118.78 181.711 118.403C181.018 118.026 179.898 117.571 178.353 117.037C176.84 116.503 175.594 116.001 174.617 115.53C173.64 115.059 172.773 114.384 172.016 113.505C171.291 112.595 170.928 111.48 170.928 110.161C170.928 108.215 171.716 106.676 173.293 105.546C174.869 104.385 176.84 103.804 179.205 103.804C180.214 103.804 181.27 104.008 182.373 104.416C183.508 104.824 184.517 105.452 185.4 106.3C186.314 107.147 186.945 108.199 187.292 109.455L183.083 110.962C182.736 109.863 182.184 109.11 181.427 108.702C180.702 108.293 179.961 108.089 179.205 108.089C178.196 108.089 177.392 108.278 176.793 108.654C176.225 109.031 175.941 109.534 175.941 110.161C175.941 110.789 176.257 111.276 176.887 111.621C177.518 111.967 178.653 112.422 180.292 112.987C181.806 113.521 183.051 114.039 184.029 114.541C185.038 115.012 185.905 115.687 186.63 116.566C187.386 117.445 187.765 118.544 187.765 119.863C187.765 121.904 186.945 123.552 185.306 124.808C183.666 126.032 181.522 126.644 178.874 126.644C177.108 126.644 175.39 126.142 173.718 125.137C172.047 124.101 170.802 122.736 169.982 121.04L173.908 118.78ZM201.893 92.8307V126.456H196.879V92.8307H201.893ZM210.043 103.992V126.456H205.03V103.992H210.043ZM204.699 95.6093C204.699 94.793 204.967 94.1179 205.503 93.5842C206.039 93.0505 206.716 92.7836 207.536 92.7836C208.356 92.7836 209.034 93.0505 209.57 93.5842C210.106 94.1179 210.374 94.793 210.374 95.6093C210.374 96.4256 210.106 97.1006 209.57 97.6343C209.034 98.1681 208.356 98.4349 207.536 98.4349C206.716 98.4349 206.039 98.1681 205.503 97.6343C204.967 97.1006 204.699 96.4256 204.699 95.6093ZM225.222 126.503H220.871L211.412 104.039H216.898L223.046 119.769L229.242 104.039H234.775L225.222 126.503ZM243.689 126.597C241.576 126.597 239.7 126.126 238.061 125.185C236.421 124.211 235.128 122.877 234.183 121.182C233.268 119.455 232.811 117.508 232.811 115.342C232.811 113.144 233.268 111.197 234.183 109.502C235.128 107.775 236.421 106.441 238.061 105.499C239.7 104.526 241.576 104.039 243.689 104.039C246.621 104.039 248.812 104.777 250.263 106.253C251.713 107.697 252.643 108.984 253.053 110.114C253.715 111.653 254.046 113.489 254.046 115.624C254.046 116.19 254.03 116.598 253.999 116.849C253.999 117.069 253.999 117.21 253.999 117.273H237.73C238.013 118.78 238.723 120.004 239.858 120.946C240.993 121.888 242.27 122.359 243.689 122.359C245.297 122.359 246.542 122.045 247.425 121.417C248.308 120.789 248.938 120.161 249.317 119.533L253.337 121.323C252.706 122.767 251.555 124.007 249.884 125.043C248.245 126.079 246.179 126.597 243.689 126.597ZM249.269 113.317C249.017 111.81 248.434 110.601 247.519 109.69C246.605 108.749 245.328 108.278 243.689 108.278C242.207 108.278 240.914 108.749 239.811 109.69C238.707 110.632 238.013 111.841 237.73 113.317H249.269Z" fill="#202020"/>
<path d="M216.272 3.92969H91.1396V37.7787H216.272V3.92969Z" fill="#AECACD"/>
<path d="M104.418 38.3845C102.369 38.3845 100.524 37.8978 98.8846 36.9246C97.2766 35.9513 96.0154 34.6169 95.101 32.9215C94.1867 31.1947 93.7295 29.2482 93.7295 27.0818C93.7295 24.9155 94.1867 22.9846 95.101 21.2892C96.0154 19.5625 97.2766 18.2124 98.8846 17.2391C100.524 16.2658 102.369 15.7792 104.418 15.7792C105.585 15.7792 106.735 16.0461 107.87 16.5798C109.005 17.1135 110.014 17.8984 110.897 18.9345V15.7321H115.91V38.1961H110.897V35.1821C110.046 36.2495 109.053 37.0501 107.918 37.5839C106.783 38.1176 105.616 38.3845 104.418 38.3845ZM98.7427 27.0818C98.7427 29.1854 99.2944 30.8965 100.398 32.2151C101.501 33.5024 102.952 34.146 104.749 34.146C105.853 34.146 106.877 33.8477 107.823 33.2512C108.769 32.6233 109.526 31.7756 110.093 30.7081C110.661 29.6092 110.945 28.4005 110.945 27.0818C110.945 25.7632 110.661 24.5701 110.093 23.5027C109.526 22.4038 108.769 21.5561 107.823 20.9596C106.877 20.3317 105.853 20.0177 104.749 20.0177C102.952 20.0177 101.501 20.6613 100.398 21.9486C99.2944 23.2358 98.7427 24.9469 98.7427 27.0818ZM123.237 4.52366V38.149H118.224V4.52366H123.237ZM130.631 4.52366V38.149H125.618V4.52366H130.631ZM150.579 34.0518C151.746 34.0518 152.802 33.7378 153.748 33.1099C154.694 32.482 155.435 31.6343 155.971 30.5668C156.507 29.468 156.775 28.2749 156.775 26.9877C156.775 25.7318 156.507 24.5701 155.971 23.5027C155.435 22.4038 154.694 21.5404 153.748 20.9125C152.802 20.2846 151.746 19.9706 150.579 19.9706C148.813 19.9706 147.379 20.6142 146.275 21.9015C145.172 23.1887 144.62 24.8841 144.62 26.9877C144.62 29.1226 145.156 30.8337 146.228 32.1209C147.331 33.4082 148.782 34.0518 150.579 34.0518ZM139.607 27.0347C139.607 24.8684 140.064 22.9218 140.978 21.1951C141.893 19.4683 143.154 18.1182 144.762 17.1449C146.401 16.1717 148.246 15.685 150.295 15.685C151.493 15.685 152.676 15.9833 153.842 16.5798C155.04 17.1449 156.018 17.9455 156.775 18.9816V15.685H161.788V36.5007C161.788 38.6357 161.315 40.5979 160.369 42.3875C159.455 44.1771 158.146 45.5899 156.443 46.626C154.741 47.6621 152.77 48.1801 150.532 48.1801C148.545 48.1801 146.701 47.7406 144.998 46.8615C143.327 46.0138 141.956 44.7108 140.884 42.9526L144.856 40.3154C145.708 41.5398 146.559 42.4189 147.41 42.9526C148.293 43.4864 149.334 43.7532 150.532 43.7532C152.455 43.7532 153.968 43.0939 155.072 41.7753C156.207 40.4566 156.775 38.8397 156.775 36.9246V34.9466C155.923 36.0141 154.899 36.8461 153.7 37.4426C152.534 38.0391 151.399 38.3374 150.295 38.3374C148.246 38.3374 146.401 37.8507 144.762 36.8775C143.154 35.9042 141.893 34.5698 140.978 32.8744C140.064 31.1477 139.607 29.2011 139.607 27.0347ZM169.871 15.685V38.149H164.858V15.685H169.871ZM164.527 7.30222C164.527 6.48592 164.795 5.8109 165.331 5.27717C165.867 4.74343 166.545 4.47656 167.364 4.47656C168.184 4.47656 168.862 4.74343 169.398 5.27717C169.934 5.8109 170.202 6.48592 170.202 7.30222C170.202 8.11852 169.934 8.79354 169.398 9.32728C168.862 9.86102 168.184 10.1279 167.364 10.1279C166.545 10.1279 165.867 9.86102 165.331 9.32728C164.795 8.79354 164.527 8.11852 164.527 7.30222ZM183.147 34.0518C184.314 34.0518 185.37 33.7378 186.316 33.1099C187.262 32.482 188.003 31.6343 188.539 30.5668C189.075 29.468 189.343 28.2749 189.343 26.9877C189.343 25.7318 189.075 24.5701 188.539 23.5027C188.003 22.4038 187.262 21.5404 186.316 20.9125C185.37 20.2846 184.314 19.9706 183.147 19.9706C181.382 19.9706 179.947 20.6142 178.844 21.9015C177.74 23.1887 177.188 24.8841 177.188 26.9877C177.188 29.1226 177.724 30.8337 178.796 32.1209C179.9 33.4082 181.35 34.0518 183.147 34.0518ZM172.175 27.0347C172.175 24.8684 172.632 22.9218 173.547 21.1951C174.461 19.4683 175.722 18.1182 177.33 17.1449C178.97 16.1717 180.814 15.685 182.864 15.685C184.062 15.685 185.244 15.9833 186.411 16.5798C187.609 17.1449 188.586 17.9455 189.343 18.9816V15.685H194.356V36.5007C194.356 38.6357 193.883 40.5979 192.937 42.3875C192.023 44.1771 190.714 45.5899 189.012 46.626C187.309 47.6621 185.339 48.1801 183.1 48.1801C181.114 48.1801 179.269 47.7406 177.567 46.8615C175.896 46.0138 174.524 44.7108 173.452 42.9526L177.425 40.3154C178.276 41.5398 179.127 42.4189 179.979 42.9526C180.862 43.4864 181.902 43.7532 183.1 43.7532C185.023 43.7532 186.537 43.0939 187.64 41.7753C188.775 40.4566 189.343 38.8397 189.343 36.9246V34.9466C188.492 36.0141 187.467 36.8461 186.269 37.4426C185.102 38.0391 183.967 38.3374 182.864 38.3374C180.814 38.3374 178.97 37.8507 177.33 36.8775C175.722 35.9042 174.461 34.5698 173.547 32.8744C172.632 31.1477 172.175 29.2011 172.175 27.0347ZM199.707 30.4726C200.18 31.6029 200.905 32.482 201.883 33.1099C202.86 33.7378 203.79 34.0518 204.673 34.0518C205.871 34.0518 206.817 33.8477 207.511 33.4396C208.204 33 208.551 32.3878 208.551 31.6029C208.551 30.975 208.204 30.4726 207.511 30.0959C206.817 29.7191 205.698 29.2639 204.153 28.7301C202.639 28.1964 201.394 27.6941 200.417 27.2231C199.439 26.7522 198.572 26.0772 197.815 25.1981C197.09 24.2876 196.728 23.173 196.728 21.8544C196.728 19.9078 197.516 18.3694 199.092 17.2391C200.669 16.0775 202.639 15.4966 205.004 15.4966C206.013 15.4966 207.069 15.7007 208.173 16.1089C209.308 16.517 210.317 17.1449 211.2 17.9926C212.114 18.8403 212.745 19.8921 213.091 21.148L208.882 22.655C208.535 21.5561 207.984 20.8026 207.227 20.3944C206.502 19.9863 205.761 19.7822 205.004 19.7822C203.995 19.7822 203.191 19.9706 202.592 20.3474C202.025 20.7241 201.741 21.2264 201.741 21.8544C201.741 22.4823 202.056 22.9689 202.687 23.3143C203.317 23.6597 204.452 24.1149 206.092 24.68C207.605 25.2138 208.851 25.7318 209.828 26.2341C210.837 26.7051 211.704 27.3801 212.429 28.2592C213.186 29.1383 213.564 30.2372 213.564 31.5558C213.564 33.5966 212.745 35.2449 211.105 36.5007C209.466 37.7252 207.322 38.3374 204.673 38.3374C202.907 38.3374 201.189 37.8351 199.518 36.8304C197.847 35.7943 196.602 34.4286 195.782 32.7332L199.707 30.4726Z" fill="#202020"/>
</svg>
