<svg width="865" height="302" viewBox="0 0 865 302" fill="none" xmlns="http://www.w3.org/2000/svg">
<g clip-path="url(#clip0_360_7534)">
<path d="M695.803 20.8209C694.667 23.81 693.428 27.4175 693.015 28.8605C691.57 33.6018 682.278 51.4332 678.148 57.4113C672.469 65.7601 664.003 73.6967 657.911 76.4796C653.988 78.2318 650.89 78.8502 645.005 78.8502C634.784 78.7472 629.311 76.1704 620.122 66.8939L612.998 59.6789L610.417 61.5342C609.075 62.5649 607.629 64.111 607.32 64.9355C606.39 67.2031 621.878 81.6332 629.105 85.1376C634.577 87.8175 636.332 88.1267 645.108 88.1267C654.194 88.1267 655.536 87.8175 661.628 84.8284C669.888 80.6025 679.387 71.8414 686.098 61.9465C691.26 54.6284 691.363 54.4222 691.983 57.3082C694.254 67.8216 702.308 77.3042 711.91 80.7055C726.158 85.8591 753.106 80.9117 782.118 67.9246C786.455 65.9663 787.9 66.5847 784.803 69.1615C783.873 69.883 781.396 73.0782 779.227 76.2735C767.044 94.2079 764.153 108.947 769.935 122.45C773.136 129.974 783.151 139.044 793.785 144.198L802.045 148.114L793.166 151.413C782.738 155.329 772.929 162.441 768.799 168.832C760.126 182.54 763.947 197.486 780.776 215.317C784.596 219.337 787.281 222.635 786.661 222.635C786.042 222.635 782.428 221.811 778.505 220.883C773.858 219.749 766.838 219.131 757.545 219.131C744.536 219.028 743.297 219.234 739.477 221.501C730.907 226.655 727.397 231.602 726.055 240.467L725.332 245.311L718.724 239.333C709.225 230.572 700.656 226.552 690.641 225.933C684.033 225.624 681.865 225.933 677.528 227.892C671.333 230.675 661.628 240.054 658.427 246.342C657.188 248.918 655.949 251.186 655.846 251.289C655.64 251.495 653.162 249.331 650.168 246.548C632.822 229.85 604.842 229.953 573.145 246.754C568.395 249.331 564.472 251.289 564.472 251.186C564.472 251.083 565.608 247.888 566.95 244.177C578.513 212.225 572.009 194.084 546.713 187.488C540.828 185.942 535.562 185.529 520.798 185.529H502.42L509.337 181.922C520.488 176.15 538.66 163.575 544.958 157.391C552.082 150.382 555.179 144.404 555.179 137.601C555.179 129.871 552.082 124.511 544.648 119.564C541.241 117.296 537.834 115.441 537.111 115.441C535.562 115.441 532.465 119.873 532.465 122.14C532.465 122.965 534.014 124.305 535.872 125.129C542.996 128.325 547.333 133.994 546.3 138.838C545.371 143.476 538.97 151.207 531.432 156.875C527.716 159.658 524.308 162.235 523.689 162.647C518.01 166.977 491.682 181.303 466.696 193.878C454.616 199.856 451.519 202.845 458.539 201.712C513.158 192.744 539.176 192.023 551.876 199.135C560.548 203.876 562.82 207.896 562.82 218.512C562.82 230.056 559.309 240.673 546.61 267.265C543.203 274.48 540.725 280.665 541.035 280.974C541.344 281.386 545.061 278.706 549.191 274.996C559.929 265.513 563.852 262.73 574.177 256.855C599.989 242.013 624.252 239.23 639.223 249.228C644.902 253.041 650.89 261.184 652.955 267.987C655.846 277.366 657.705 278.397 658.84 271.182C660.596 260.256 670.198 243.043 677.115 238.405C685.065 233.149 696.319 234.282 706.438 241.188C715.007 247.063 729.255 263.452 734.211 273.037C735.14 274.789 736.379 276.232 736.896 276.232C738.341 276.232 738.135 273.14 736.379 262.318C731.217 230.675 739.58 223.666 774.788 229.85C781.396 231.087 787.177 232.221 787.59 232.53C788.003 232.736 790.378 233.355 792.856 233.87C798.535 235.107 810.924 238.405 819.391 241.188C823.004 242.322 826.928 243.25 828.064 243.25C830.129 243.25 830.129 243.146 827.754 240.673C826.412 239.23 824.966 238.096 824.553 238.096C824.14 238.096 820.63 235.931 816.706 233.355C797.812 220.574 782.221 205.628 777.162 195.63C773.652 188.518 773.032 180.273 775.51 175.428C781.602 163.781 807.207 153.577 837.356 150.794C842.518 150.279 845.306 149.145 844.067 147.908C843.964 147.702 839.834 146.981 834.981 146.362C813.712 143.476 793.992 136.055 785.216 127.603C778.195 120.8 776.749 117.399 776.749 108.226C776.749 96.1663 782.634 84.8284 797.502 68.44C805.865 59.0605 821.043 45.6611 833.123 36.797C837.459 33.6018 841.383 30.5096 841.692 29.8912C842.931 27.9328 839.834 28.8605 833.536 32.3649C793.785 54.4222 758.578 68.9554 735.45 72.8721C725.332 74.5212 724.403 74.5212 718.311 72.8721C709.948 70.5014 705.715 67.1001 702.721 60.5035C700.449 55.556 700.243 53.7007 700.036 35.5601C699.933 24.2223 699.417 15.8734 698.797 15.6673C698.281 15.4612 696.939 17.8318 695.803 20.8209Z" fill="#222222"/>
<path d="M482.906 23.6046C480.428 28.3459 481.357 29.2736 493.541 34.0149C506.756 39.0654 523.276 47.4142 532.775 53.7015C538.97 57.9275 552.702 68.75 556.418 72.3575C558.69 74.6251 560.755 74.8312 559.619 72.7698C558.587 70.9145 550.43 62.3596 545.268 57.7213C536.905 50.1971 528.645 44.322 512.332 34.221C505.827 30.2012 487.655 21.6463 485.59 21.6463C484.661 21.6463 483.525 22.5739 482.906 23.6046Z" fill="#222222"/>
<path d="M58.9703 23.5983C58.3508 24.3198 58.1443 26.3812 58.4541 28.5457L59.0736 32.3594L74.5607 32.1532C83.1303 32.0502 121.229 31.5348 159.224 30.9164C197.322 30.401 245.642 29.6795 266.808 29.4734C289.11 29.2672 305.939 28.6488 306.972 28.0304C309.656 26.5874 289.42 25.9689 186.068 24.7321C136.096 24.1136 87.3635 23.3921 77.6582 23.0829C65.1652 22.6706 59.7963 22.7737 58.9703 23.5983Z" fill="#222222"/>
<path d="M404.954 32.055C386.369 34.5287 363.965 42.9806 348.168 53.597L340.94 58.4414L335.778 54.5246C327.415 48.1342 318.123 45.1451 304.907 44.5267C293.137 44.0113 286.942 44.939 276.101 48.6496C269.596 50.8141 255.245 58.4414 250.082 62.4612L246.778 64.9349L244.3 62.1519C240.067 57.6168 229.846 51.5356 222.205 49.1649C216.32 47.3096 212.603 46.8973 201.556 47.0004C187.72 47.0004 182.042 48.0311 170.788 52.7724C166.245 54.7308 165.729 54.7308 164.077 53.2878C163.044 52.3601 159.947 50.6079 157.159 49.268C152.719 47.2066 150.345 47.0004 139.607 47.0004C128.869 47.1035 126.288 47.4127 120.093 49.7834C109.459 53.8031 96.6558 62.3581 86.5375 72.1499C61.4483 96.4748 40.7987 132.756 26.1375 178.314C19.3232 199.237 19.0134 200.783 21.5946 202.123C22.6271 202.742 24.7953 203.051 26.2408 202.845C28.7187 202.536 29.1317 201.711 31.7129 192.228C39.1468 164.502 54.1177 130.385 67.8497 109.771C93.7649 70.913 121.848 52.2571 147.351 56.7922C154.371 58.0291 158.811 60.6059 155.817 61.6366C151.79 62.9765 137.439 76.582 127.217 88.6414C121.022 95.9595 110.904 111.317 104.916 122.552L100.063 131.313L89.4285 131.416H78.6907V135.539V139.662L87.2603 139.25C92.4227 139.043 95.7266 139.353 95.7266 139.971C95.7266 140.486 93.8681 145.331 91.6999 150.587C87.6733 160.276 83.8531 170.996 82.3044 176.768C81.8914 178.417 80.5492 183.364 79.4134 187.59C73.3218 210.06 72.2893 235.725 77.0387 245.826C80.6524 253.35 84.4726 256.133 91.5967 256.133C106.155 256.133 126.701 237.58 143.427 209.235C148.383 200.989 160.773 176.046 160.773 174.397C160.773 173.985 162.218 170.274 163.87 166.048C168.31 155.123 175.021 130.179 176.879 117.501C179.874 97.5055 178.944 80.6018 174.505 68.2332C173.472 65.5533 173.163 63.4919 173.782 62.8734C176.053 60.6059 187.72 57.6168 196.393 56.9984C212.603 55.9677 227.161 59.9874 235.937 68.027L239.241 71.1192L232.117 78.6434C201.039 110.699 176.26 172.232 176.26 216.863C176.26 238.92 181.835 251.598 192.676 254.587C198.665 256.133 203.827 255.102 211.054 250.876C228.813 240.157 243.784 217.79 254.728 185.632C260.923 167.285 264.95 142.548 265.053 123.067V110.596L268.977 109.874C271.041 109.565 275.584 109.256 278.992 109.256C282.399 109.153 287.045 108.843 289.316 108.431C296.647 107.091 291.278 105.648 277.443 105.236C263.917 104.927 263.091 104.617 262.988 99.9792C262.988 96.3717 259.374 85.3431 256.277 79.1588C254.832 76.3758 253.696 73.696 253.696 73.1806C253.696 72.0468 265.363 64.7287 272.487 61.5335C288.181 54.3185 305.939 52.6694 318.226 57.1014C321.943 58.4414 326.899 60.812 329.273 62.3581L333.506 65.141L329.273 68.9547C320.807 76.4789 307.901 93.898 299.951 108.328C288.8 128.427 277.443 164.09 273.829 190.064C271.971 203.257 271.764 222.738 273.416 231.499C274.965 239.847 278.888 247.784 283.431 251.495C286.735 254.174 287.974 254.587 293.653 254.587C299.125 254.587 300.983 254.071 306.559 250.773C319.258 243.455 334.745 223.562 342.489 205.009L344.864 199.237L355.292 198.516C360.97 198.207 374.289 197.691 384.821 197.382C424.158 196.145 421.783 194.29 379.039 192.641C362.106 192.022 348.064 191.404 347.961 191.301C347.755 191.198 348.271 190.27 348.994 189.239C350.129 187.693 354.466 187.384 392.564 186.559C464.425 184.91 466.386 183.261 398.759 181.509C373.257 180.787 352.194 180.169 352.091 179.963C351.988 179.86 352.504 177.283 353.433 174.191C360.557 148.011 362.829 120.387 359.628 99.4639C357.976 88.4352 353.743 75.2421 350.129 69.7793C348.684 67.6147 347.858 65.4502 348.168 64.9349C349.097 63.3888 359.009 57.2045 366.339 53.597C369.746 51.8448 377.593 48.7526 383.582 46.6912C419.615 34.7349 460.811 37.0025 509.234 53.8031C517.184 56.5861 541.138 68.027 546.197 71.5315C552.082 75.5513 554.354 74.8298 549.604 70.3977C540.931 62.1519 507.789 46.1758 485.487 39.5793C465.973 33.7042 453.584 31.8489 432.315 31.4366C421.267 31.2305 408.981 31.4366 404.954 32.055ZM166.245 72.9745C166.555 74.5206 167.381 78.3342 168.103 81.4263C169.549 88.3322 168.723 109.565 166.555 120.594C157.779 165.017 136.613 209.751 113.175 233.045C103.986 242.218 96.5526 246.753 91.8032 246.135C81.7881 245.001 80.8589 221.088 89.5317 187.796C92.8357 174.809 101.302 151.721 106.155 142.136L108.013 138.425L123.294 137.703C140.639 136.879 143.943 136.364 142.291 134.714C141.672 134.096 134.754 133.374 126.185 133.168C117.925 132.859 111.214 132.241 111.214 131.828C111.214 130.076 123.81 109.977 130.831 100.495C139.194 89.1567 146.628 81.2202 156.023 73.799C163.664 67.7178 165.212 67.6147 166.245 72.9745ZM341.353 75.3451C346.722 84.0031 350.749 103.587 350.749 120.903C350.749 136.26 346.722 162.544 342.283 175.737L340.94 179.86H320.291H299.641L299.331 182.746C298.712 188.312 299.538 188.621 319.878 187.899C331.235 187.487 338.359 187.693 338.359 188.312C338.359 190.992 335.675 191.61 326.899 190.992C316.161 190.27 314.819 190.888 315.438 196.454L315.954 200.268L324.524 199.546C330.203 199.134 333.197 199.237 333.197 199.959C333.197 201.814 325.969 215.626 321.22 222.841C313.476 234.488 299.951 245.31 293.033 245.31C289.626 245.31 286.219 240.878 284.051 233.663C281.573 225.211 281.573 203.875 284.051 188.106C289.316 154.71 303.668 117.192 319.568 94.9287C326.589 85.24 337.12 73.1806 338.772 73.1806C339.392 73.1806 340.527 74.2113 341.353 75.3451ZM247.191 83.1786C250.702 91.6304 251.631 94.4134 252.25 99.1547C252.87 103.896 252.767 104.308 251.011 103.793C247.501 102.659 233.976 102.762 232.943 103.793C232.324 104.411 232.014 106.473 232.22 108.328L232.53 111.832L240.274 111.42C244.507 111.214 249.463 111.008 251.115 110.905L254.212 110.802L254.522 120.594C255.141 138.013 250.495 167.491 244.507 183.467C233.046 214.286 222.308 230.983 207.957 240.466C200.11 245.723 196.806 246.135 192.883 242.527C188.133 238.301 186.172 228.097 186.998 211.812C187.514 200.783 190.818 180.891 193.709 171.717C203.621 140.589 216.63 113.585 229.949 96.784C234.285 91.3212 244.507 80.3956 245.333 80.3956C245.643 80.3956 246.468 81.6325 247.191 83.1786Z" fill="#222222"/>
<path d="M808.653 63.6966C795.644 75.9622 788.313 86.7847 784.39 99.0502C782.015 106.678 781.912 109.048 783.564 114.511C785.525 121.108 786.971 119.355 786.971 110.491C786.971 103.895 787.487 101.627 789.759 97.0919C794.715 87.5062 805.452 75.756 815.571 68.7471C818.255 66.9949 820.526 64.8304 820.526 64.1089C820.526 62.1506 817.429 57.7185 815.984 57.7185C815.364 57.7185 812.06 60.3983 808.653 63.6966Z" fill="#222222"/>
<path d="M395.971 81.5295C395.455 81.8387 395.145 84.0032 395.352 86.1677L395.662 90.1875L400.308 90.0844C428.494 89.7752 528.025 87.4046 535.356 86.9923C542.17 86.4769 544.648 85.9616 543.925 85.2401C543.203 84.5186 526.477 83.7971 496.122 83.2817C470.413 82.7663 437.58 82.0448 423.229 81.6326C408.774 81.2203 396.591 81.2203 395.971 81.5295Z" fill="#222222"/>
<path d="M546.713 86.2664C547.436 86.5756 548.365 86.4726 548.675 86.1634C549.088 85.8541 548.468 85.5449 547.333 85.648C546.197 85.648 545.887 85.9572 546.713 86.2664Z" fill="#222222"/>
<path d="M453.377 94.2053C453.068 95.0299 452.964 96.9883 453.171 98.6374L453.481 101.523L474.646 101.214C532.259 100.493 601.332 98.6374 602.674 97.9159C605.874 96.0606 604.326 96.0606 504.588 93.7931C450.28 92.5562 453.997 92.5562 453.377 94.2053Z" fill="#222222"/>
<path d="M646.554 110.593C637.571 114.097 629.415 121.724 623.013 132.856C617.128 142.751 614.547 150.172 612.482 162.541L611.759 166.973H606.7H601.641V170.993C601.641 175.425 602.674 176.249 608.455 176.249C610.417 176.249 612.172 176.868 612.379 177.486C615.476 188.103 616.612 190.885 619.296 194.081C628.073 204.697 640.462 203.976 653.368 192.019C656.775 188.824 659.666 186.453 659.873 186.66C659.976 186.866 661.215 188.927 662.454 191.195C666.687 198.925 675.567 203.048 683.413 200.986C691.467 198.822 697.765 194.184 705.199 185.01L709.329 179.857H721.822H734.315L734.624 176.765C734.728 175.012 734.521 173.157 734.108 172.539C733.592 171.817 729.565 171.199 724.506 170.993C719.653 170.786 715.42 170.477 715.007 170.374C714.594 170.168 715.007 168.004 715.833 165.633C722.751 146.152 721.512 124.817 712.839 115.643C704.063 106.161 690.125 107.81 678.148 119.663L673.089 124.817L671.333 121.209C666.584 111.314 656.156 106.882 646.554 110.593ZM657.705 119.457C660.905 120.694 664.209 126.053 665.139 131.619C665.655 135.124 665.242 137.597 662.661 144.194C660.905 148.626 658.944 155.944 658.118 160.376L656.775 168.519L651.716 168.107C648.825 168.004 646.347 167.591 646.141 167.488C645.934 167.282 646.76 165.839 647.896 164.19C652.129 158.109 653.781 147.698 651.407 141.926C650.477 139.659 649.548 139.143 646.76 139.143C639.43 139.143 631.067 152.234 631.789 162.85C631.893 166.045 631.583 167.488 630.757 167.385C630.034 167.282 627.66 167.179 625.388 167.076L621.258 166.973L621.878 162.541C623.839 149.244 630.447 135.227 638.914 126.672C646.141 119.354 651.716 117.189 657.705 119.457ZM704.992 120.797C712.116 128.321 713.252 143.472 707.883 160.17L704.682 170.065H697.455H690.228L692.809 166.973C696.01 163.262 699.727 153.677 699.727 149.348C699.727 147.698 699.004 144.709 698.281 142.751C693.738 132.032 678.767 146.255 678.767 161.304C678.767 164.087 678.974 167.179 679.18 168.004C679.387 168.828 678.974 169.55 678.354 169.447C677.632 169.343 674.741 169.24 671.85 169.137C665.861 169.034 665.758 168.828 668.236 157.181C670.507 146.152 677.115 133.887 684.756 126.26C688.369 122.652 692.396 119.56 693.635 119.251C699.623 118.117 702.824 118.529 704.992 120.797ZM654.194 177.898C654.917 178.62 645.934 187.484 642.114 189.752C638.294 192.225 630.344 192.638 627.866 190.576C625.491 188.618 622.291 181.918 622.291 178.929V176.352L638.088 176.971C646.657 177.28 653.988 177.692 654.194 177.898ZM697.662 179.651C697.662 181.918 690.228 188.412 684.962 190.679C681.555 192.225 678.974 192.638 676.909 192.225C673.605 191.504 669.888 187.072 668.029 181.609L666.894 178.311H682.278C694.151 178.311 697.662 178.62 697.662 179.651Z" fill="#222222"/>
<path d="M68.6756 122.238C67.1269 124.402 65.1652 127.907 64.2359 129.865C63.3067 131.823 61.4482 135.534 60.106 138.111C58.7638 140.687 56.1826 146.253 54.4274 150.479C52.6722 154.705 50.6072 159.55 49.7812 161.302C46.7871 168.105 37.9077 196.037 34.9135 208.096C30.8869 223.969 27.2732 243.965 28.0992 245.305C28.4089 245.924 30.4739 246.336 32.6421 246.336H36.5655L38.3207 232.627C39.8694 220.98 41.3149 213.662 46.1676 191.708C49.5747 175.938 59.4865 147.593 66.9204 132.133C72.4958 120.589 73.425 115.332 68.6756 122.238Z" fill="#222222"/>
<path d="M443.259 239.74C442.226 242.316 442.536 244.996 443.982 246.13C444.808 246.851 451.725 246.955 465.87 246.336C477.227 245.821 496.535 245.202 508.718 244.79C553.011 243.656 548.365 241.698 496.225 239.636C445.427 237.678 444.085 237.678 443.259 239.74Z" fill="#222222"/>
<path d="M695.597 244.072C695.597 244.587 697.249 246.237 699.314 247.886C706.541 253.658 723.783 277.261 726.055 284.579C727.191 287.877 734.831 286.125 734.831 282.518C734.831 280.559 723.37 265.82 716.246 258.605C705.095 247.473 695.597 240.774 695.597 244.072Z" fill="#222222"/>
<path d="M141.052 271.796C140.949 272.209 140.846 274.27 140.846 276.228L140.639 279.836H169.549C255.864 279.836 426.946 277.362 427.668 276.125C428.701 274.682 409.6 274.167 301.706 273.136C241.513 272.621 180.803 271.899 166.761 271.59C152.616 271.281 141.156 271.384 141.052 271.796Z" fill="#222222"/>
<path d="M216.836 301.689C335.984 301.895 530.71 301.895 649.445 301.689C768.283 301.586 670.817 301.483 432.831 301.483C194.844 301.483 97.6881 301.586 216.836 301.689Z" fill="#222222"/>
</g>
<defs>
<clipPath id="clip0_360_7534">
<rect width="864.185" height="302" fill="white" transform="translate(0.738525)"/>
</clipPath>
</defs>
</svg>
