<svg width="28" height="28" viewBox="0 0 28 28" fill="none" xmlns="http://www.w3.org/2000/svg">
<rect width="28" height="28" rx="3" fill="#FF491A"/>
<path d="M6.08333 21.9163V20.6663H8.71792C8.32903 20.3105 7.91 19.8968 7.46083 19.4251C7.01153 18.9534 6.59563 18.443 6.21312 17.8938C5.85201 17.3822 5.54917 16.8472 5.30458 16.2888C5.05986 15.7306 4.9375 15.1719 4.9375 14.6126C4.9375 13.3076 5.36215 12.2235 6.21146 11.3603C7.0609 10.497 8.12264 10.0653 9.39667 10.0653C10.6707 10.0653 11.7321 10.497 12.5808 11.3603C13.4297 12.2235 13.8542 13.3076 13.8542 14.6126C13.8542 15.1719 13.7318 15.7306 13.4871 16.2888C13.2425 16.8472 12.9397 17.3822 12.5785 17.8938C12.196 18.443 11.7788 18.9534 11.3269 19.4251C10.8749 19.8968 10.4572 20.3105 10.0738 20.6663H21.9167V21.9163H6.08333ZM9.39771 15.4901C9.7009 15.4901 9.95799 15.384 10.169 15.1718C10.3801 14.9594 10.4856 14.7016 10.4856 14.3984C10.4856 14.0952 10.3794 13.8368 10.1671 13.623C9.95486 13.4094 9.69715 13.3026 9.39396 13.3026C9.09076 13.3026 8.83361 13.4093 8.6225 13.6226C8.41153 13.8359 8.30604 14.095 8.30604 14.3999C8.30604 14.7046 8.41222 14.9625 8.62458 15.1736C8.83681 15.3846 9.09451 15.4901 9.39771 15.4901ZM16.4279 18.5109L15.2596 16.7015C15.3889 16.3522 15.4915 16.0022 15.5673 15.6515C15.6431 15.301 15.681 14.9534 15.681 14.6086C15.681 14.3106 15.6629 14.0147 15.6267 13.7209C15.5903 13.4272 15.5358 13.1461 15.4631 12.8778L16.4792 12.2657L18.0385 13.2063L17.6329 11.434L19.0208 10.2257L17.1917 10.0718L16.4792 8.39884L15.7725 10.0751L14.0129 10.2257C13.6004 9.78447 13.1381 9.4121 12.6258 9.10863C12.1135 8.8053 11.5539 8.58204 10.9471 8.43884V6.08301H21.9167V16.2432H17.846L16.4279 18.5109Z" fill="white"/>
</svg>
