<svg width="28" height="28" viewBox="0 0 28 28" fill="none" xmlns="http://www.w3.org/2000/svg">
<rect width="28" height="28" rx="3" fill="white"/>
<rect x="0.5" y="0.5" width="27" height="27" rx="2.5" stroke="#202020" stroke-opacity="0.1"/>
<path d="M13.3747 17.958H14.6247V13.1663H13.3747V17.958ZM13.9997 11.7401C14.1904 11.7401 14.3502 11.6756 14.4793 11.5465C14.6083 11.4175 14.6728 11.2577 14.6728 11.067C14.6728 10.8763 14.6083 10.7164 14.4793 10.5874C14.3502 10.4585 14.1904 10.394 13.9997 10.394C13.809 10.394 13.6491 10.4585 13.5201 10.5874C13.3911 10.7164 13.3265 10.8763 13.3265 11.067C13.3265 11.2577 13.3911 11.4175 13.5201 11.5465C13.6491 11.6756 13.809 11.7401 13.9997 11.7401ZM14.0011 21.9163C12.9061 21.9163 11.8769 21.7086 10.9134 21.293C9.94995 20.8775 9.1119 20.3135 8.39926 19.6011C7.68662 18.8888 7.12238 18.0511 6.70655 17.088C6.29085 16.125 6.08301 15.096 6.08301 14.0011C6.08301 12.9061 6.29079 11.8769 6.70634 10.9134C7.1219 9.94995 7.68586 9.1119 8.39822 8.39926C9.11058 7.68662 9.94829 7.12238 10.9113 6.70655C11.8744 6.29085 12.9034 6.08301 13.9982 6.08301C15.0932 6.08301 16.1225 6.29079 17.0859 6.70634C18.0494 7.1219 18.8875 7.68586 19.6001 8.39822C20.3127 9.11058 20.877 9.94829 21.2928 10.9113C21.7085 11.8744 21.9163 12.9034 21.9163 13.9982C21.9163 15.0932 21.7086 16.1225 21.293 17.0859C20.8775 18.0494 20.3135 18.8875 19.6011 19.6001C18.8888 20.3127 18.0511 20.877 17.088 21.2928C16.125 21.7085 15.096 21.9163 14.0011 21.9163ZM13.9997 20.6663C15.8608 20.6663 17.4372 20.0205 18.7288 18.7288C20.0205 17.4372 20.6663 15.8608 20.6663 13.9997C20.6663 12.1386 20.0205 10.5622 18.7288 9.27051C17.4372 7.97884 15.8608 7.33301 13.9997 7.33301C12.1386 7.33301 10.5622 7.97884 9.27051 9.27051C7.97884 10.5622 7.33301 12.1386 7.33301 13.9997C7.33301 15.8608 7.97884 17.4372 9.27051 18.7288C10.5622 20.0205 12.1386 20.6663 13.9997 20.6663Z" fill="#FF491A"/>
</svg>
