<svg width="28" height="28" viewBox="0 0 28 28" fill="none" xmlns="http://www.w3.org/2000/svg">
<rect width="28" height="28" rx="3" fill="#FF491A"/>
<path d="M13.3466 18.1689H14.7354V13.1689H13.3466V18.1689ZM13.9991 11.5856C14.2076 11.5856 14.3825 11.5164 14.5237 11.3779C14.6648 11.2396 14.7354 11.068 14.7354 10.8633C14.7354 10.6508 14.6649 10.4727 14.5239 10.3289C14.3828 10.1852 14.208 10.1133 13.9996 10.1133C13.7911 10.1133 13.6162 10.1852 13.475 10.3289C13.3339 10.4727 13.2633 10.6508 13.2633 10.8633C13.2633 11.068 13.3338 11.2396 13.4748 11.3779C13.6159 11.5164 13.7907 11.5856 13.9991 11.5856ZM14.0031 22.3356C12.8527 22.3356 11.7716 22.1169 10.76 21.6794C9.74831 21.2419 8.86511 20.6458 8.11039 19.8912C7.35581 19.1365 6.75977 18.253 6.32227 17.2406C5.88477 16.2283 5.66602 15.1465 5.66602 13.9954C5.66602 12.8443 5.88477 11.7625 6.32227 10.75C6.75977 9.73763 7.35581 8.85645 8.11039 8.10645C8.86511 7.35645 9.74865 6.7627 10.761 6.3252C11.7734 5.8877 12.8551 5.66895 14.0062 5.66895C15.1573 5.66895 16.2391 5.8877 17.2516 6.3252C18.264 6.7627 19.1452 7.35645 19.8952 8.10645C20.6452 8.85645 21.2389 9.73839 21.6764 10.7523C22.1139 11.7662 22.3327 12.8483 22.3327 13.9985C22.3327 15.1489 22.1139 16.23 21.6764 17.2417C21.2389 18.2533 20.6452 19.1356 19.8952 19.8885C19.1452 20.6414 18.2632 21.2376 17.2494 21.6769C16.2355 22.116 15.1534 22.3356 14.0031 22.3356Z" fill="white"/>
</svg>
