<svg width="28" height="28" viewBox="0 0 28 28" fill="none" xmlns="http://www.w3.org/2000/svg">
<rect width="28" height="28" rx="3" fill="white"/>
<rect x="0.5" y="0.5" width="27" height="27" rx="2.5" stroke="#202020" stroke-opacity="0.1"/>
<path d="M9.39583 19.583C9.68639 19.3063 10.0152 18.9746 10.3823 18.5878C10.7492 18.2011 11.1004 17.7861 11.4358 17.3426C11.7714 16.8993 12.05 16.4415 12.2717 15.9693C12.4933 15.4969 12.6042 15.0434 12.6042 14.6086C12.6042 13.6471 12.3034 12.8579 11.7019 12.2409C11.1002 11.6238 10.3315 11.3153 9.39583 11.3153C8.46 11.3153 7.69132 11.6238 7.08979 12.2409C6.48826 12.8579 6.1875 13.6471 6.1875 14.6086C6.1875 15.0434 6.29833 15.4969 6.52 15.9693C6.74167 16.4415 7.02028 16.8993 7.35583 17.3426C7.69125 17.7861 8.04243 18.2011 8.40937 18.5878C8.77646 18.9746 9.10528 19.3063 9.39583 19.583ZM6.08333 21.9163V20.6663H8.71792C8.32903 20.3105 7.91 19.8968 7.46083 19.4251C7.01153 18.9534 6.59563 18.443 6.21312 17.8938C5.85201 17.3822 5.54917 16.8472 5.30458 16.2888C5.05986 15.7306 4.9375 15.1719 4.9375 14.6126C4.9375 13.3076 5.36215 12.2235 6.21146 11.3603C7.0609 10.497 8.12264 10.0653 9.39667 10.0653C10.6707 10.0653 11.7321 10.497 12.5808 11.3603C13.4297 12.2235 13.8542 13.3076 13.8542 14.6126C13.8542 15.1719 13.7318 15.7306 13.4871 16.2888C13.2425 16.8472 12.9397 17.3822 12.5785 17.8938C12.196 18.443 11.7788 18.9534 11.3269 19.4251C10.8749 19.8968 10.4572 20.3105 10.0738 20.6663H21.9167V21.9163H6.08333ZM16.4279 18.5109L15.0577 16.3026L15.7148 14.9932L16.4279 16.1503L17.141 14.9932H20.6667V7.33301H12.1971V8.67926H10.9471V6.08301H21.9167V16.2432H17.846L16.4279 18.5109ZM14.9279 13.2063L16.4871 12.2657L18.0385 13.2063L17.6329 11.434L19.0208 10.2257L17.194 10.0751L16.4871 8.39884L15.7748 10.0718L13.9456 10.2257L15.3333 11.434L14.9279 13.2063ZM9.39771 15.4901C9.7009 15.4901 9.95799 15.384 10.169 15.1718C10.3801 14.9594 10.4856 14.7016 10.4856 14.3984C10.4856 14.0952 10.3794 13.8368 10.1671 13.623C9.95486 13.4094 9.69715 13.3026 9.39396 13.3026C9.09076 13.3026 8.83361 13.4093 8.6225 13.6226C8.41153 13.8359 8.30604 14.095 8.30604 14.3999C8.30604 14.7046 8.41222 14.9625 8.62458 15.1736C8.83681 15.3846 9.09451 15.4901 9.39771 15.4901Z" fill="#FF491A"/>
</svg>
