<svg width="40" height="40" viewBox="0 0 40 40" fill="none" xmlns="http://www.w3.org/2000/svg">
<rect width="40" height="40" rx="3" fill="black" fill-opacity="0.04"/>
<path d="M20.0013 13.7248L21.4773 17.5168C21.7293 18.1768 22.3533 18.6208 23.0613 18.6688L27.1293 18.8968L23.9733 21.4648C23.4333 21.9088 23.1933 22.6408 23.3733 23.3248L24.4173 27.2608L20.9973 25.0528C20.7093 24.8608 20.3613 24.7648 20.0133 24.7648C19.6653 24.7648 19.3293 24.8608 19.0413 25.0528L15.6213 27.2608L16.6653 23.3248C16.8453 22.6408 16.6053 21.9207 16.0653 21.4767L12.9093 18.9088L16.9773 18.6808C17.6853 18.6448 18.2973 18.1888 18.5613 17.5288L20.0013 13.7248ZM20.0013 11.4688C19.7733 11.4688 19.5453 11.6008 19.4373 11.8528L17.4093 17.0847C17.3253 17.3007 17.1213 17.4568 16.8813 17.4688L11.2773 17.7808C10.7253 17.8168 10.5093 18.5007 10.9293 18.8487L15.2853 22.4008C15.4653 22.5448 15.5493 22.7968 15.4893 23.0248L14.0493 28.4608C13.9413 28.8688 14.2653 29.2168 14.6253 29.2168C14.7333 29.2168 14.8413 29.1807 14.9493 29.1207L19.6773 26.0728C19.7733 26.0128 19.8933 25.9767 20.0013 25.9767C20.1093 25.9767 20.2293 26.0128 20.3253 26.0728L25.0533 29.1207C25.1613 29.1927 25.2693 29.2168 25.3773 29.2168C25.7373 29.2168 26.0613 28.8688 25.9533 28.4608L24.5133 23.0248C24.4533 22.7968 24.5373 22.5568 24.7173 22.4008L29.0733 18.8487C29.4933 18.5007 29.2773 17.8168 28.7253 17.7808L23.1213 17.4688C22.8813 17.4568 22.6773 17.3007 22.5933 17.0847L20.5653 11.8528C20.4573 11.5888 20.2293 11.4688 20.0013 11.4688Z" fill="#202020" fill-opacity="0.3"/>
</svg>
