<svg width="40" height="40" viewBox="0 0 40 40" fill="none" xmlns="http://www.w3.org/2000/svg">
<rect width="40" height="40" rx="3" fill="black" fill-opacity="0.04"/>
<path d="M19.4351 11.8518C19.6391 11.3358 20.3591 11.3358 20.5511 11.8518L22.5791 17.0839C22.6631 17.2999 22.8671 17.4559 23.1071 17.4679L28.7111 17.7798C29.2631 17.8158 29.4791 18.4999 29.0591 18.8479L24.7031 22.3999C24.5231 22.5439 24.4391 22.7958 24.4991 23.0238L25.9391 28.4598C26.0831 28.9878 25.4951 29.4199 25.0391 29.1199L20.3231 26.0718C20.1311 25.9398 19.8671 25.9398 19.6751 26.0718L14.9591 29.1199C14.5031 29.4199 13.9151 28.9878 14.0591 28.4598L15.4991 23.0238C15.5591 22.7958 15.4871 22.5559 15.2951 22.3999L10.9391 18.8479C10.5191 18.4999 10.7351 17.8158 11.2871 17.7798L16.8911 17.4679C17.1311 17.4559 17.3351 17.3119 17.4191 17.0839L19.4351 11.8518Z" fill="#FF491A"/>
</svg>
