<svg width="20" height="20" viewBox="0 0 20 20" fill="none" xmlns="http://www.w3.org/2000/svg">
<path d="M9.99996 18.3327C8.52774 18.3327 7.32635 18.1116 6.39579 17.6696C5.46524 17.2273 4.99996 16.6614 4.99996 15.9716C4.99996 15.6197 5.14003 15.2875 5.42017 14.975C5.70017 14.6625 6.08558 14.4021 6.57642 14.1937L7.63892 15.1869C7.41197 15.2517 7.18628 15.3582 6.96183 15.5062C6.73725 15.6544 6.54628 15.8096 6.38892 15.9716C6.60642 16.2308 7.0717 16.4576 7.78475 16.6521C8.49767 16.8465 9.23607 16.9437 9.99996 16.9437C10.7638 16.9437 11.5057 16.8465 12.2256 16.6521C12.9456 16.4576 13.4143 16.2308 13.6318 15.9716C13.4699 15.7957 13.2662 15.6359 13.0208 15.4925C12.7754 15.3489 12.537 15.2447 12.3056 15.18L13.375 14.18C13.8934 14.3929 14.2939 14.6556 14.5764 14.9681C14.8588 15.2806 15 15.6151 15 15.9716C15 16.6614 14.5347 17.2273 13.6041 17.6696C12.6736 18.1116 11.4722 18.3327 9.99996 18.3327ZM9.99996 15.8327C8.05093 14.3882 6.59142 12.9855 5.62142 11.6244C4.65156 10.2632 4.16663 8.92991 4.16663 7.62435C4.16663 6.63824 4.34371 5.77365 4.69788 5.0306C5.05204 4.28754 5.5092 3.66602 6.06933 3.16602C6.62961 2.66602 7.25461 2.29102 7.94433 2.04102C8.6342 1.79102 9.3194 1.66602 9.99996 1.66602C10.6805 1.66602 11.368 1.79102 12.0625 2.04102C12.7569 2.29102 13.3819 2.66602 13.9375 3.16602C14.493 3.66602 14.9479 4.28754 15.302 5.0306C15.6562 5.77365 15.8333 6.63824 15.8333 7.62435C15.8333 8.92991 15.3507 10.2632 14.3854 11.6244C13.4201 12.9855 11.9583 14.3882 9.99996 15.8327ZM9.99996 9.16602C10.4583 9.16602 10.8507 9.00282 11.177 8.67643C11.5034 8.35004 11.6666 7.95768 11.6666 7.49935C11.6666 7.04102 11.5034 6.64865 11.177 6.32227C10.8507 5.99588 10.4583 5.83268 9.99996 5.83268C9.54163 5.83268 9.14926 5.99588 8.82288 6.32227C8.49649 6.64865 8.33329 7.04102 8.33329 7.49935C8.33329 7.95768 8.49649 8.35004 8.82288 8.67643C9.14926 9.00282 9.54163 9.16602 9.99996 9.16602Z" fill="#202020" fill-opacity="0.6"/>
</svg>
