<svg width="1031" height="320" viewBox="0 0 1031 320" fill="none" xmlns="http://www.w3.org/2000/svg">
<path d="M110.867 1.85448C112.781 1.38423 115.535 0.788153 116.992 0.52985C118.449 0.271548 120.124 0.0463619 121.793 0L122.435 2.89762C122.789 4.49048 123.382 7.43446 123.756 9.43796C124.127 11.4415 125.319 18.5216 126.405 25.1679C127.491 31.8175 129.517 44.4081 130.904 53.1506C132.295 61.8932 133.947 71.5795 134.582 74.6758C135.215 77.7721 136.559 83.5839 137.565 87.5909C138.575 91.5979 139.684 95.5089 140.032 96.2838C140.419 97.1481 140.952 97.7707 141.409 97.8965C141.856 98.0223 142.747 97.827 143.644 97.413C144.462 97.0355 145.952 96.1149 146.955 95.3698C148.004 94.5849 149.733 92.7238 151.037 90.9687C152.282 89.2931 155.848 83.9747 158.96 79.1464C162.075 74.3215 166.952 66.8704 169.796 62.5886C172.644 58.31 177.56 51.0809 180.719 46.5275C183.88 41.9741 187.966 36.1789 189.804 33.6488C191.638 31.1221 194.045 28.0655 195.154 26.8601C196.26 25.658 197.637 24.4857 198.216 24.2572C199.18 23.8764 199.415 23.9294 201.103 24.9195C202.117 25.5123 204.312 27.0191 205.987 28.2708C207.662 29.5193 209.745 31.2347 210.612 32.0791C211.479 32.9236 212.503 34.2846 212.88 35.1026C213.277 35.957 213.781 38.2122 214.069 40.4011C214.35 42.5801 214.499 45.4843 214.41 47.1898C214.304 49.2628 214.045 50.6239 213.562 51.6604C213.178 52.4784 211.89 54.2699 210.698 55.6343C209.506 57.002 207.391 59.4592 205.993 61.0984C204.596 62.7376 202.464 65.42 201.256 67.0592C200.047 68.6984 198.256 71.2318 197.279 72.6889C196.299 74.146 194.793 76.8283 193.935 78.6497C193.078 80.471 191.164 85.3887 189.684 89.5778C188.204 93.767 186.191 99.3569 185.215 101.996C184.238 104.639 183.04 108.288 182.55 110.11C182.056 111.957 181.712 114.007 181.775 114.746C181.881 116.031 181.924 116.074 183.208 116.173C183.937 116.229 185.648 116.024 187.016 115.716C188.38 115.408 191.138 114.636 193.141 114.001C195.144 113.362 200.58 111.242 205.225 109.288C209.87 107.334 215.383 105.132 217.475 104.394C219.568 103.659 224.561 102.225 228.567 101.208C232.573 100.191 238.31 98.5985 241.313 97.6746C244.316 96.7474 248.193 95.4194 249.921 94.7207C251.65 94.0253 254.408 92.8662 256.046 92.1443C257.685 91.4257 259.735 90.664 260.599 90.4554C261.463 90.2468 262.916 90.0746 263.827 90.0746C264.737 90.0746 267.009 90.3826 268.876 90.7601C270.743 91.1376 274.057 92.045 276.242 92.7735C278.428 93.5054 281.407 94.6578 282.864 95.3367C284.321 96.0188 286.033 97.0289 286.672 97.5852C287.311 98.1382 288.589 99.6947 289.512 101.039C290.439 102.384 291.651 104.304 292.211 105.308C292.767 106.311 293.906 108.845 294.737 110.937C295.571 113.034 296.558 115.938 296.928 117.395C297.299 118.852 297.604 120.604 297.601 121.286C297.597 122.24 297.385 122.7 296.684 123.273C296.18 123.684 294.429 124.435 292.793 124.942C291.158 125.449 286.764 126.922 283.03 128.211C279.295 129.502 270.803 132.539 264.158 134.956C257.513 137.374 249.094 140.47 245.452 141.838C241.81 143.202 236.595 145.212 233.864 146.302C231.133 147.394 226.961 149.103 224.594 150.103C222.226 151.1 215.446 154.037 209.529 156.634C203.61 159.227 196.981 161.929 194.796 162.641C192.611 163.353 190.078 164.343 189.168 164.84C187.867 165.552 187.496 165.939 187.43 166.655C187.36 167.419 187.708 167.86 189.582 169.4C190.81 170.41 193.532 172.456 195.624 173.953C197.716 175.447 200.994 177.616 202.908 178.772C204.821 179.927 211.526 183.404 217.806 186.501C224.087 189.597 231.464 193.412 234.195 194.978C236.926 196.545 240.8 198.856 242.803 200.118C244.806 201.38 248.382 203.87 250.749 205.652C253.116 207.436 257.808 211.195 261.178 214.007C264.549 216.818 268.79 220.52 270.607 222.236C272.425 223.948 275.17 226.693 276.706 228.332C278.242 229.972 280.384 232.505 281.464 233.962C282.546 235.419 284.003 237.803 284.702 239.261C285.4 240.718 286.367 243.102 286.854 244.559C287.337 246.016 287.814 247.953 287.91 248.864C288.046 250.149 287.959 250.649 287.519 251.099C287.089 251.54 286.41 251.679 284.662 251.679C283.4 251.679 280.841 251.45 278.974 251.172C277.107 250.891 273.865 250.281 271.773 249.815C269.68 249.351 265.211 248.175 261.84 247.205C258.47 246.235 253.553 244.665 250.915 243.718C248.276 242.771 243.207 240.761 239.658 239.251C236.109 237.737 231.414 235.691 229.229 234.701C227.044 233.707 221.68 231.177 217.31 229.074C212.94 226.971 207.649 224.58 205.556 223.759C203.464 222.935 199.885 221.646 197.61 220.888C195.333 220.133 191.237 218.931 188.506 218.216C185.774 217.5 181.977 216.686 180.063 216.407C178.149 216.126 176.325 215.977 176.007 216.073C175.64 216.182 175.428 216.576 175.425 217.156C175.421 217.656 175.878 220.6 176.434 223.696C176.994 226.793 177.729 230.591 178.073 232.141C178.418 233.691 179.004 237.191 179.378 239.923C179.752 242.655 180.732 251.225 181.556 258.964C182.381 266.707 184.165 281.755 185.526 292.411C186.883 303.068 188.095 312.456 188.218 313.274C188.39 314.423 188.284 315.105 187.754 316.254C187.377 317.072 186.685 318.006 186.215 318.324C185.744 318.642 184.354 319.149 183.126 319.447C181.573 319.824 179.374 319.993 175.925 320C172.657 320.006 169.882 319.814 167.813 319.444C166.085 319.132 164.072 318.596 163.343 318.255C162.615 317.91 161.483 316.983 160.824 316.195C160.165 315.41 159.003 313.794 158.241 312.612C157.48 311.43 156.49 309.267 156.04 307.81C155.593 306.353 154.712 302.853 154.083 300.028C153.454 297.203 152.421 292.14 151.789 288.768C151.156 285.397 150.186 279.662 149.633 276.019C149.077 272.376 147.945 264.925 147.111 259.461C146.276 253.997 145.147 247.218 144.598 244.394C144.048 241.569 143.224 237.77 142.767 235.949C142.307 234.128 140.691 229.21 139.171 225.021C137.655 220.832 135.658 215.616 134.738 213.43C133.818 211.245 132.612 208.748 132.063 207.883C131.513 207.019 130.765 206.161 130.401 205.979C129.848 205.704 129.543 205.857 128.57 206.89C127.924 207.572 126.153 210.592 124.63 213.596C123.104 216.603 120.885 221.521 119.697 224.524C118.512 227.528 116.555 233.267 115.35 237.274C114.148 241.281 112.108 247.689 110.817 251.513C109.526 255.338 107.48 260.928 106.275 263.935C105.023 267.048 103.295 270.654 102.259 272.31C101.256 273.909 99.14 277.036 97.5541 279.261C95.9649 281.483 92.9124 285.43 90.7669 288.03C88.6182 290.63 86.6417 292.752 86.3669 292.749C86.0921 292.742 83.6354 291.64 80.904 290.298C78.1726 288.957 74.5207 286.911 72.7925 285.752C71.0642 284.593 68.2169 282.225 66.4688 280.493C64.7207 278.761 62.5157 276.3 61.5655 275.025C60.6186 273.751 59.7512 272.337 59.6419 271.88C59.5293 271.426 59.5956 270.157 59.7843 269.065C59.9763 267.972 60.6815 265.588 61.3536 263.766C62.0257 261.945 64.1215 257.325 66.0086 253.5C67.9256 249.613 70.7365 244.572 72.3753 242.075C73.991 239.615 77.3316 234.773 79.7982 231.313C82.2681 227.852 85.1054 223.756 86.102 222.206C87.1019 220.66 89.244 217.007 90.8596 214.093C92.4786 211.179 94.6538 206.933 95.6934 204.655C96.733 202.38 98.0441 199.098 98.607 197.369C99.1731 195.641 99.7227 193.478 99.832 192.568C99.9909 191.213 99.9147 190.799 99.4049 190.299C98.9281 189.826 98.5143 189.736 97.6237 189.908C96.988 190.028 94.9022 190.574 92.9885 191.12C91.0749 191.667 86.6814 192.988 83.2216 194.058C79.7618 195.131 76.0371 196.233 74.9445 196.508C73.852 196.783 70.9451 197.379 68.4884 197.833C66.0318 198.287 59.3274 199.343 53.5897 200.177C47.8521 201.015 40.555 202.135 37.3667 202.661C34.1817 203.191 29.4108 203.923 26.7721 204.29C24.1333 204.658 20.4815 205.132 18.6606 205.34C16.8396 205.549 13.8599 205.734 12.0389 205.754C9.76107 205.777 8.21161 205.618 7.07269 205.238C6.00329 204.883 4.97693 204.214 4.17572 203.347C3.49369 202.608 2.72889 201.595 2.47395 201.095C2.22233 200.595 1.61976 198.919 1.13638 197.369C0.649691 195.823 0.166311 193.511 0.0603646 192.236C-0.0820007 190.538 0.0206347 189.385 0.441109 187.931C0.758948 186.839 1.39794 185.199 1.86145 184.289C2.32828 183.378 3.4672 181.828 4.39423 180.841C5.5464 179.619 6.81444 178.712 8.39701 177.977C9.67168 177.384 12.1316 176.52 13.8599 176.056C15.5881 175.592 19.6108 174.678 22.7991 174.023C25.9841 173.364 33.2116 171.655 38.8566 170.221C44.5015 168.79 54.1128 166.181 60.2114 164.426C66.3099 162.671 73.3156 160.727 75.7722 160.108C78.2289 159.485 83.4434 158.299 87.3601 157.475C91.2768 156.647 94.6274 155.819 94.8095 155.637C95.0302 155.416 94.4232 154.583 92.9885 153.137C91.8032 151.945 88.9725 149.348 86.698 147.368C84.4234 145.388 80.3975 142.033 77.7587 139.91C75.12 137.788 70.3524 133.847 67.1641 131.155C63.9791 128.462 58.9135 124.061 55.9073 121.379C52.9011 118.693 47.8223 114.537 44.6207 112.143C41.4158 109.752 36.539 106.152 33.7844 104.149C31.0265 102.145 27.613 99.7311 26.1993 98.7873C24.7856 97.8402 23.0673 96.6845 22.3852 96.2208C21.7032 95.7539 20.8821 94.8432 20.5643 94.1942C20.071 93.1941 20.0445 92.8099 20.3723 91.6277C20.5841 90.866 21.4648 88.7499 22.3289 86.9286C23.5374 84.3853 24.3486 83.1766 25.8318 81.7129C26.8946 80.6664 28.5467 79.4146 29.5035 78.9345C30.4603 78.451 33.5129 77.484 41.3397 75.5037L44.8988 75.9706C47.9448 76.3713 48.7923 76.6263 50.7755 77.739C52.0502 78.451 60.3206 82.6898 69.1506 87.1571C77.9806 91.6244 91.9489 98.8038 100.19 103.109C108.43 107.414 115.32 110.937 115.502 110.937C115.684 110.937 115.151 109.186 114.32 107.046C113.486 104.907 111.271 98.9098 109.39 93.7173C107.513 88.5281 105.076 81.5241 103.977 78.1529C102.878 74.7851 101.597 70.6092 101.133 68.8806C100.666 67.1519 99.4744 60.8931 98.4778 54.972C97.4846 49.0542 95.9848 40.7819 95.1438 36.5928C94.3029 32.4037 92.9455 26.1448 92.1244 22.6842C91.3033 19.2236 90.4359 15.4981 90.1942 14.4053C89.9525 13.3125 89.8499 11.9846 89.9657 11.458C90.0783 10.9282 90.6974 10.044 91.3331 9.49095C91.9688 8.93791 93.8692 7.8451 95.5544 7.05695C97.2396 6.2721 100.59 4.97397 103.004 4.16926C105.417 3.36786 108.953 2.32472 110.867 1.85448Z" fill="#202020"/>
<path d="M927.375 75.5859C928.787 75.5859 930.375 75.7598 932.14 76.1076C933.905 76.4553 935.494 77.1509 936.906 78.1942C938.318 79.0636 939.377 80.2807 940.082 81.8457C940.965 83.4106 941.053 85.4102 940.347 87.8446C941.053 87.6707 942.112 87.4968 943.524 87.3229C944.936 86.9752 946.436 86.6274 948.025 86.2796C949.79 85.9319 951.378 85.6711 952.79 85.4972C954.202 85.1494 955.173 84.8886 955.702 84.7147H957.026C964.438 84.7147 971.939 85.9319 979.529 88.3662C987.118 90.6267 993.913 93.9304 999.914 98.2775C1005.91 102.625 1010.86 107.928 1014.74 114.188C1018.8 120.447 1020.83 127.49 1020.83 135.314C1020.83 144.008 1018.8 152.007 1014.74 159.31C1010.68 166.439 1005.38 172.612 998.855 177.828C992.501 183.045 985.265 187.131 977.146 190.087C969.204 193.043 961.262 194.521 953.319 194.521C953.319 199.563 953.761 204.606 954.643 209.649C955.702 214.517 956.673 219.299 957.555 223.994C958.614 228.862 959.585 233.644 960.467 238.339C961.526 243.208 962.056 247.989 962.056 252.684C962.056 254.075 961.526 255.205 960.467 256.075C959.585 256.944 958.438 257.379 957.026 257.379C955.437 257.379 954.114 256.683 953.055 255.292C952.172 253.901 951.466 252.336 950.937 250.598C950.584 248.859 950.231 247.12 949.878 245.381C949.701 243.816 949.613 242.686 949.613 241.99C949.26 239.556 948.642 235.644 947.76 230.253C947.054 225.037 946.171 219.212 945.113 212.778C944.054 206.171 942.906 199.303 941.671 192.173C940.612 184.87 939.553 177.915 938.494 171.308C937.612 164.7 936.729 158.875 935.847 153.833C935.141 148.616 934.611 144.791 934.258 142.356L927.375 75.5859ZM940.082 110.536V113.144C940.082 114.014 940.082 115.057 940.082 116.274C940.259 117.317 940.347 118.274 940.347 119.143V120.969C940.7 123.925 941.141 127.49 941.671 131.663C942.2 135.836 942.818 140.27 943.524 144.965C944.23 149.486 944.936 154.093 945.642 158.788C946.348 163.483 946.966 167.743 947.495 171.569C948.025 175.22 948.466 178.263 948.819 180.697C949.172 183.132 949.437 184.436 949.613 184.61C956.673 186.175 963.821 185.827 971.057 183.566C978.293 181.132 984.823 177.394 990.648 172.351C996.472 167.135 1001.33 161.136 1005.21 154.354C1009.09 147.573 1011.12 140.618 1011.3 133.488C1011.3 127.055 1009.71 121.578 1006.53 117.057C1003.53 112.362 999.649 108.536 994.883 105.58C990.118 102.451 984.735 100.19 978.734 98.7991C972.91 97.2342 967.086 96.4517 961.262 96.4517C958.438 96.4517 955.702 96.6256 953.055 96.9734C950.584 97.3211 948.378 97.9297 946.436 98.7991C944.495 99.6685 942.906 101.06 941.671 102.972C940.612 104.885 940.082 107.406 940.082 110.536Z" fill="#202020"/>
<path d="M802.023 191.466C801.846 188.684 801.493 184.598 800.964 179.207C800.434 173.643 799.817 167.383 799.111 160.428C798.581 153.473 797.963 146.17 797.257 138.519C796.728 130.868 796.11 123.565 795.404 116.61C794.875 109.655 794.345 103.395 793.816 97.8309C793.286 92.2667 792.933 88.1805 792.757 85.5722C792.757 85.2245 792.669 84.2681 792.492 82.7032C792.492 80.9644 792.492 79.8341 792.492 79.3125H802.023C802.199 81.573 802.376 85.1375 802.552 90.0062C802.905 94.701 803.258 100.004 803.611 105.916C804.141 111.828 804.582 118.175 804.935 124.956C805.288 131.564 805.641 137.824 805.994 143.736C806.523 149.648 806.965 155.038 807.318 159.907C807.671 164.601 807.935 168.079 808.112 170.339C808.641 175.556 809.435 181.555 810.494 188.336C811.73 195.118 813.76 201.464 816.583 207.376C819.407 213.114 823.025 217.983 827.438 221.982C831.85 225.982 837.498 227.981 844.381 227.981C850.205 227.981 855.235 226.155 859.471 222.504C863.883 218.852 867.59 214.158 870.59 208.419C873.591 202.508 875.973 195.987 877.738 188.858C879.68 181.729 881.18 174.773 882.239 167.992C883.474 161.037 884.268 154.69 884.621 148.952C885.151 143.04 885.416 138.432 885.416 135.128C885.416 126.434 884.71 118.262 883.298 110.611C882.062 102.786 881.444 94.8749 881.444 86.8763C881.444 84.9636 882.062 83.7465 883.298 83.2248C884.71 82.5293 886.21 82.1815 887.798 82.1815C888.151 82.1815 888.681 82.2685 889.387 82.4424C890.093 82.4424 890.622 82.4424 890.975 82.4424C892.034 86.2678 892.74 89.7454 893.093 92.8753C893.446 95.8312 893.711 98.7003 893.887 101.482C894.24 104.264 894.417 107.134 894.417 110.09V119.74C894.417 124.782 894.24 131.303 893.887 139.302C893.711 147.126 893.093 155.473 892.034 164.341C890.975 173.208 889.298 182.163 887.004 191.205C884.886 200.073 881.886 208.159 878.003 215.462C874.297 222.765 869.443 228.677 863.442 233.198C857.618 237.718 850.558 239.979 842.263 239.979C836.086 239.979 830.615 238.501 825.849 235.545C821.084 232.415 817.025 228.503 813.671 223.808C810.494 219.113 807.847 213.897 805.729 208.159C803.788 202.421 802.552 196.856 802.023 191.466Z" fill="#202020"/>
<path d="M623.409 158.076C619.526 158.076 615.643 158.597 611.761 159.641C607.878 160.684 603.995 161.814 600.112 163.031C596.406 164.075 592.611 165.118 588.728 166.161C585.022 167.031 581.139 167.465 577.08 167.465C574.785 167.465 572.932 167.031 571.52 166.161C570.108 165.292 569.402 163.553 569.402 160.945C569.402 158.858 569.932 157.467 570.991 156.772C572.226 155.902 573.638 155.467 575.227 155.467C576.992 155.294 578.756 155.294 580.521 155.467C582.463 155.641 583.963 155.554 585.022 155.207C586.434 154.859 588.993 154.25 592.699 153.381C596.582 152.511 600.642 151.642 604.877 150.773C609.113 149.903 613.084 149.034 616.791 148.164C620.673 147.295 623.321 146.599 624.733 146.078C624.733 145.556 624.733 144.687 624.733 143.47C624.909 142.079 624.998 140.688 624.998 139.296C625.174 137.732 625.262 136.34 625.262 135.123V132.254C625.262 127.038 624.909 121.995 624.203 117.127C623.497 112.084 622.703 107.041 621.821 101.999C621.115 96.9563 620.409 91.9138 619.703 86.8712C618.997 81.8287 618.644 76.7861 618.644 71.7435C618.644 70.0047 618.82 68.3528 619.173 66.7879C619.703 65.0491 621.115 64.1797 623.409 64.1797C624.292 64.1797 625.174 64.4405 626.057 64.9622C627.115 65.3099 627.733 66.0924 627.91 67.3096L637.176 142.687C637.352 142.861 637.529 142.948 637.705 142.948H638.499C640.264 142.948 643 142.513 646.706 141.644C650.413 140.774 654.56 139.731 659.149 138.514C663.738 137.297 668.591 135.993 673.71 134.602C679.004 133.211 684.034 131.993 688.8 130.95C693.565 129.733 697.889 128.864 701.772 128.342C705.655 127.646 708.655 127.559 710.773 128.081C711.479 128.255 712.626 129.124 714.215 130.689C715.803 132.08 716.774 133.124 717.127 133.819C717.48 135.558 715.98 137.297 712.626 139.036C709.273 140.601 704.861 142.166 699.389 143.73C694.094 145.121 688.182 146.426 681.652 147.643C675.121 148.86 668.856 149.99 662.855 151.033C657.031 151.903 652.001 152.772 647.765 153.642C643.529 154.337 640.97 154.859 640.088 155.207V160.423C640.088 162.684 639.999 165.205 639.823 167.987C639.823 170.595 639.823 173.116 639.823 175.551V180.767C639.823 189.635 640.441 198.329 641.676 206.849C642.912 215.196 643.529 223.629 643.529 232.149C643.529 233.366 643.176 234.41 642.47 235.279C641.764 235.975 640.882 236.67 639.823 237.366C638.764 237.887 637.705 238.409 636.646 238.931C635.587 239.278 634.793 239.539 634.263 239.713C632.851 232.236 631.793 225.455 631.087 219.369C630.557 213.109 630.116 206.936 629.763 200.85C629.586 194.765 629.322 188.331 628.969 181.55C628.792 174.594 628.439 166.77 627.91 158.076H623.409Z" fill="#202020"/>
<path d="M522.2 121.049C523.259 121.049 524.406 121.397 525.641 122.092C527.053 122.788 527.936 123.744 528.289 124.962L546.821 215.467C548.938 218.597 550.439 221.118 551.321 223.031C552.38 224.943 552.91 227.465 552.91 230.594C552.91 232.159 552.645 234.159 552.115 236.593C551.586 238.854 550.35 239.984 548.409 239.984H547.35C546.997 239.984 546.821 239.897 546.821 239.723C546.468 239.549 545.938 239.202 545.232 238.68L541.261 234.768C540.732 234.246 540.467 233.898 540.467 233.724L522.2 130.7V121.049ZM517.699 62.625C521.582 62.625 524.406 63.1466 526.171 64.1899C528.112 65.0593 529.083 67.3198 529.083 70.9713C529.083 72.1885 528.995 73.6665 528.818 75.4053C528.642 77.1441 527.583 78.2743 525.641 78.796C522.112 77.4049 519.905 75.1445 519.023 72.0146C518.14 68.8847 517.699 65.7549 517.699 62.625Z" fill="#202020"/>
<path d="M384.711 233.717C384.887 232.326 385.064 230.066 385.24 226.936C385.593 223.806 385.946 220.502 386.299 217.025C386.652 213.547 386.917 210.243 387.094 207.113C387.447 203.81 387.623 201.549 387.623 200.332C387.623 197.55 387.623 193.29 387.623 187.552C387.8 181.64 387.888 175.032 387.888 167.729V121.303C387.888 114 387.8 107.479 387.623 101.741C387.623 95.8293 387.623 91.3953 387.623 88.4394C388.329 87.2222 388.947 86.4397 389.476 86.092C390.006 85.7442 390.888 85.5703 392.124 85.5703H393.977C394.506 85.9181 395.389 86.5267 396.624 87.3961C397.86 88.0916 398.477 88.4394 398.477 88.4394V223.806C399.007 223.806 399.889 223.893 401.125 224.067C402.36 224.241 403.684 224.415 405.096 224.589C406.684 224.589 408.096 224.589 409.332 224.589C410.744 224.589 411.626 224.589 411.979 224.589C413.92 224.415 416.744 224.067 420.451 223.545C424.334 223.024 428.746 222.502 433.688 221.98C438.629 221.459 443.748 220.937 449.043 220.415C454.337 219.72 459.367 219.111 464.133 218.59C469.074 217.894 473.399 217.286 477.105 216.764C480.988 216.242 483.9 215.808 485.841 215.46C488.312 214.243 490.43 213.46 492.195 213.112C493.96 212.591 496.078 212.33 498.549 212.33C500.843 212.33 502.343 213.112 503.049 214.677C503.932 216.242 504.373 217.981 504.373 219.894C504.373 221.459 504.02 222.85 503.314 224.067C502.785 225.11 502.079 226.327 501.196 227.718C492.195 226.849 483.106 226.936 473.928 227.979C464.927 229.023 455.926 230.501 446.925 232.413C437.923 234.152 429.011 235.804 420.186 237.369C411.361 238.934 402.625 239.716 393.977 239.716C392.741 239.716 391.065 239.021 388.947 237.63C386.829 236.239 385.417 234.934 384.711 233.717Z" fill="#202020"/>
<path d="M927.387 65.7578C929.605 65.7579 931.864 66.0275 934.107 66.4693C937.178 67.0746 940.041 68.2914 942.592 70.1093C945.038 71.7017 946.971 73.7881 948.367 76.2214C949.225 76.0745 950.058 75.9468 950.863 75.8378C951.305 75.7271 951.671 75.6368 951.965 75.5578C952.16 75.5053 952.311 75.4649 952.42 75.4332C952.533 75.4004 952.575 75.3869 952.562 75.391L954.096 74.8866H957.038V84.7058H955.714C955.185 84.8796 954.213 85.1406 952.802 85.4882C951.39 85.6621 949.801 85.923 948.037 86.2707C946.448 86.6184 944.948 86.9663 943.536 87.314C942.125 87.4878 941.065 87.6618 940.359 87.8356C941.065 85.4016 940.977 83.4016 940.094 81.8367C939.389 80.272 938.329 79.0546 936.918 78.1852C935.506 77.1421 933.917 76.4465 932.152 76.0986C930.388 75.7509 928.799 75.5771 927.387 75.577L934.27 142.347C934.623 144.782 935.153 148.607 935.859 153.824C936.741 158.866 937.623 164.691 938.506 171.299C939.565 177.906 940.624 184.862 941.683 192.165C942.918 199.294 944.065 206.162 945.124 212.769C946.183 219.203 947.066 225.028 947.772 230.245C948.654 235.635 949.272 239.547 949.625 241.982L949.641 242.586C949.674 243.27 949.757 244.199 949.89 245.372L950.949 250.589C951.478 252.327 952.184 253.893 953.067 255.284C954.059 256.587 955.284 257.281 956.742 257.362L957.038 257.37C958.449 257.37 959.597 256.935 960.479 256.066C961.405 255.305 961.926 254.345 962.042 253.185L962.068 252.675C962.068 247.981 961.538 243.199 960.479 238.33C959.597 233.635 958.626 228.853 957.567 223.985C956.685 219.29 955.714 214.508 954.655 209.64C953.773 204.597 953.331 199.554 953.331 194.512C961.273 194.512 969.216 193.034 977.158 190.078C985.276 187.122 992.513 183.036 998.866 177.819C1004.99 172.929 1010.02 167.198 1013.97 160.626L1014.75 159.301C1018.81 151.998 1020.84 143.999 1020.84 135.305C1020.84 127.481 1018.81 120.438 1014.75 114.179C1010.87 107.919 1005.93 102.616 999.925 98.2685C993.925 93.9216 987.129 90.6177 979.541 88.3573C972.426 86.0751 965.387 84.8618 958.428 84.7192L957.038 84.7058V74.8866C965.508 74.8867 973.981 76.271 982.423 78.9581C991.028 81.5208 998.858 85.3073 1005.83 90.3576C1012.82 95.4203 1018.6 101.617 1023.15 108.891C1028.29 116.816 1030.81 125.712 1030.81 135.305C1030.81 145.572 1028.39 155.203 1023.49 164.017L1023.47 164.061L1023.44 164.105C1018.76 172.332 1012.64 179.459 1005.14 185.446L1005.14 185.445C997.918 191.354 989.741 195.955 980.677 199.262L980.679 199.264C980.664 199.27 980.649 199.274 980.635 199.28C980.627 199.282 980.619 199.286 980.611 199.289L980.609 199.287C975.069 201.344 969.475 202.783 963.837 203.583C964.004 204.994 964.206 206.407 964.45 207.822C965.497 212.642 966.459 217.383 967.337 222.046C968.401 226.943 969.378 231.758 970.269 236.493C971.435 241.923 972.034 247.321 972.034 252.675C972.034 256.754 970.368 260.548 967.197 263.313C964.247 266.048 960.583 267.189 957.038 267.189C951.932 267.189 947.794 264.722 945.093 261.175L944.838 260.841L944.614 260.488C943.214 258.281 942.161 255.899 941.403 253.41L941.266 252.967L940.116 247.298L940.03 246.88L939.983 246.456C939.843 245.212 939.725 243.963 939.68 242.864C939.33 240.493 938.752 236.82 937.932 231.808L937.91 231.675L937.893 231.543C937.202 226.437 936.334 220.705 935.286 214.342L935.282 214.321L935.278 214.302C934.227 207.738 933.087 200.909 931.858 193.818L931.835 193.685L931.815 193.553C930.763 186.293 929.711 179.386 928.66 172.831L928.641 172.705L928.623 172.58C927.753 166.066 926.89 160.374 926.036 155.492L926.003 155.308L925.98 155.122C925.274 149.91 924.749 146.122 924.403 143.736L924.374 143.538L924.354 143.339L916.355 65.7578H927.387ZM962.366 96.4524C967.826 96.5441 973.286 97.3231 978.746 98.7902C984.747 100.181 990.13 102.442 994.895 105.572C999.66 108.527 1003.54 112.353 1006.54 117.048C1009.72 121.569 1011.31 127.046 1011.31 133.48C1011.13 140.609 1009.1 147.564 1005.22 154.345L1004.48 155.607C1000.73 161.873 996.12 167.452 990.66 172.342C984.835 177.384 978.305 181.123 971.069 183.557C963.833 185.818 956.684 186.165 949.625 184.601C949.449 184.427 949.184 183.123 948.831 180.688L947.507 171.56C946.978 167.734 946.36 163.474 945.654 158.779C944.948 154.085 944.242 149.477 943.536 144.956C942.83 140.261 942.212 135.827 941.683 131.654C941.153 127.481 940.712 123.916 940.359 120.96V119.134C940.359 118.265 940.271 117.309 940.094 116.265V110.527C940.094 107.397 940.624 104.876 941.683 102.963C942.764 101.29 944.114 100.016 945.736 99.1411L946.448 98.7902C948.389 97.9209 950.596 97.3121 953.067 96.9644C955.714 96.6167 958.45 96.4428 961.274 96.4428L962.366 96.4524ZM961.274 106.262C958.891 106.262 956.618 106.406 954.453 106.688C952.776 106.926 951.513 107.307 950.571 107.729C950.543 107.742 950.471 107.768 950.347 107.9C950.237 108.26 950.061 109.064 950.061 110.527V115.55C950.226 116.73 950.326 117.93 950.326 119.134V120.373C950.664 123.186 951.077 126.54 951.572 130.436C952.089 134.51 952.693 138.852 953.386 143.462C954.095 148.001 954.803 152.629 955.512 157.341C956.219 162.048 956.842 166.333 957.376 170.192C957.738 172.687 957.964 174.26 958.178 175.737C961.371 175.753 964.624 175.258 967.98 174.218C973.893 172.21 979.228 169.156 984.039 164.999C989.035 160.508 993.195 155.36 996.538 149.52C999.674 144.043 1001.19 138.682 1001.34 133.34C1001.32 128.627 1000.17 125.224 998.349 122.636L998.224 122.462L998.109 122.28C995.903 118.828 993.088 116.055 989.585 113.881L989.474 113.812L989.367 113.741C985.664 111.309 981.395 109.492 976.463 108.349L976.292 108.308L976.122 108.264C971.122 106.921 966.18 106.262 961.274 106.262Z" fill="#202020"/>
<path d="M871.491 86.8752C871.491 83.1374 872.852 77.1535 879.046 74.3481C881.797 73.0285 884.757 72.3612 887.812 72.3612L888.419 72.3766C889.148 72.4125 889.837 72.5134 890.436 72.6221H898.6L900.603 79.858C901.758 84.0316 902.577 87.9993 903.001 91.7273H903.005C903.366 94.7479 903.638 97.6993 903.827 100.58C904.207 103.686 904.397 106.857 904.397 110.088V119.739C904.397 124.936 904.216 131.543 903.865 139.519L903.774 142.607C903.512 149.865 902.901 157.494 901.946 165.486C900.841 174.744 899.093 184.066 896.718 193.452C894.428 203.039 891.153 211.912 886.844 220.017C882.558 228.407 876.838 235.443 869.621 240.908L869.623 240.91C869.598 240.929 869.572 240.946 869.547 240.966C869.534 240.975 869.523 240.987 869.51 240.996L869.508 240.994C861.741 246.981 852.479 249.797 842.277 249.797C834.409 249.797 827.06 247.891 820.552 243.854L820.442 243.785L820.334 243.714C814.527 239.899 809.584 235.127 805.534 229.459L805.46 229.357L805.392 229.253C801.74 223.856 798.743 217.928 796.376 211.514L796.329 211.389L796.288 211.262C794.137 204.904 792.726 198.615 792.116 192.41L792.099 192.244L792.089 192.077C791.923 189.466 791.584 185.513 791.057 180.152L791.055 180.138L791.054 180.123C790.526 174.583 789.911 168.343 789.206 161.403L789.195 161.282L789.185 161.162C788.66 154.263 788.047 147.012 787.345 139.408L787.336 139.297L787.328 139.185C786.805 131.628 786.194 124.428 785.5 117.585L785.488 117.464L785.478 117.343C784.953 110.435 784.428 104.237 783.906 98.7465C783.375 93.1702 783.011 88.9734 782.825 86.2251L782.804 85.8971V85.7744C782.799 85.7086 782.791 85.6131 782.778 85.4829C782.743 85.0977 782.684 84.5384 782.599 83.7856L782.539 83.2467V69.4922H811.265L811.974 78.5577C812.165 81.0032 812.344 84.6803 812.519 89.4834C812.869 94.1535 813.216 99.3974 813.564 105.211C814.099 111.209 814.546 117.62 814.901 124.439L815.429 134.061C815.602 137.137 815.775 140.127 815.949 143.033C816.475 148.915 816.916 154.298 817.27 159.18L818.055 169.485C818.559 174.425 819.317 180.162 820.338 186.713C821.422 192.61 823.173 198.058 825.565 203.091L826.007 203.965C828.25 208.286 830.992 211.848 834.198 214.755C836.499 216.84 839.615 218.161 844.395 218.161V227.98L843.118 227.957C837.23 227.738 832.288 225.989 828.292 222.708L827.451 221.981C823.039 217.982 819.421 213.113 816.597 207.375C813.773 201.463 811.743 195.116 810.508 188.335C809.449 181.554 808.655 175.555 808.125 170.338C807.949 168.078 807.684 164.6 807.331 159.905C806.978 155.037 806.537 149.646 806.007 143.734C805.654 137.822 805.301 131.563 804.948 124.955C804.595 118.174 804.154 111.827 803.625 105.915C803.272 100.003 802.919 94.6999 802.566 90.0051C802.389 85.1364 802.213 81.5718 802.036 79.3114H792.506V82.7021C792.682 84.267 792.77 85.2233 792.77 85.5711C792.947 88.1793 793.3 92.2656 793.829 97.8298C794.359 103.394 794.888 109.654 795.418 116.609C796.124 123.564 796.742 130.867 797.271 138.518C797.977 146.169 798.595 153.472 799.124 160.427C799.83 167.382 800.448 173.642 800.977 179.206C801.507 184.597 801.86 188.683 802.036 191.465C802.566 196.855 803.801 202.419 805.743 208.158C807.861 213.896 810.508 219.112 813.685 223.807C817.038 228.502 821.098 232.414 825.863 235.544C830.33 238.315 835.418 239.787 841.126 239.961L842.277 239.978C850.572 239.978 857.632 237.717 863.456 233.196C869.456 228.676 874.31 222.763 878.016 215.461C881.899 208.158 884.9 200.072 887.018 191.204C889.312 182.162 890.989 173.207 892.048 164.339C893.107 155.471 893.724 147.125 893.901 139.3C894.254 131.302 894.43 124.781 894.43 119.739V110.088C894.43 107.132 894.254 104.263 893.901 101.481C893.724 98.6992 893.46 95.8301 893.107 92.8741C892.754 89.7443 892.048 86.2666 890.989 82.4412H889.4L888.904 82.3281C888.44 82.2302 888.077 82.1805 887.812 82.1804C886.223 82.1804 884.723 82.5283 883.311 83.2237C882.076 83.7454 881.458 84.9625 881.458 86.8752L881.487 89.8708C881.622 96.8505 882.23 103.764 883.311 110.61C884.723 118.261 885.429 126.433 885.429 135.127C885.429 138.431 885.164 143.039 884.635 148.951C884.282 154.689 883.488 161.036 882.252 167.991C881.193 174.772 879.693 181.728 877.752 188.857C875.987 195.986 873.604 202.506 870.604 208.418C867.603 214.156 863.897 218.851 859.485 222.503L858.681 223.166C854.617 226.375 849.855 227.98 844.395 227.98V218.161C847.896 218.161 850.57 217.14 852.921 215.113L852.997 215.048L853.075 214.985C856.343 212.28 859.259 208.666 861.735 203.935C864.346 198.771 866.472 192.984 868.069 186.53L868.095 186.421L868.126 186.312C869.98 179.503 871.401 172.898 872.4 166.497L872.416 166.397L872.434 166.297C873.618 159.628 874.36 153.654 874.686 148.356L874.694 148.222L874.707 148.088C875.228 142.276 875.462 138.002 875.462 135.127C875.462 126.954 874.798 119.375 873.504 112.367L873.483 112.244L873.463 112.119C872.148 103.79 871.491 95.374 871.491 86.8752Z" fill="#202020"/>
<path d="M615.305 132.261C615.305 127.481 614.983 122.904 614.348 118.522L614.34 118.476C613.649 113.543 612.873 108.609 612.01 103.674L611.98 103.511L611.957 103.348L609.839 88.2204C609.072 82.7374 608.687 77.2458 608.687 71.7502C608.687 69.3549 608.93 66.9844 609.454 64.6639L609.532 64.3149L609.637 63.9735C610.517 61.082 612.374 58.3479 615.356 56.5113C618.137 54.7986 621.083 54.3672 623.419 54.3672C626.02 54.3672 628.364 55.0562 630.364 56.0894C632.14 56.862 633.834 58.0693 635.192 59.7888C636.593 61.5635 637.316 63.4802 637.66 65.2028L637.787 65.9277L637.814 66.1349L645.879 131.745C649.095 130.975 652.657 130.076 656.568 129.039C661.134 127.828 665.969 126.528 671.07 125.142L671.111 125.132L671.152 125.121C676.507 123.714 681.62 122.475 686.489 121.406C691.423 120.152 696.036 119.216 700.302 118.637C704.546 117.898 709.106 117.554 713.2 118.562C715.637 119.162 717.453 120.484 718.25 121.088C719.203 121.81 720.132 122.65 721.01 123.502C721.891 124.28 722.742 125.082 723.49 125.886C724.093 126.534 724.99 127.559 725.74 128.861L726.052 129.434L726.648 130.612L726.91 131.9C727.849 136.525 725.978 140.35 723.87 142.794C721.937 145.034 719.456 146.603 717.278 147.732L717.092 147.828L716.903 147.916C712.887 149.79 707.92 151.525 702.179 153.167L702.073 153.198L701.966 153.225C696.392 154.689 690.236 156.045 683.515 157.298C676.948 158.522 670.642 159.659 664.597 160.71L664.479 160.731L664.358 160.748C658.756 161.584 653.985 162.408 650.021 163.216C649.98 164.817 649.907 166.496 649.799 168.253V180.774C649.799 189.191 650.386 197.421 651.553 205.468H651.551C652.854 214.279 653.506 223.176 653.506 232.156C653.506 235.381 652.516 238.643 650.262 241.419L649.918 241.845L649.527 242.228C648.251 243.485 646.825 244.581 645.361 245.542L644.845 245.882L644.29 246.154C644.288 246.155 644.286 246.157 644.284 246.158L644.277 246.162L644.271 246.164C644.269 246.165 644.267 246.166 644.265 246.167C644.263 246.168 644.261 246.168 644.259 246.169L644.247 246.177C644.245 246.178 644.242 246.178 644.24 246.179C644.238 246.18 644.236 246.182 644.234 246.183C644.232 246.184 644.23 246.184 644.228 246.185L644.216 246.192C644.214 246.193 644.211 246.193 644.209 246.194C644.207 246.195 644.205 246.197 644.203 246.198C644.201 246.199 644.199 246.199 644.197 246.2L644.185 246.208C644.183 246.209 644.179 246.209 644.177 246.21C644.176 246.211 644.173 246.213 644.172 246.213C644.17 246.214 644.168 246.214 644.166 246.215L644.154 246.223L644.148 246.225L644.14 246.229C644.139 246.23 644.136 246.23 644.135 246.231C644.132 246.232 644.131 246.234 644.129 246.235C644.127 246.235 644.125 246.236 644.123 246.236C644.121 246.237 644.119 246.239 644.117 246.24L644.109 246.244C644.107 246.245 644.105 246.245 644.103 246.246C644.101 246.247 644.1 246.249 644.098 246.25C644.096 246.251 644.094 246.251 644.092 246.252C644.09 246.253 644.088 246.255 644.086 246.256L644.078 246.259L644.072 246.261C644.07 246.262 644.068 246.264 644.066 246.265C644.065 246.266 644.062 246.266 644.061 246.267L644.049 246.275C644.047 246.276 644.043 246.276 644.041 246.277C644.039 246.278 644.037 246.28 644.035 246.281C644.033 246.281 644.031 246.282 644.029 246.282L644.018 246.29C644.016 246.291 644.012 246.291 644.01 246.292C644.008 246.293 644.006 246.295 644.004 246.296C644.002 246.297 644 246.297 643.998 246.298L643.987 246.305C643.985 246.307 643.981 246.306 643.979 246.307C643.977 246.308 643.975 246.31 643.973 246.311C643.971 246.312 643.969 246.312 643.967 246.313L643.955 246.321L643.95 246.323L643.942 246.327C643.94 246.327 643.938 246.328 643.936 246.329C643.934 246.33 643.932 246.331 643.93 246.332C643.928 246.333 643.926 246.333 643.924 246.334C643.923 246.335 643.92 246.337 643.918 246.338L643.911 246.342C643.909 246.343 643.907 246.343 643.905 246.344C643.903 246.345 643.901 246.347 643.899 246.348C643.897 246.349 643.895 246.349 643.893 246.35C643.891 246.351 643.889 246.353 643.887 246.353L643.88 246.357L643.874 246.359C643.872 246.36 643.87 246.362 643.868 246.363C643.866 246.364 643.864 246.364 643.862 246.365L643.85 246.373C643.848 246.374 643.845 246.374 643.843 246.375C643.841 246.375 643.839 246.377 643.837 246.378C643.835 246.379 643.833 246.379 643.831 246.38L643.819 246.388C643.817 246.389 643.813 246.389 643.811 246.39C643.81 246.391 643.808 246.393 643.806 246.394C643.804 246.395 643.802 246.395 643.8 246.396L643.788 246.403C643.786 246.404 643.782 246.404 643.78 246.405C643.778 246.406 643.776 246.408 643.774 246.409C643.773 246.41 643.77 246.41 643.769 246.411L643.757 246.419L643.751 246.421L643.743 246.424C643.741 246.425 643.739 246.425 643.737 246.426C643.735 246.427 643.734 246.429 643.732 246.43C643.73 246.431 643.728 246.431 643.726 246.432C643.724 246.433 643.722 246.435 643.72 246.436L643.712 246.44C643.71 246.441 643.708 246.441 643.706 246.442C643.704 246.443 643.703 246.444 643.7 246.445C643.699 246.446 643.696 246.447 643.695 246.447C643.693 246.448 643.691 246.45 643.689 246.451L643.681 246.455L643.675 246.457C643.673 246.458 643.671 246.46 643.669 246.461C643.668 246.462 643.665 246.462 643.663 246.463L643.652 246.47C643.65 246.471 643.646 246.471 643.644 246.472C643.642 246.473 643.64 246.475 643.638 246.476C643.636 246.477 643.634 246.477 643.632 246.478L643.621 246.486C643.619 246.487 643.615 246.487 643.613 246.488C643.611 246.489 643.609 246.491 643.607 246.492C643.605 246.492 643.603 246.493 643.601 246.493L643.59 246.501C643.587 246.502 643.584 246.502 643.582 246.503C643.58 246.504 643.578 246.506 643.576 246.507C643.574 246.508 643.572 246.508 643.57 246.509L643.558 246.516L643.553 246.518L643.545 246.522C643.543 246.523 643.541 246.523 643.539 246.524C643.537 246.525 643.535 246.527 643.533 246.528C643.531 246.529 643.529 246.529 643.527 246.53C643.525 246.531 643.523 246.533 643.521 246.534L643.514 246.538C643.512 246.538 643.51 246.539 643.508 246.539C643.506 246.54 643.504 246.542 643.502 246.543C643.5 246.544 643.498 246.544 643.496 246.545C643.494 246.546 643.492 246.548 643.49 246.549L643.482 246.553L643.477 246.555C643.475 246.556 643.473 246.558 643.471 246.559C643.469 246.56 643.467 246.56 643.465 246.561L643.453 246.568C643.451 246.569 643.448 246.569 643.445 246.57C643.444 246.571 643.442 246.573 643.44 246.574C643.438 246.575 643.436 246.575 643.434 246.576L643.422 246.584C643.42 246.585 643.416 246.584 643.414 246.585C643.412 246.586 643.41 246.588 643.408 246.589C643.407 246.59 643.404 246.59 643.403 246.591L643.391 246.599C643.389 246.6 643.385 246.6 643.383 246.601C643.381 246.602 643.379 246.604 643.377 246.605C643.376 246.606 643.373 246.606 643.371 246.607L643.36 246.614L643.354 246.616L643.346 246.62C643.344 246.621 643.342 246.621 643.34 246.622C643.338 246.623 643.337 246.625 643.335 246.626C643.333 246.627 643.33 246.627 643.329 246.628C643.327 246.629 643.325 246.631 643.323 246.632L643.315 246.635C643.313 246.636 643.311 246.636 643.309 246.637C643.307 246.638 643.305 246.64 643.303 246.641C643.302 246.642 643.299 246.642 643.298 246.643C643.296 246.644 643.294 246.646 643.292 246.647L643.284 246.651L643.278 246.653C643.276 246.654 643.274 246.655 643.272 246.656C643.27 246.657 643.268 246.657 643.266 246.658L643.255 246.666C643.253 246.667 643.249 246.667 643.247 246.668C643.245 246.669 643.243 246.671 643.241 246.672C643.239 246.673 643.237 246.673 643.235 246.674L643.224 246.681C643.221 246.682 643.218 246.682 643.216 246.683C643.214 246.684 643.212 246.686 643.21 246.687C643.208 246.688 643.206 246.688 643.204 246.689L643.192 246.697C643.19 246.698 643.187 246.698 643.185 246.699C643.183 246.7 643.181 246.702 643.179 246.702C643.177 246.703 643.175 246.703 643.173 246.704L643.161 246.712L643.155 246.714L643.148 246.718C643.146 246.719 643.144 246.719 643.142 246.72C643.14 246.721 643.138 246.723 643.136 246.724C643.134 246.724 643.132 246.725 643.13 246.725C643.128 246.726 643.126 246.728 643.124 246.729L643.116 246.733C643.115 246.734 643.112 246.734 643.111 246.735C643.109 246.736 643.107 246.738 643.105 246.739C643.103 246.74 643.101 246.74 643.099 246.741C643.097 246.742 643.095 246.744 643.093 246.745L643.085 246.749L643.079 246.75C643.077 246.751 643.076 246.753 643.074 246.754C643.072 246.755 643.07 246.755 643.068 246.756L643.056 246.764C643.054 246.765 643.05 246.765 643.048 246.766C643.046 246.767 643.044 246.769 643.043 246.77C643.041 246.77 643.038 246.771 643.037 246.772L643.025 246.779C643.023 246.78 643.019 246.78 643.017 246.781C643.015 246.782 643.013 246.784 643.011 246.785C643.01 246.786 643.007 246.786 643.006 246.787L642.994 246.795C642.992 246.796 642.988 246.795 642.986 246.796C642.984 246.797 642.982 246.799 642.98 246.8C642.978 246.801 642.976 246.801 642.974 246.802L642.963 246.81L642.957 246.812L642.949 246.816C642.947 246.817 642.945 246.817 642.943 246.818C642.941 246.819 642.939 246.82 642.937 246.821C642.936 246.822 642.933 246.822 642.932 246.823C642.93 246.824 642.928 246.826 642.926 246.827L642.918 246.831C642.916 246.832 642.914 246.832 642.912 246.833C642.91 246.834 642.908 246.836 642.906 246.837C642.904 246.838 642.902 246.838 642.9 246.839C642.899 246.84 642.896 246.842 642.895 246.842L642.887 246.846L642.881 246.848C642.879 246.849 642.877 246.851 642.875 246.852C642.873 246.853 642.871 246.853 642.869 246.854L642.858 246.862C642.856 246.863 642.852 246.863 642.85 246.864C642.848 246.865 642.846 246.866 642.844 246.867C642.842 246.868 642.84 246.868 642.838 246.869L642.826 246.877C642.824 246.878 642.821 246.878 642.819 246.879C642.817 246.88 642.815 246.882 642.813 246.883C642.811 246.884 642.809 246.884 642.807 246.885L642.795 246.892C642.793 246.893 642.79 246.893 642.788 246.894C642.786 246.895 642.784 246.897 642.782 246.898C642.78 246.899 642.778 246.899 642.776 246.9L642.764 246.908L642.758 246.91L642.751 246.913C642.749 246.914 642.746 246.914 642.745 246.915C642.743 246.916 642.741 246.918 642.739 246.919C642.737 246.92 642.735 246.92 642.733 246.921C642.731 246.922 642.729 246.924 642.727 246.925L642.719 246.929C642.718 246.93 642.715 246.93 642.714 246.931C642.712 246.932 642.71 246.934 642.708 246.935C642.706 246.935 642.704 246.936 642.702 246.936C642.7 246.937 642.698 246.939 642.696 246.94L642.688 246.944L642.682 246.946C642.68 246.947 642.679 246.949 642.677 246.95C642.675 246.951 642.673 246.951 642.671 246.952L642.659 246.959C642.657 246.96 642.653 246.96 642.651 246.961C642.649 246.962 642.647 246.964 642.645 246.965C642.644 246.966 642.641 246.966 642.64 246.967L642.628 246.975C642.626 246.976 642.622 246.976 642.62 246.977C642.618 246.978 642.616 246.98 642.614 246.981C642.612 246.981 642.61 246.982 642.608 246.982L642.597 246.99C642.595 246.991 642.591 246.991 642.589 246.992C642.587 246.993 642.585 246.995 642.583 246.996C642.581 246.997 642.579 246.997 642.577 246.998L642.566 247.005L642.56 247.007L642.552 247.011C642.55 247.012 642.548 247.012 642.546 247.013C642.544 247.014 642.542 247.016 642.54 247.017C642.538 247.018 642.536 247.018 642.534 247.019C642.533 247.02 642.53 247.022 642.529 247.023L642.521 247.027C642.519 247.027 642.517 247.028 642.515 247.029C642.513 247.03 642.511 247.031 642.509 247.032C642.507 247.033 642.505 247.033 642.503 247.034C642.501 247.035 642.499 247.037 642.497 247.038L642.49 247.042L642.484 247.044C642.482 247.045 642.48 247.047 642.478 247.048C642.476 247.049 642.474 247.049 642.472 247.05L642.46 247.057C642.458 247.058 642.455 247.058 642.453 247.059C642.451 247.06 642.449 247.062 642.447 247.063C642.445 247.064 642.443 247.064 642.441 247.065L642.429 247.073C642.427 247.074 642.424 247.074 642.422 247.075C642.42 247.075 642.418 247.077 642.416 247.078C642.414 247.079 642.412 247.079 642.41 247.08L642.398 247.088C642.396 247.089 642.392 247.089 642.39 247.09C642.389 247.091 642.386 247.093 642.385 247.094C642.383 247.095 642.381 247.095 642.379 247.096L642.367 247.103L642.361 247.105L642.353 247.109C642.352 247.11 642.349 247.11 642.348 247.111C642.346 247.112 642.344 247.114 642.342 247.115C642.34 247.116 642.338 247.116 642.336 247.117C642.334 247.118 642.332 247.12 642.33 247.121L642.322 247.124C642.32 247.125 642.318 247.125 642.316 247.126C642.314 247.127 642.313 247.129 642.311 247.13C642.309 247.131 642.307 247.131 642.305 247.132C642.303 247.133 642.301 247.135 642.299 247.136L642.291 247.14L642.285 247.142C642.283 247.143 642.281 247.145 642.279 247.145C642.278 247.146 642.275 247.147 642.274 247.147L642.262 247.155C642.26 247.156 642.256 247.156 642.254 247.157C642.252 247.158 642.25 247.16 642.248 247.161C642.246 247.162 642.244 247.162 642.242 247.163L642.231 247.17C642.229 247.171 642.225 247.171 642.223 247.172C642.221 247.173 642.219 247.175 642.217 247.176C642.215 247.177 642.213 247.177 642.211 247.178L642.2 247.186C642.198 247.187 642.194 247.187 642.192 247.188C642.19 247.189 642.188 247.191 642.186 247.192C642.184 247.192 642.182 247.193 642.18 247.193L642.168 247.201L642.163 247.203L642.155 247.207C642.153 247.208 642.151 247.208 642.149 247.209C642.147 247.21 642.145 247.212 642.143 247.213C642.141 247.214 642.139 247.214 642.137 247.215C642.136 247.215 642.133 247.217 642.132 247.218L642.124 247.222C642.122 247.223 642.12 247.223 642.118 247.224C642.116 247.225 642.114 247.227 642.112 247.228C642.11 247.229 642.108 247.229 642.106 247.23C642.104 247.231 642.102 247.233 642.1 247.234L642.093 247.238L642.087 247.239C642.085 247.24 642.083 247.242 642.081 247.243C642.079 247.244 642.077 247.244 642.075 247.245L642.063 247.253C642.061 247.254 642.058 247.254 642.056 247.255C642.054 247.256 642.052 247.258 642.05 247.259C642.048 247.26 642.046 247.26 642.044 247.261L642.032 247.268C642.03 247.269 642.027 247.269 642.024 247.27C642.023 247.271 642.021 247.273 642.019 247.274C642.017 247.275 642.015 247.275 642.013 247.276L642.001 247.284C641.999 247.285 641.995 247.284 641.993 247.285C641.991 247.286 641.989 247.288 641.987 247.289C641.986 247.29 641.983 247.29 641.982 247.291L641.97 247.299L641.964 247.301L641.956 247.305C641.954 247.306 641.952 247.306 641.95 247.307C641.948 247.308 641.947 247.309 641.945 247.31C641.943 247.311 641.941 247.311 641.939 247.312C641.937 247.313 641.935 247.315 641.933 247.316L641.925 247.32C641.923 247.321 641.921 247.321 641.919 247.322C641.917 247.323 641.916 247.325 641.913 247.326C641.912 247.327 641.909 247.327 641.908 247.328C641.906 247.329 641.904 247.331 641.902 247.332L641.894 247.335L641.888 247.337C641.886 247.338 641.884 247.34 641.882 247.341C641.881 247.342 641.878 247.342 641.876 247.343L641.865 247.351C641.863 247.352 641.859 247.352 641.857 247.353C641.855 247.354 641.853 247.355 641.851 247.356C641.849 247.357 641.847 247.357 641.845 247.358L641.834 247.366C641.832 247.367 641.828 247.367 641.826 247.368C641.824 247.369 641.822 247.371 641.82 247.372C641.818 247.373 641.816 247.373 641.814 247.374L641.803 247.381C641.8 247.382 641.797 247.382 641.795 247.383C641.793 247.384 641.791 247.386 641.789 247.387C641.787 247.388 641.785 247.388 641.783 247.389L641.771 247.397L641.766 247.399L641.758 247.402C641.756 247.403 641.754 247.404 641.752 247.404C641.75 247.405 641.748 247.407 641.746 247.408C641.744 247.409 641.742 247.409 641.74 247.41C641.738 247.411 641.736 247.413 641.734 247.414L641.727 247.418C641.725 247.419 641.723 247.419 641.721 247.42C641.719 247.421 641.717 247.423 641.715 247.424C641.713 247.424 641.711 247.425 641.709 247.425C641.707 247.426 641.705 247.428 641.703 247.429L641.695 247.433L641.69 247.435C641.688 247.436 641.686 247.438 641.684 247.439C641.682 247.44 641.68 247.44 641.678 247.441L641.666 247.449C641.664 247.45 641.661 247.449 641.658 247.45C641.657 247.451 641.655 247.453 641.653 247.454C641.651 247.455 641.649 247.455 641.647 247.456L641.635 247.464C641.633 247.465 641.629 247.465 641.627 247.466C641.625 247.467 641.623 247.469 641.621 247.47C641.62 247.47 641.617 247.471 641.616 247.472L641.604 247.479C641.602 247.48 641.598 247.48 641.596 247.481C641.594 247.482 641.592 247.484 641.59 247.485C641.589 247.486 641.586 247.486 641.585 247.487L641.573 247.495L641.567 247.496L641.559 247.5C641.557 247.501 641.555 247.501 641.553 247.502C641.551 247.503 641.55 247.505 641.548 247.506C641.546 247.507 641.543 247.507 641.542 247.508C641.54 247.509 641.538 247.511 641.536 247.512L641.528 247.516C641.526 247.517 641.524 247.517 641.522 247.518C641.52 247.519 641.518 247.52 641.516 247.521C641.515 247.522 641.512 247.522 641.511 247.523C641.509 247.524 641.507 247.526 641.505 247.527L641.497 247.531L641.491 247.533C641.489 247.534 641.487 247.536 641.485 247.537C641.483 247.538 641.481 247.538 641.479 247.539L641.468 247.546C641.466 247.547 641.462 247.547 641.46 247.548C641.458 247.549 641.456 247.551 641.454 247.552C641.452 247.553 641.45 247.553 641.448 247.554L641.437 247.562C641.434 247.563 641.431 247.563 641.429 247.564C641.427 247.565 641.425 247.566 641.423 247.567C641.421 247.568 641.419 247.568 641.417 247.569L641.405 247.577C641.403 247.578 641.4 247.578 641.398 247.579C641.396 247.58 641.394 247.582 641.392 247.583C641.39 247.584 641.388 247.584 641.386 247.585L641.374 247.592L641.368 247.594L641.361 247.598C641.359 247.599 641.357 247.599 641.355 247.6C641.353 247.601 641.351 247.603 641.349 247.604C641.347 247.605 641.345 247.605 641.343 247.606C641.341 247.607 641.339 247.609 641.337 247.61L641.329 247.613C641.328 247.614 641.325 247.614 641.324 247.615C641.322 247.616 641.32 247.618 641.318 247.619C641.316 247.62 641.314 247.62 641.312 247.621C641.31 247.622 641.308 247.624 641.306 247.625L641.298 247.629L641.293 247.631C641.291 247.632 641.289 247.634 641.287 247.635C641.285 247.635 641.283 247.636 641.281 247.636L641.269 247.644C641.267 247.645 641.263 247.645 641.261 247.646C641.259 247.647 641.257 247.649 641.256 247.65C641.254 247.651 641.252 247.651 641.25 247.652L641.238 247.659C641.236 247.66 641.232 247.66 641.23 247.661C641.228 247.662 641.226 247.664 641.224 247.665C641.223 247.666 641.22 247.666 641.219 247.667L641.207 247.675C641.205 247.676 641.201 247.676 641.199 247.677C641.197 247.678 641.195 247.68 641.193 247.681C641.191 247.681 641.189 247.682 641.187 247.682L641.176 247.69L641.17 247.692L641.162 247.696C641.16 247.697 641.158 247.697 641.156 247.698C641.154 247.699 641.152 247.701 641.15 247.702C641.149 247.703 641.146 247.703 641.145 247.704C641.143 247.704 641.141 247.707 641.139 247.707L641.131 247.711C641.129 247.712 641.127 247.712 641.125 247.713C641.123 247.714 641.121 247.716 641.119 247.717C641.117 247.718 641.115 247.718 641.113 247.719L640.479 248.032L639.807 248.252C639.938 248.209 640.024 248.181 639.71 248.285C639.763 248.267 639.805 248.253 639.685 248.292L639.661 248.3C639.659 248.301 639.655 248.301 639.653 248.302L639.648 248.306L639.601 248.321C639.674 248.297 639.627 248.312 639.587 248.325L639.307 248.417C639.654 248.303 638.939 248.538 639.286 248.425L639.262 248.432C639.255 248.435 639.248 248.436 639.241 248.438C639.212 248.448 639.18 248.459 639.151 248.469C639.655 248.303 638.602 248.648 639.106 248.482L639.095 248.486L639.091 248.488L639.068 248.496L639.064 248.498L639.046 248.503H639.042L639.019 248.511C639.281 248.425 639.117 248.48 638.976 248.526C639.068 248.496 639.007 248.515 638.957 248.532C639.041 248.505 639.114 248.481 638.935 248.54C638.921 248.544 638.906 248.549 638.892 248.553L638.887 248.555L638.883 248.557L638.871 248.561H638.867L638.861 248.563C638.981 248.523 638.729 248.607 638.851 248.567C639.391 248.39 638.29 248.752 638.83 248.574C638.862 248.564 638.889 248.554 638.82 248.576L638.809 248.58L638.805 248.582L638.799 248.584C638.511 248.678 638.648 248.634 638.789 248.588C639.059 248.499 638.907 248.548 638.768 248.593L638.764 248.595L638.758 248.597L638.754 248.599L638.742 248.603H638.739C638.77 248.593 638.795 248.585 638.729 248.607C638.996 248.519 638.846 248.569 638.707 248.615H638.704L638.692 248.618L638.688 248.62L638.682 248.622L638.678 248.624C638.675 248.625 638.672 248.625 638.668 248.626C638.662 248.628 638.656 248.632 638.649 248.634C639.108 248.483 638.149 248.798 638.608 248.647C638.869 248.562 638.723 248.609 638.589 248.653C638.557 248.663 638.521 248.676 638.579 248.657H638.575L638.569 248.659L638.565 248.661L638.559 248.662L638.556 248.664L638.55 248.666C639.055 248.5 638.028 248.837 638.53 248.672C638.517 248.676 638.505 248.68 638.493 248.684L638.487 248.685L638.48 248.689L638.474 248.691H638.47L638.464 248.693L638.46 248.695L638.454 248.697L638.45 248.699H638.447L638.441 248.701L638.437 248.703L638.431 248.705L638.427 248.707H638.423L638.417 248.709L638.413 248.71L638.408 248.712C637.685 248.95 639.122 248.477 638.4 248.714L638.394 248.716L638.386 248.72L638.357 248.73H638.353C638.458 248.695 638.24 248.768 638.343 248.733L638.34 248.735H638.336L638.33 248.737L638.326 248.739L638.303 248.747L638.299 248.749C638.354 248.731 638.319 248.741 638.289 248.751C638.163 248.792 638.408 248.713 638.281 248.755H638.277L638.254 248.762L638.246 248.766C638.724 248.609 637.756 248.926 638.236 248.768C638.234 248.769 638.231 248.771 638.229 248.772L638.223 248.774H638.219C638.097 248.814 637.97 248.856 638.209 248.778L638.205 248.779H638.201L638.184 248.785C638.181 248.786 638.179 248.788 638.176 248.789L638.17 248.791H638.166L638.158 248.795C637.978 248.854 637.793 248.913 638.149 248.797L638.141 248.801C638.85 248.568 637.422 249.036 638.133 248.802C638.116 248.808 637.886 248.884 637.872 248.889C638.126 248.806 637.609 248.975 637.865 248.891L637.861 248.893H637.857C638.018 248.84 638.175 248.789 637.849 248.896C637.846 248.897 637.844 248.898 637.841 248.898L637.837 248.9H637.833C638.149 248.797 637.985 248.852 637.826 248.904C638.034 248.836 637.924 248.871 637.818 248.906L637.814 248.908H637.81L637.802 248.912H637.798L637.794 248.914H637.793L637.785 248.918H637.781L637.773 248.921H637.769L637.761 248.925H637.757L637.754 248.927H637.752L637.744 248.931H637.74L637.732 248.935H637.728L637.724 248.937H637.72L637.719 248.939L637.715 248.941H637.711L637.703 248.944H637.699L637.695 248.946H637.693L637.685 248.95H637.682L637.678 248.952H637.674L637.672 248.954L637.668 248.956H637.664L637.656 248.96H637.654L637.65 248.962H637.647L637.639 248.965H637.637L637.633 248.967H637.629L637.621 248.971H637.619L637.615 248.973H637.611L637.608 248.975H637.606L637.598 248.979H637.594L637.592 248.981H637.588L637.58 248.985H637.578L637.574 248.987H637.571L637.567 248.989H637.565L637.557 248.992H637.553L637.551 248.994H637.547L637.543 248.996H637.541L637.534 249H637.53L637.528 249.002H637.524L637.52 249.004H637.518L637.51 249.008H637.508L637.504 249.01H637.501L637.499 249.012H637.495L637.491 249.013H637.489L637.481 249.017H637.479L637.475 249.019H637.471L637.469 249.021H637.465L637.464 249.023H637.46L637.456 249.025H637.454L637.446 249.029H637.444L637.44 249.031H637.438L637.434 249.033H637.43L637.428 249.035H637.425L626.568 252.6L624.474 241.515C623.029 233.864 621.932 226.85 621.194 220.49L621.176 220.34L621.165 220.191C620.628 213.849 620.179 207.591 619.821 201.417L619.814 201.277L619.81 201.137C619.636 195.134 619.375 188.774 619.025 182.059L619.017 181.93L619.015 181.802C618.91 177.626 618.731 173.116 618.494 168.27C617.137 168.47 615.77 168.751 614.392 169.121C610.645 170.128 606.895 171.219 603.143 172.395L603.003 172.439L602.861 172.479C599.114 173.534 595.28 174.589 591.36 175.642L591.204 175.682L591.047 175.72C586.536 176.778 581.876 177.291 577.089 177.291C573.607 177.291 569.734 176.642 566.247 174.495C560.49 170.95 559.445 164.857 559.445 160.951C559.445 157.816 560.176 152.175 565.34 148.697C568.165 146.747 571.38 145.758 574.703 145.663C576.945 145.47 579.191 145.48 581.432 145.695C581.73 145.722 581.972 145.735 582.16 145.739C582.264 145.742 582.346 145.739 582.409 145.737L582.614 145.688C584.087 145.325 586.698 144.704 590.4 143.835L590.451 143.823L590.5 143.812C594.446 142.928 598.565 142.048 602.855 141.167C607.01 140.314 610.888 139.464 614.492 138.619L614.542 138.607L614.591 138.596C614.754 138.559 614.913 138.52 615.07 138.484L615.101 138.22C615.248 136.916 615.305 135.898 615.305 135.13V132.261ZM625.272 135.13C625.272 136.347 625.184 137.738 625.007 139.303C625.007 140.694 624.919 142.085 624.742 143.476V146.085C623.33 146.606 620.683 147.302 616.8 148.171C613.094 149.041 609.123 149.91 604.887 150.779C600.651 151.649 596.592 152.518 592.709 153.388C589.003 154.257 586.443 154.866 585.032 155.213C583.973 155.561 582.472 155.648 580.531 155.474C578.766 155.3 577.001 155.3 575.236 155.474C573.648 155.474 572.236 155.909 571 156.778C569.942 157.474 569.412 158.865 569.412 160.951C569.412 163.56 570.118 165.298 571.53 166.168C572.942 167.037 574.795 167.472 577.089 167.472C581.149 167.472 585.032 167.037 588.738 166.168C592.621 165.125 596.415 164.081 600.122 163.038C604.004 161.821 607.887 160.691 611.77 159.647C615.653 158.604 619.536 158.082 623.419 158.082H627.919C628.449 166.776 628.802 174.601 628.978 181.556C629.331 188.338 629.596 194.771 629.772 200.857C630.125 206.943 630.567 213.116 631.096 219.376C631.802 225.461 632.861 232.243 634.273 239.72L636.656 238.937L639.833 237.372C640.891 236.677 641.774 235.981 642.48 235.286C643.186 234.416 643.539 233.373 643.539 232.156C643.539 223.636 642.921 215.202 641.686 206.856C640.45 198.336 639.833 189.642 639.833 180.774V167.994C640.009 165.212 640.097 162.69 640.097 160.43V155.213C640.98 154.866 643.539 154.344 647.775 153.648C652.011 152.779 657.041 151.91 662.865 151.04C668.866 149.997 675.131 148.867 681.661 147.649C688.191 146.432 694.104 145.128 699.399 143.737C704.87 142.172 709.282 140.607 712.636 139.042C715.989 137.304 717.489 135.565 717.136 133.826C716.783 133.13 715.813 132.087 714.224 130.696C712.636 129.131 711.489 128.262 710.783 128.088C708.665 127.566 705.664 127.653 701.781 128.349C697.899 128.87 693.575 129.74 688.809 130.957C684.044 132 679.014 133.217 673.719 134.608C668.601 135.999 663.747 137.304 659.159 138.521C654.57 139.738 650.422 140.781 646.716 141.651C643.01 142.52 640.274 142.955 638.509 142.955H637.715C637.538 142.955 637.362 142.868 637.185 142.694L627.919 67.3162C627.743 66.0991 627.125 65.3166 626.066 64.9688C625.184 64.4472 624.301 64.1864 623.419 64.1864C621.124 64.1864 619.712 65.0558 619.183 66.7946C618.83 68.3595 618.653 70.0114 618.653 71.7502C618.653 76.7928 619.006 81.8354 619.712 86.8779L621.83 102.006C622.713 107.048 623.507 112.091 624.213 117.133C624.919 122.002 625.272 127.045 625.272 132.261V135.13Z" fill="#202020"/>
<path d="M552.907 230.593C552.907 227.464 552.378 224.942 551.319 223.03C550.437 221.117 548.936 218.595 546.818 215.466L528.287 124.96C527.934 123.743 527.051 122.787 525.639 122.091C524.404 121.396 523.257 121.048 522.198 121.048V130.698L540.465 233.723C540.465 233.897 540.73 234.245 541.259 234.767L545.23 238.679C545.936 239.2 546.465 239.548 546.818 239.722C546.818 239.896 546.995 239.983 547.348 239.983H548.407C550.348 239.983 551.584 238.853 552.113 236.592C552.643 234.158 552.907 232.158 552.907 230.593ZM529.081 70.9702C529.081 67.3187 528.11 65.0582 526.169 64.1888C524.404 63.1457 521.58 62.6239 517.697 62.6239C517.697 65.7537 518.138 68.8837 519.021 72.0135C519.903 75.1432 522.11 77.4038 525.639 78.7949C527.581 78.2732 528.64 77.143 528.816 75.4042C528.993 73.6653 529.081 72.1874 529.081 70.9702ZM562.874 230.593C562.874 233.132 562.461 235.886 561.86 238.65L561.825 238.8C561.284 241.111 560.124 243.996 557.571 246.331C554.831 248.838 551.485 249.802 548.407 249.802H547.348C546.662 249.802 544.665 249.768 542.495 248.699C541.879 248.396 541.188 247.979 540.504 247.416C540.023 247.097 539.594 246.788 539.25 246.534L538.684 246.116L538.183 245.621L534.212 241.709C533.809 241.312 533.233 240.719 532.69 240.006C532.421 239.653 531.996 239.058 531.6 238.278C531.361 237.808 530.854 236.74 530.621 235.265L512.381 132.388L512.231 131.55V111.229H522.198C525.334 111.229 528.074 112.21 530.266 113.396C533.501 115.034 536.601 117.888 537.87 122.262L537.979 122.638L556.209 211.672C557.862 214.203 559.25 216.56 560.248 218.667C562.235 222.428 562.874 226.612 562.874 230.593ZM539.048 70.9702C539.048 72.6199 538.931 74.444 538.734 76.3803C538.461 79.0692 537.406 81.8754 535.213 84.2165C533.097 86.4744 530.522 87.6614 528.261 88.2688L525.04 89.1338L521.939 87.9121C516.023 85.581 511.267 81.1996 509.418 74.6409C508.304 70.688 507.73 66.6749 507.73 62.6239V52.8047H517.697C521.861 52.8047 526.716 53.2734 530.778 55.482C537.97 59.0082 539.048 66.5842 539.048 70.9702Z" fill="#202020"/>
<path d="M377.649 200.339V187.415L377.655 187.269C377.828 181.473 377.914 174.964 377.914 167.736V121.31C377.914 114.081 377.828 107.662 377.655 102.045L377.649 101.898V85.8378L378.963 83.5748C379.713 82.283 381.298 79.6645 383.941 77.9288L384.527 77.5682C387.465 75.8747 390.569 75.7579 392.117 75.7578V85.577C390.881 85.5771 389.998 85.751 389.469 86.0986C388.94 86.4466 388.322 87.2293 387.616 88.446V101.748C387.792 107.486 387.881 114.007 387.881 121.31V167.736C387.881 175.039 387.792 181.647 387.616 187.558V200.339C387.616 201.556 387.439 203.816 387.086 207.12C386.91 210.25 386.645 213.554 386.292 217.031C385.939 220.509 385.586 223.813 385.233 226.943C385.057 230.072 384.88 232.333 384.704 233.724C385.41 234.941 386.822 236.245 388.94 237.636C391.057 239.027 392.734 239.723 393.97 239.723C402.618 239.723 411.354 238.94 420.179 237.376C429.003 235.811 437.917 234.159 446.917 232.42C455.918 230.507 464.92 229.029 473.921 227.986C483.098 226.943 492.188 226.856 501.189 227.725C502.071 226.334 502.777 225.117 503.307 224.074C504.013 222.856 504.366 221.465 504.366 219.9C504.366 217.988 503.925 216.249 503.042 214.684C502.336 213.119 500.836 212.337 498.542 212.337C496.071 212.337 493.953 212.597 492.188 213.119C490.423 213.467 488.305 214.249 485.834 215.466C483.893 215.814 480.98 216.249 477.098 216.771L464.126 218.596C459.36 219.118 454.33 219.727 449.035 220.422C443.741 220.944 438.622 221.465 433.681 221.987C428.739 222.509 424.326 223.03 420.444 223.552C416.738 224.074 413.913 224.421 411.972 224.595H409.325V214.776H411.468C413.154 214.613 415.65 214.307 419.034 213.831L419.065 213.827L419.098 213.823C423.097 213.286 427.607 212.753 432.62 212.223C437.548 211.703 442.648 211.182 447.92 210.662C453.144 209.977 458.124 209.373 462.858 208.854C463.29 208.793 462.519 208.904 463.178 208.812L463.637 208.746C464.039 208.69 464.143 208.676 464.54 208.62C465.745 208.45 465.122 208.537 466.308 208.371C466.321 208.369 466.74 208.309 466.74 208.309C466.714 208.313 466.754 208.307 466.954 208.279C467.017 208.27 467.153 208.252 467.061 208.265L467.143 208.254C467.151 208.252 467.16 208.251 467.168 208.25C467.287 208.233 467.104 208.259 467.223 208.242C467.246 208.239 467.252 208.238 467.275 208.234C467.338 208.226 467.471 208.207 467.382 208.219C467.333 208.226 467.552 208.196 467.594 208.19C467.603 208.189 467.611 208.188 467.62 208.186L467.647 208.183L467.752 208.167L467.779 208.163C467.788 208.162 467.796 208.161 467.805 208.16C467.921 208.143 467.742 208.168 467.857 208.152L467.884 208.148C467.893 208.147 467.901 208.145 467.91 208.144L467.937 208.14C467.945 208.139 467.954 208.138 467.962 208.137C467.966 208.136 467.981 208.136 468.015 208.131C468.387 208.078 468.48 208.064 468.848 208.012C468.871 208.009 468.878 208.009 468.901 208.006L469.002 207.991C469.025 207.988 469.032 207.986 469.054 207.983L469.463 207.926C469.531 207.916 469.447 207.929 469.514 207.92L469.666 207.897C469.683 207.894 469.741 207.888 469.868 207.87C469.899 207.866 470.039 207.846 470.07 207.841C470.082 207.84 470.133 207.832 470.119 207.834L470.17 207.826C470.214 207.82 470.176 207.826 470.22 207.82L470.271 207.812C470.891 207.725 469.849 207.871 470.47 207.784C470.823 207.734 470.909 207.723 471.258 207.674C471.301 207.668 471.265 207.673 471.309 207.667C471.316 207.666 471.324 207.664 471.332 207.663C471.34 207.662 471.349 207.66 471.357 207.659C471.341 207.661 471.416 207.652 471.406 207.653C471.448 207.647 471.412 207.652 471.455 207.646C471.884 207.585 471.218 207.679 471.647 207.619C471.733 207.607 471.756 207.604 471.842 207.592C471.926 207.58 471.804 207.596 471.889 207.584C471.995 207.569 471.831 207.594 471.937 207.578C472.001 207.569 471.922 207.58 471.986 207.571C472.07 207.559 471.949 207.577 472.033 207.565C472.041 207.564 472.05 207.562 472.058 207.561C472.066 207.56 472.074 207.558 472.081 207.557C472.145 207.548 472.066 207.561 472.13 207.552C472.213 207.54 472.092 207.556 472.177 207.544C472.283 207.529 472.119 207.553 472.225 207.538C472.246 207.535 472.251 207.533 472.272 207.531C472.357 207.519 472.236 207.537 472.321 207.525C472.308 207.527 472.358 207.519 472.367 207.517C472.389 207.514 472.395 207.514 472.416 207.511C472.499 207.5 472.379 207.516 472.463 207.504C472.61 207.483 472.363 207.519 472.51 207.498C472.531 207.495 472.537 207.493 472.558 207.49C472.683 207.473 472.479 207.502 472.605 207.485C472.599 207.485 472.608 207.483 472.652 207.477C472.672 207.474 472.678 207.474 472.698 207.471C472.824 207.453 472.621 207.481 472.747 207.463C472.777 207.459 472.79 207.458 472.794 207.458C472.877 207.446 472.898 207.442 472.981 207.431C473.105 207.413 472.904 207.442 473.027 207.425C473.033 207.424 473.066 207.419 473.074 207.417C473.082 207.416 473.09 207.417 473.097 207.415L473.168 207.404C473.159 207.405 473.204 207.4 473.214 207.398C473.222 207.397 473.23 207.395 473.238 207.394C473.245 207.393 473.253 207.394 473.261 207.392L473.308 207.385C473.315 207.384 473.323 207.384 473.331 207.383C473.339 207.382 473.347 207.38 473.354 207.379C473.437 207.367 473.457 207.364 473.539 207.352C474.512 207.215 473.303 207.387 474.269 207.251C474.227 207.257 474.5 207.217 474.45 207.224C474.458 207.223 474.466 207.223 474.474 207.222C474.481 207.221 474.488 207.219 474.495 207.218C474.498 207.217 474.511 207.216 474.54 207.212C474.547 207.211 474.556 207.209 474.563 207.208C474.57 207.207 474.577 207.206 474.585 207.205C474.592 207.203 474.601 207.204 474.608 207.203C474.615 207.202 474.622 207.2 474.629 207.199C474.637 207.198 474.645 207.198 474.653 207.197C474.66 207.196 474.667 207.194 474.674 207.193C474.682 207.192 474.69 207.19 474.698 207.189C474.705 207.188 474.712 207.188 474.719 207.187C474.726 207.186 474.735 207.184 474.742 207.183C474.75 207.182 474.757 207.181 474.764 207.18C474.767 207.179 474.779 207.178 474.809 207.174C474.771 207.179 474.955 207.154 474.988 207.149C474.995 207.148 475.002 207.146 475.009 207.145C475.016 207.144 475.023 207.144 475.03 207.143C475.043 207.141 475.062 207.137 475.075 207.135C475.082 207.134 475.09 207.135 475.097 207.134C475.104 207.133 475.113 207.131 475.12 207.13C475.127 207.129 475.134 207.129 475.141 207.128C475.148 207.127 475.156 207.125 475.163 207.124L475.34 207.099C475.449 207.084 475.5 207.076 475.515 207.074C475.522 207.073 475.529 207.073 475.537 207.072L475.579 207.065C475.587 207.064 475.595 207.064 475.603 207.063C475.61 207.062 475.617 207.06 475.624 207.059C475.631 207.058 475.638 207.058 475.646 207.057L475.688 207.049L475.72 207.045L475.753 207.042C478.758 206.638 481.084 206.297 482.776 206.021C485.083 204.965 487.446 204.094 489.792 203.586C492.604 202.814 495.573 202.517 498.542 202.517C500.768 202.517 503.449 202.888 506.052 204.245C508.683 205.618 510.697 207.727 511.952 210.279C513.575 213.302 514.333 216.57 514.333 219.9C514.333 222.868 513.667 225.867 512.121 228.653C511.425 230.005 510.585 231.442 509.641 232.93L506.367 238.091L500.218 237.498C491.942 236.699 483.568 236.773 475.085 237.736C466.404 238.742 457.716 240.171 449.02 242.019L448.928 242.038L448.837 242.055C439.786 243.803 430.821 245.465 421.944 247.039C412.559 248.704 403.231 249.542 393.97 249.542C389.569 249.542 385.753 247.344 383.411 245.806C380.87 244.137 377.912 241.804 376.051 238.595L374.402 235.753L374.815 232.506C374.946 231.477 375.107 229.508 375.282 226.398L375.298 226.128L375.329 225.859C375.677 222.769 376.026 219.501 376.376 216.055C376.716 212.705 376.968 209.546 377.135 206.575L377.149 206.334L377.176 206.092C377.535 202.739 377.649 200.968 377.649 200.339ZM398.47 88.446L396.617 87.4028C395.382 86.5335 394.499 85.9247 393.97 85.577H392.117V75.7578H396.989L399.498 77.4071C400.094 77.7989 400.941 78.3834 401.98 79.1121C402.127 79.1947 402.263 79.2727 402.373 79.3345C402.718 79.5286 402.686 79.5099 402.953 79.6606L403.008 79.6912C403.015 79.6955 403.051 79.715 403.06 79.72L403.156 79.7737C403.206 79.8019 403.269 79.8388 403.3 79.8562C403.328 79.8719 403.328 79.8702 403.35 79.883L403.356 79.8869H403.358V79.8888L403.37 79.8945L403.38 79.9003C403.381 79.9013 403.386 79.9034 403.387 79.9041C403.396 79.9089 403.392 79.9076 403.399 79.9118L403.409 79.9156C403.411 79.917 403.411 79.9164 403.413 79.9175L403.417 79.9214L408.437 82.7482V214.776H409.325V224.595H405.089C403.677 224.421 402.353 224.247 401.118 224.074C399.883 223.9 399 223.813 398.47 223.813V88.446Z" fill="#202020"/>
</svg>
