<svg width="40" height="40" viewBox="0 0 40 40" fill="none" xmlns="http://www.w3.org/2000/svg">
<path d="M20.0001 20.0007C20.9167 20.0007 21.7015 19.6743 22.3542 19.0215C23.007 18.3687 23.3334 17.584 23.3334 16.6673C23.3334 15.7507 23.007 14.9659 22.3542 14.3132C21.7015 13.6604 20.9167 13.334 20.0001 13.334C19.0834 13.334 18.2987 13.6604 17.6459 14.3132C16.9931 14.9659 16.6667 15.7507 16.6667 16.6673C16.6667 17.584 16.9931 18.3687 17.6459 19.0215C18.2987 19.6743 19.0834 20.0007 20.0001 20.0007ZM20.0001 36.6673C15.5279 32.8618 12.1876 29.327 9.97925 26.0632C7.77091 22.7993 6.66675 19.7784 6.66675 17.0007C6.66675 12.834 8.00703 9.51454 10.6876 7.04232C13.3681 4.5701 16.4723 3.33398 20.0001 3.33398C23.5279 3.33398 26.632 4.5701 29.3126 7.04232C31.9931 9.51454 33.3334 12.834 33.3334 17.0007C33.3334 19.7784 32.2292 22.7993 30.0209 26.0632C27.8126 29.327 24.4723 32.8618 20.0001 36.6673Z" fill="#FF491A"/>
</svg>
