<svg width="19" height="17" viewBox="0 0 19 17" fill="none" xmlns="http://www.w3.org/2000/svg">
<path d="M5.8365 9.47125H7.3365V6.56725C7.3365 5.97492 7.54833 5.46792 7.972 5.04625C8.39567 4.62442 8.905 4.4135 9.5 4.4135V2.9135C8.48983 2.9135 7.62667 3.26992 6.9105 3.98275C6.1945 4.69558 5.8365 5.55708 5.8365 6.56725V9.47125ZM0 17V11.625H2.9135V6.56725C2.9135 4.73792 3.5525 3.186 4.8305 1.9115C6.10867 0.637167 7.66508 0 9.49975 0C11.3346 0 12.8911 0.637167 14.1693 1.9115C15.4474 3.186 16.0865 4.73792 16.0865 6.56725V11.625H19V17H0Z" fill="#202020"/>
</svg>
