<svg width="32" height="32" viewBox="0 0 32 32" fill="none" xmlns="http://www.w3.org/2000/svg">
<path d="M3.33335 28.6663V27.316H8.00002C7.36869 26.7376 6.66058 26.0462 5.87569 25.242C5.0908 24.4378 4.36213 23.5632 3.68969 22.6183C3.11191 21.8088 2.62958 20.9611 2.24269 20.0753C1.8558 19.1896 1.66235 18.3072 1.66235 17.4283C1.66235 15.393 2.32902 13.6992 3.66235 12.347C4.99569 10.9946 6.65313 10.3183 8.63469 10.3183C10.616 10.3183 12.273 10.9946 13.6057 12.347C14.9381 13.6992 15.6044 15.393 15.6044 17.4283C15.6044 18.3072 15.4109 19.1896 15.024 20.0753C14.6371 20.9611 14.1548 21.8088 13.577 22.6183C12.9046 23.5723 12.1715 24.4515 11.3777 25.2557C10.5839 26.0599 9.8728 26.7467 9.24435 27.316H28.6667V28.6663H3.33335ZM8.63635 19.0477C9.17902 19.0477 9.64013 18.8582 10.0197 18.4793C10.3992 18.1007 10.589 17.6372 10.589 17.089C10.589 16.5463 10.3982 16.0831 10.0167 15.6993C9.63513 15.3156 9.17302 15.1237 8.63035 15.1237C8.08769 15.1237 7.62658 15.3153 7.24702 15.6987C6.86747 16.082 6.67769 16.5462 6.67769 17.0913C6.67769 17.642 6.86846 18.1057 7.25002 18.4823C7.63158 18.8592 8.09369 19.0477 8.63635 19.0477ZM19.7224 22.992L17.7897 19.9843C17.9157 19.5539 18.016 19.1255 18.0907 18.699C18.1654 18.2728 18.2027 17.8482 18.2027 17.4253C18.2027 16.9302 18.1699 16.4453 18.1044 15.9707C18.0388 15.496 17.9388 15.0368 17.8044 14.593L19.9667 13.3023L22.4617 14.8073L21.799 11.9713L24.0197 10.038L21.098 9.79201L19.9584 7.11501L18.836 9.79701L14.87 10.1373C14.3607 9.64779 13.8021 9.23101 13.1944 8.88701C12.5868 8.54279 11.9315 8.27267 11.2284 8.07667V3.33301H28.6667V19.463H21.9284L19.7224 22.992Z" fill="#202020"/>
</svg>
