<svg width="14" height="14" viewBox="0 0 14 14" fill="none" xmlns="http://www.w3.org/2000/svg">
<path d="M9.89665 6.00479L4.43126 11.4702C4.38818 11.5132 4.38819 11.5132 4.35049 11.5509C4.30742 11.5509 4.26973 11.5509 4.22665 11.5509H2.73511C2.56819 11.5509 2.44434 11.4271 2.44434 11.2602V9.81171C2.44434 9.76863 2.44434 9.73094 2.48741 9.68787C2.48741 9.64479 2.5305 9.6071 2.56819 9.6071L7.78588 4.30325L7.99049 4.09863L9.89665 6.00479Z" fill="#202020"/>
<path d="M11.1783 4.72395L10.2684 5.63395L10.1876 5.55318L9.85374 5.21934L8.81989 4.18549L8.48604 3.85164L8.40527 3.77087L9.31527 2.86088C9.85374 2.32242 10.683 2.32242 11.2214 2.86088C11.7168 3.35626 11.7168 4.18549 11.1783 4.72395Z" fill="#202020"/>
</svg>
