<svg width="24" height="24" viewBox="0 0 24 24" fill="none" xmlns="http://www.w3.org/2000/svg">
<path d="M6 14.002H9.075L14.05 9.00195C14.2 8.85195 14.3125 8.68112 14.3875 8.48945C14.4625 8.29779 14.5 8.11029 14.5 7.92695C14.5 7.74362 14.4625 7.56445 14.3875 7.38945C14.3125 7.21445 14.2083 7.05195 14.075 6.90195L13.15 5.95195C13 5.80195 12.8333 5.68945 12.65 5.61445C12.4667 5.53945 12.275 5.50195 12.075 5.50195C11.8917 5.50195 11.7083 5.53945 11.525 5.61445C11.3417 5.68945 11.175 5.80195 11.025 5.95195L6 10.927V14.002ZM12.05 8.90195L11.1 7.97695L12.075 7.00195L13 7.95195L12.05 8.90195ZM11.2 14.002H18V12.002H13.2L11.2 14.002ZM2 22.002V4.00195C2 3.45195 2.19583 2.98112 2.5875 2.58945C2.97917 2.19779 3.45 2.00195 4 2.00195H20C20.55 2.00195 21.0208 2.19779 21.4125 2.58945C21.8042 2.98112 22 3.45195 22 4.00195V16.002C22 16.552 21.8042 17.0228 21.4125 17.4145C21.0208 17.8061 20.55 18.002 20 18.002H6L2 22.002Z" fill="#202020"/>
</svg>
