<svg width="16" height="16" viewBox="0 0 16 16" fill="none" xmlns="http://www.w3.org/2000/svg">
<path d="M7.62338 2.56659C7.75938 2.22259 8.23939 2.22259 8.36739 2.56659L9.71938 6.05461C9.77538 6.19861 9.91138 6.30261 10.0714 6.31061L13.8074 6.5186C14.1754 6.5426 14.3194 6.99861 14.0394 7.23061L11.1354 9.5986C11.0154 9.6946 10.9594 9.86259 10.9994 10.0146L11.9594 13.6386C12.0554 13.9906 11.6634 14.2786 11.3594 14.0786L8.21538 12.0466C8.08738 11.9586 7.91138 11.9586 7.78338 12.0466L4.63938 14.0786C4.33538 14.2786 3.94338 13.9906 4.03938 13.6386L4.99938 10.0146C5.03938 9.86259 4.99138 9.7026 4.86338 9.5986L1.95938 7.23061C1.67938 6.99861 1.82339 6.5426 2.19139 6.5186L5.92738 6.31061C6.08738 6.30261 6.22339 6.20661 6.27939 6.05461L7.62338 2.56659Z" fill="#FF491A"/>
</svg>
