<svg width="32" height="32" viewBox="0 0 32 32" fill="none" xmlns="http://www.w3.org/2000/svg">
<path d="M21.1842 19.0883C22.2402 17.5842 22.8802 15.7762 22.8802 13.8082C22.8802 8.75225 18.7682 4.65625 13.7282 4.65625C8.68816 4.65625 4.59216 8.75225 4.59216 13.8082C4.59216 18.8482 8.68816 22.9443 13.7282 22.9443C15.7762 22.9443 17.6482 22.2722 19.1682 21.1362L25.0082 26.9923L27.0402 24.9443L21.1842 19.0883ZM13.7282 20.0642C10.2722 20.0642 7.47216 17.2483 7.47216 13.8082C7.47216 10.3523 10.2722 7.53625 13.7282 7.53625C17.1842 7.53625 20.0002 10.3523 20.0002 13.8082C20.0002 17.2483 17.1842 20.0642 13.7282 20.0642Z" fill="#FF491A"/>
</svg>
