<svg width="16" height="16" viewBox="0 0 16 16" fill="none" xmlns="http://www.w3.org/2000/svg">
<path d="M2.70983 12.8316H13.2908C13.3507 12.8316 13.3999 12.8124 13.4383 12.7739C13.4768 12.7355 13.496 12.6863 13.496 12.6264V11.2483C13.496 11.1913 13.4768 11.1428 13.4383 11.1029C13.3999 11.063 13.3507 11.0431 13.2908 11.0431H2.70983C2.64994 11.0431 2.60077 11.063 2.56233 11.1029C2.52388 11.1428 2.50466 11.1913 2.50466 11.2483V12.6264C2.50466 12.6863 2.52388 12.7355 2.56233 12.7739C2.60077 12.8124 2.64994 12.8316 2.70983 12.8316ZM5.61449 8.65694H6.45199V6.69627C6.45199 6.27283 6.60244 5.90883 6.90333 5.60427C7.2041 5.29971 7.56977 5.14744 8.00033 5.14744V4.30994C7.33877 4.30994 6.77571 4.54316 6.31116 5.0096C5.84671 5.47594 5.61449 6.03816 5.61449 6.69627V8.65694ZM4.47166 10.2056H11.529V6.69277C11.529 5.71444 11.1858 4.88333 10.4995 4.19944C9.81327 3.51555 8.97983 3.1736 7.99916 3.1736C7.01849 3.1736 6.18538 3.51555 5.49983 4.19944C4.81438 4.88333 4.47166 5.71444 4.47166 6.69277V10.2056ZM2.70983 13.6693C2.42527 13.6693 2.18033 13.5666 1.97499 13.3613C1.76966 13.1559 1.66699 12.911 1.66699 12.6264V11.2483C1.66699 10.9637 1.76966 10.7188 1.97499 10.5136C2.18033 10.3083 2.42527 10.2056 2.70983 10.2056H3.63416V6.69627C3.63416 5.4886 4.05916 4.45994 4.90916 3.61027C5.75916 2.76072 6.78949 2.33594 8.00016 2.33594C9.21094 2.33594 10.2414 2.76072 11.0915 3.61027C11.9415 4.45994 12.3665 5.4886 12.3665 6.69627V10.2056H13.2908C13.5754 10.2056 13.8203 10.3083 14.0257 10.5136C14.231 10.7188 14.3337 10.9637 14.3337 11.2483V12.6264C14.3337 12.911 14.231 13.1559 14.0257 13.3613C13.8203 13.5666 13.5754 13.6693 13.2908 13.6693H2.70983Z" fill="#202020" fill-opacity="0.4"/>
</svg>
