<svg width="20" height="20" viewBox="0 0 20 20" fill="none" xmlns="http://www.w3.org/2000/svg">
<path d="M4.5 18V12H3V8C3 7.5875 3.14687 7.23438 3.44062 6.94063C3.73437 6.64688 4.0875 6.5 4.5 6.5H7.5C7.9125 6.5 8.26562 6.64688 8.55937 6.94063C8.85312 7.23438 9 7.5875 9 8V12H7.5V18H4.5ZM5.99479 5.5C5.51215 5.5 5.10069 5.32813 4.76042 4.98438C4.42014 4.64063 4.25 4.22743 4.25 3.74479C4.25 3.26215 4.42187 2.85069 4.76562 2.51042C5.10937 2.17014 5.52257 2 6.00521 2C6.48785 2 6.89931 2.17188 7.23958 2.51563C7.57986 2.85938 7.75 3.27257 7.75 3.75521C7.75 4.23785 7.57812 4.64931 7.23437 4.98958C6.89062 5.32986 6.47743 5.5 5.99479 5.5ZM12.5 18V14H10L12.1875 7.45833C12.2847 7.18056 12.4528 6.95139 12.6917 6.77083C12.9306 6.59028 13.2 6.5 13.5 6.5C13.8 6.5 14.0694 6.59028 14.3083 6.77083C14.5472 6.95139 14.7153 7.18056 14.8125 7.45833L17 14H14.5V18H12.5ZM13.4948 5.5C13.0122 5.5 12.6007 5.32813 12.2604 4.98438C11.9201 4.64063 11.75 4.22743 11.75 3.74479C11.75 3.26215 11.9219 2.85069 12.2656 2.51042C12.6094 2.17014 13.0226 2 13.5052 2C13.9878 2 14.3993 2.17188 14.7396 2.51563C15.0799 2.85938 15.25 3.27257 15.25 3.75521C15.25 4.23785 15.0781 4.64931 14.7344 4.98958C14.3906 5.32986 13.9774 5.5 13.4948 5.5Z" fill="#202020"/>
</svg>
