<svg width="28" height="28" viewBox="0 0 28 28" fill="none" xmlns="http://www.w3.org/2000/svg">
<path d="M16.6289 15.8848C17.6688 15.8848 18.6979 16.1002 19.6562 16.5166C20.6144 16.933 21.4828 17.5424 22.2119 18.3076C22.9409 19.0727 23.5173 19.9791 23.9092 20.9736C24.301 21.9681 24.5014 23.0326 24.5 24.1064C24.4997 24.6272 24.3023 25.1344 23.9404 25.5137C23.5771 25.8943 23.0757 26.1152 22.5449 26.1152H5.45898C5.19695 26.1152 4.9383 26.0618 4.69824 25.958C4.45811 25.8542 4.24179 25.7028 4.06152 25.5146C3.88133 25.3265 3.74027 25.1046 3.64453 24.8633C3.54899 24.6224 3.50009 24.3653 3.5 24.1064C3.49729 21.9456 4.31396 19.8645 5.78223 18.3213C7.25172 16.7768 9.25555 15.8966 11.3564 15.8848H16.6289ZM11.3633 17.5C9.71333 17.51 8.12696 18.2018 6.95312 19.4355C5.77773 20.671 5.11298 22.3491 5.11523 24.1045C5.11523 24.1609 5.12649 24.2171 5.14648 24.2676C5.16649 24.318 5.19485 24.3623 5.22852 24.3975C5.26192 24.4322 5.29984 24.4577 5.33887 24.4746C5.37798 24.4915 5.41887 24.5 5.45898 24.5H22.5449C22.6224 24.5 22.7056 24.4685 22.7725 24.3984C22.8405 24.3271 22.8848 24.2219 22.8848 24.1055H23.6924L22.8848 24.1045C22.8859 23.2325 22.7231 22.3695 22.4062 21.5654C22.0894 20.7615 21.6249 20.0336 21.042 19.4219C20.4591 18.8101 19.7686 18.327 19.0117 17.998C18.2551 17.6693 17.4456 17.5 16.6289 17.5H11.3633Z" fill="black"/>
<path fill-rule="evenodd" clip-rule="evenodd" d="M14.0005 5.65396C12.2161 5.65396 10.7697 7.10042 10.7697 8.88473C10.7697 10.669 12.2161 12.1155 14.0005 12.1155C15.7848 12.1155 17.2312 10.669 17.2312 8.88473C17.2312 7.10042 15.7848 5.65396 14.0005 5.65396ZM9.1543 8.88473C9.1543 6.20827 11.324 4.03857 14.0005 4.03857C16.6769 4.03857 18.8466 6.20827 18.8466 8.88473C18.8466 11.5612 16.6769 13.7309 14.0005 13.7309C11.324 13.7309 9.1543 11.5612 9.1543 8.88473Z" fill="black"/>
</svg>
