<svg width="14" height="14" viewBox="0 0 14 14" fill="none" xmlns="http://www.w3.org/2000/svg">
<path d="M3.4987 11.375C2.93559 11.375 2.45453 11.1755 2.05553 10.7765C1.65653 10.3775 1.45703 9.89644 1.45703 9.33333V4.66667C1.45703 4.10356 1.65653 3.6225 2.05553 3.2235C2.45453 2.8245 2.93559 2.625 3.4987 2.625H10.4987C11.0618 2.625 11.5429 2.8245 11.9419 3.2235C12.3409 3.6225 12.5404 4.10356 12.5404 4.66667V9.33333C12.5404 9.89644 12.3409 10.3775 11.9419 10.7765C11.5429 11.1755 11.0618 11.375 10.4987 11.375H3.4987ZM3.4987 4.8125H10.4987C10.7201 4.8125 10.9289 4.84429 11.1252 4.90787C11.3215 4.97146 11.5015 5.06795 11.6654 5.19735V4.66667C11.6654 4.34583 11.5511 4.07118 11.3227 3.84271C11.0942 3.61424 10.8195 3.5 10.4987 3.5H3.4987C3.17786 3.5 2.90321 3.61424 2.67474 3.84271C2.44627 4.07118 2.33203 4.34583 2.33203 4.66667V5.19735C2.49585 5.06795 2.67591 4.97146 2.8722 4.90787C3.06849 4.84429 3.27732 4.8125 3.4987 4.8125ZM2.38584 6.55696L8.93711 8.14873C9.01713 8.16817 9.09811 8.1691 9.18007 8.1515C9.26193 8.1339 9.33616 8.09783 9.40276 8.04329L11.5028 6.27871C11.407 6.10293 11.2699 5.96045 11.0915 5.85127C10.9132 5.74209 10.7156 5.6875 10.4987 5.6875H3.4987C3.22346 5.6875 2.98454 5.7681 2.78193 5.92929C2.57922 6.09039 2.44719 6.29961 2.38584 6.55696Z" fill="#202020" fill-opacity="0.8"/>
</svg>
