<svg width="14" height="14" viewBox="0 0 14 14" fill="none" xmlns="http://www.w3.org/2000/svg">
<path d="M9.02461 9.64531L9.63945 9.03047L7.4362 6.82722V4.08789H6.5612V7.18174L9.02461 9.64531ZM6.99972 12.5462C6.23322 12.5462 5.51275 12.4008 4.83832 12.1099C4.16389 11.819 3.57725 11.4242 3.07841 10.9256C2.57956 10.4269 2.18459 9.84053 1.89351 9.16639C1.60252 8.49225 1.45703 7.77198 1.45703 7.00558C1.45703 6.23908 1.60248 5.51861 1.89336 4.84418C2.18425 4.16975 2.57902 3.58311 3.07768 3.08427C3.57633 2.58542 4.16273 2.19045 4.83686 1.89937C5.511 1.60838 6.23127 1.46289 6.99768 1.46289C7.76418 1.46289 8.48464 1.60833 9.15907 1.89922C9.8335 2.19011 10.4201 2.58488 10.919 3.08354C11.4178 3.58219 11.8128 4.16859 12.1039 4.84272C12.3949 5.51686 12.5404 6.23713 12.5404 7.00354C12.5404 7.77004 12.3949 8.4905 12.104 9.16493C11.8131 9.83936 11.4184 10.426 10.9197 10.9248C10.4211 11.4237 9.83467 11.8187 9.16053 12.1097C8.48639 12.4007 7.76612 12.5462 6.99972 12.5462Z" fill="#202020" fill-opacity="0.8"/>
</svg>
