<svg width="20" height="20" viewBox="0 0 20 20" fill="none" xmlns="http://www.w3.org/2000/svg">
<path d="M10.0048 17C9.44604 17 8.97222 16.8072 8.58333 16.4215C8.19444 16.0356 8 15.5634 8 15.0048C8 14.446 8.19285 13.9722 8.57854 13.5833C8.96438 13.1944 9.4366 13 9.99521 13C10.554 13 11.0278 13.1928 11.4167 13.5785C11.8056 13.9644 12 14.4366 12 14.9952C12 15.554 11.8072 16.0278 11.4215 16.4167C11.0356 16.8056 10.5634 17 10.0048 17ZM4.95833 11.9583L3.54167 10.5417C4.40278 9.75 5.37896 9.12847 6.47021 8.67708C7.5616 8.22569 8.73868 8 10.0015 8C11.2644 8 12.441 8.22569 13.5312 8.67708C14.6215 9.12847 15.5972 9.75 16.4583 10.5417L15.0417 11.9583C14.375 11.3472 13.6124 10.8681 12.7537 10.5208C11.895 10.1736 10.9771 10 10 10C9.02292 10 8.105 10.1736 7.24625 10.5208C6.38764 10.8681 5.625 11.3472 4.95833 11.9583ZM1.41667 8.4375L0 7C1.30556 5.75 2.8125 4.77083 4.52083 4.0625C6.22917 3.35417 8.05556 3 10 3C11.9444 3 13.7708 3.35417 15.4792 4.0625C17.1875 4.77083 18.6944 5.75 20 7L18.5833 8.4375C17.4583 7.36806 16.1644 6.52778 14.7017 5.91667C13.2389 5.30556 11.6717 5 10 5C8.32833 5 6.76111 5.30556 5.29833 5.91667C3.83556 6.52778 2.54167 7.36806 1.41667 8.4375Z" fill="#202020"/>
</svg>
