<svg width="32" height="32" viewBox="0 0 32 32" fill="none" xmlns="http://www.w3.org/2000/svg">
<path d="M3.55571 28.0001C2.95571 28.0001 2.43526 27.7797 1.99437 27.3391C1.55371 26.8982 1.33337 26.3777 1.33337 25.7777V9.0444C1.33337 8.45929 1.55371 7.94262 1.99437 7.4944C2.43526 7.0464 2.95571 6.8224 3.55571 6.8224H8.22237L10.6667 4.00007H19.4224V6.2224H11.6777L9.24437 9.0444H3.55571V25.7777H25.7777V12.5777H28V25.7777C28 26.3777 27.7759 26.8982 27.3277 27.3391C26.8797 27.7797 26.363 28.0001 25.7777 28.0001H3.55571ZM25.7777 9.0224V6.2224H22.9777V4.00007H25.7777V1.17773H28V4.00007H30.8224V6.2224H28V9.0224H25.7777ZM14.6557 23.1777C16.2853 23.1777 17.6575 22.6204 18.7724 21.5057C19.887 20.3908 20.4444 19.0186 20.4444 17.3891C20.4444 15.7593 19.887 14.3907 18.7724 13.2834C17.6575 12.1761 16.2853 11.6224 14.6557 11.6224C13.0259 11.6224 11.6574 12.1761 10.55 13.2834C9.44271 14.3907 8.88904 15.7593 8.88904 17.3891C8.88904 19.0186 9.44271 20.3908 10.55 21.5057C11.6574 22.6204 13.0259 23.1777 14.6557 23.1777ZM14.6557 20.9557C13.6408 20.9557 12.7964 20.615 12.1224 19.9334C11.4482 19.2518 11.111 18.4037 11.111 17.3891C11.111 16.3742 11.4482 15.5297 12.1224 14.8557C12.7964 14.1815 13.6408 13.8444 14.6557 13.8444C15.6704 13.8444 16.5185 14.1815 17.2 14.8557C17.8816 15.5297 18.2224 16.3742 18.2224 17.3891C18.2224 18.4037 17.8816 19.2518 17.2 19.9334C16.5185 20.615 15.6704 20.9557 14.6557 20.9557Z" fill="white"/>
</svg>
