<svg width="28" height="28" viewBox="0 0 28 28" fill="none" xmlns="http://www.w3.org/2000/svg">
<path d="M14 22.4811C13.5188 22.4811 13.1068 22.3097 12.7642 21.9669C12.4214 21.6243 12.25 21.2124 12.25 20.7311C12.25 20.2499 12.4214 19.8378 12.7642 19.495C13.1068 19.1524 13.5188 18.9811 14 18.9811C14.4813 18.9811 14.8932 19.1524 15.2358 19.495C15.5786 19.8378 15.75 20.2499 15.75 20.7311C15.75 21.2124 15.5786 21.6243 15.2358 21.9669C14.8932 22.3097 14.4813 22.4811 14 22.4811ZM14 15.7503C13.5188 15.7503 13.1068 15.5789 12.7642 15.2361C12.4214 14.8935 12.25 14.4816 12.25 14.0003C12.25 13.5191 12.4214 13.1071 12.7642 12.7645C13.1068 12.4217 13.5188 12.2503 14 12.2503C14.4813 12.2503 14.8932 12.4217 15.2358 12.7645C15.5786 13.1071 15.75 13.5191 15.75 14.0003C15.75 14.4816 15.5786 14.8935 15.2358 15.2361C14.8932 15.5789 14.4813 15.7503 14 15.7503ZM14 9.01953C13.5188 9.01953 13.1068 8.84823 12.7642 8.50561C12.4214 8.16281 12.25 7.75078 12.25 7.26953C12.25 6.78828 12.4214 6.37635 12.7642 6.03374C13.1068 5.69093 13.5187 5.51953 14 5.51953C14.4812 5.51953 14.8932 5.69093 15.2358 6.03374C15.5786 6.37635 15.75 6.78828 15.75 7.26953C15.75 7.75078 15.5786 8.16281 15.2358 8.50561C14.8932 8.84823 14.4812 9.01953 14 9.01953Z" fill="#202020" fill-opacity="0.4"/>
</svg>
