<svg width="32" height="32" viewBox="0 0 32 32" fill="none" xmlns="http://www.w3.org/2000/svg">
<path d="M16.003 7.63105L17.971 12.6871C18.307 13.5671 19.139 14.159 20.083 14.223L25.507 14.5271L21.299 17.9511C20.579 18.5431 20.259 19.5191 20.499 20.4311L21.891 25.6791L17.331 22.7351C16.947 22.4791 16.483 22.3511 16.019 22.3511C15.555 22.3511 15.107 22.4791 14.723 22.7351L10.1631 25.6791L11.555 20.4311C11.795 19.5191 11.475 18.559 10.755 17.967L6.54704 14.5431L11.971 14.2391C12.915 14.1911 13.731 13.5831 14.083 12.7031L16.003 7.63105ZM16.003 4.62305C15.699 4.62305 15.395 4.79906 15.251 5.13506L12.547 12.111C12.435 12.399 12.163 12.607 11.843 12.623L4.37104 13.0391C3.63504 13.0871 3.34705 13.999 3.90705 14.463L9.71505 19.1991C9.95505 19.3911 10.0671 19.7271 9.98705 20.0311L8.06703 27.2791C7.92303 27.8231 8.35505 28.2871 8.83505 28.2871C8.97905 28.2871 9.12303 28.239 9.26703 28.159L15.571 24.0951C15.699 24.0151 15.859 23.967 16.003 23.967C16.147 23.967 16.307 24.0151 16.4351 24.0951L22.7391 28.159C22.8831 28.255 23.027 28.2871 23.171 28.2871C23.651 28.2871 24.0831 27.8231 23.9391 27.2791L22.019 20.0311C21.939 19.7271 22.051 19.4071 22.291 19.1991L28.099 14.463C28.659 13.999 28.371 13.0871 27.635 13.0391L20.1631 12.623C19.8431 12.607 19.571 12.399 19.459 12.111L16.755 5.13506C16.611 4.78306 16.307 4.62305 16.003 4.62305Z" fill="#202020"/>
</svg>
