<svg width="32" height="32" viewBox="0 0 32 32" fill="none" xmlns="http://www.w3.org/2000/svg">
<path d="M16.001 22.205C16.2845 22.205 16.522 22.1091 16.7133 21.9173C16.9049 21.7258 17.0007 21.4882 17.0007 21.2047C17.0007 20.9211 16.9048 20.6837 16.713 20.4923C16.5212 20.3008 16.2837 20.205 16.0003 20.205C15.7168 20.205 15.4793 20.3009 15.288 20.4927C15.0964 20.6844 15.0007 20.9221 15.0007 21.2057C15.0007 21.489 15.0965 21.7264 15.2883 21.918C15.4801 22.1093 15.7177 22.205 16.001 22.205ZM16.001 17C16.2845 17 16.522 16.9041 16.7133 16.7123C16.9049 16.5206 17.0007 16.283 17.0007 15.9997C17.0007 15.7161 16.9048 15.4787 16.713 15.2873C16.5212 15.0958 16.2837 15 16.0003 15C15.7168 15 15.4793 15.0959 15.288 15.2877C15.0964 15.4794 15.0007 15.717 15.0007 16.0003C15.0007 16.2839 15.0965 16.5213 15.2883 16.7127C15.4801 16.9042 15.7177 17 16.001 17ZM16.001 11.795C16.2845 11.795 16.522 11.6991 16.7133 11.5073C16.9049 11.3156 17.0007 11.0779 17.0007 10.7943C17.0007 10.511 16.9048 10.2736 16.713 10.082C16.5212 9.89067 16.2837 9.795 16.0003 9.795C15.7168 9.795 15.4793 9.89089 15.288 10.0827C15.0964 10.2742 15.0007 10.5118 15.0007 10.7953C15.0007 11.0789 15.0965 11.3163 15.2883 11.5077C15.4801 11.6992 15.7177 11.795 16.001 11.795ZM3.33398 26V19.2053C4.0931 19.06 4.72732 18.6877 5.23665 18.0883C5.74598 17.4892 6.00065 16.7931 6.00065 16C6.00065 15.2069 5.74598 14.5108 5.23665 13.9117C4.72732 13.3123 4.0931 12.94 3.33398 12.7947V6H28.6673V12.7947C27.9082 12.94 27.274 13.3123 26.7646 13.9117C26.2553 14.5108 26.0007 15.2069 26.0007 16C26.0007 16.7931 26.2553 17.4892 26.7646 18.0883C27.274 18.6877 27.9082 19.06 28.6673 19.2053V26H3.33398ZM5.33398 24H26.6673V20.6C25.8451 20.1111 25.1951 19.4611 24.7173 18.65C24.2395 17.8389 24.0007 16.9556 24.0007 16C24.0007 15.0444 24.2395 14.1611 24.7173 13.35C25.1951 12.5389 25.8451 11.8889 26.6673 11.4V8H5.33398V11.4C6.15621 11.8889 6.80621 12.5389 7.28398 13.35C7.76176 14.1611 8.00065 15.0444 8.00065 16C8.00065 16.9556 7.76176 17.8389 7.28398 18.65C6.80621 19.4611 6.15621 20.1111 5.33398 20.6V24Z" fill="#202020"/>
</svg>
