<svg width="28" height="28" viewBox="0 0 28 28" fill="none" xmlns="http://www.w3.org/2000/svg">
<path d="M14.0004 19.4294C14.2485 19.4294 14.4562 19.3455 14.6237 19.1777C14.7913 19.0101 14.8751 18.8022 14.8751 18.5541C14.8751 18.306 14.7912 18.0982 14.6234 17.9308C14.4556 17.7632 14.2477 17.6794 13.9998 17.6794C13.7517 17.6794 13.5439 17.7633 13.3765 17.9311C13.2089 18.0989 13.1251 18.3068 13.1251 18.555C13.1251 18.8029 13.209 19.0106 13.3768 19.1783C13.5446 19.3457 13.7525 19.4294 14.0004 19.4294ZM14.0004 14.875C14.2485 14.875 14.4562 14.7911 14.6237 14.6233C14.7913 14.4555 14.8751 14.2476 14.8751 13.9997C14.8751 13.7516 14.7912 13.5438 14.6234 13.3764C14.4556 13.2088 14.2477 13.125 13.9998 13.125C13.7517 13.125 13.5439 13.2089 13.3765 13.3767C13.2089 13.5445 13.1251 13.7524 13.1251 14.0003C13.1251 14.2484 13.209 14.4562 13.3768 14.6236C13.5446 14.7912 13.7525 14.875 14.0004 14.875ZM14.0004 10.3206C14.2485 10.3206 14.4562 10.2367 14.6237 10.0689C14.7913 9.90111 14.8751 9.69315 14.8751 9.44504C14.8751 9.19713 14.7912 8.98936 14.6234 8.82175C14.4556 8.65433 14.2477 8.57062 13.9998 8.57062C13.7517 8.57062 13.5439 8.65453 13.3765 8.82233C13.2089 8.98994 13.1251 9.1978 13.1251 9.44592C13.1251 9.69403 13.209 9.90179 13.3768 10.0692C13.5446 10.2368 13.7525 10.3206 14.0004 10.3206ZM2.91675 22.75V16.8047C3.58097 16.6775 4.13591 16.3517 4.58158 15.8273C5.02725 15.3031 5.25008 14.694 5.25008 14C5.25008 13.306 5.02725 12.6969 4.58158 12.1727C4.13591 11.6483 3.58097 11.3225 2.91675 11.1953V5.25H25.0834V11.1953C24.4192 11.3225 23.8642 11.6483 23.4186 12.1727C22.9729 12.6969 22.7501 13.306 22.7501 14C22.7501 14.694 22.9729 15.3031 23.4186 15.8273C23.8642 16.3517 24.4192 16.6775 25.0834 16.8047V22.75H2.91675Z" fill="#202020"/>
</svg>
