<svg width="48" height="48" viewBox="0 0 48 48" fill="none" xmlns="http://www.w3.org/2000/svg">
<rect width="48" height="48" rx="24" fill="#171717"/>
<path d="M23.9992 23.9992C22.9159 23.9992 21.9951 23.6201 21.2367 22.8617C20.4784 22.1034 20.0992 21.1826 20.0992 20.0992C20.0992 19.0159 20.4784 18.0951 21.2367 17.3367C21.9951 16.5784 22.9159 16.1992 23.9992 16.1992C25.0826 16.1992 26.0034 16.5784 26.7617 17.3367C27.5201 18.0951 27.8992 19.0159 27.8992 20.0992C27.8992 21.1826 27.5201 22.1034 26.7617 22.8617C26.0034 23.6201 25.0826 23.9992 23.9992 23.9992ZM16.1992 31.7992V29.1992C16.1992 28.7839 16.3121 28.3912 16.5378 28.0211C16.7635 27.651 17.0749 27.3395 17.4721 27.0867C18.4652 26.5089 19.5169 26.0666 20.6273 25.7596C21.7378 25.4527 22.8617 25.2992 23.9992 25.2992C25.1367 25.2992 26.2607 25.4527 27.3711 25.7596C28.4815 26.0666 29.5332 26.5089 30.5263 27.0867C30.9235 27.3214 31.235 27.6284 31.4607 28.0076C31.6864 28.3867 31.7992 28.7839 31.7992 29.1992V31.7992H16.1992Z" fill="white"/>
</svg>
