<svg width="32" height="32" viewBox="0 0 32 32" fill="none" xmlns="http://www.w3.org/2000/svg">
<path d="M3.33398 27.3324V16.6657H11.4876C11.633 17.8111 12.133 18.7641 12.9876 19.5247C13.8425 20.2854 14.8469 20.6657 16.0007 20.6657C17.1715 20.6657 18.1843 20.2854 19.039 19.5247C19.8939 18.7641 20.3854 17.8111 20.5137 16.6657H28.6673V27.3324H3.33398ZM5.33398 25.3324H26.6673V18.6657H22.134C21.57 19.888 20.7401 20.8602 19.6443 21.5824C18.5485 22.3046 17.334 22.6657 16.0007 22.6657C14.6673 22.6657 13.4528 22.3046 12.357 21.5824C11.2612 20.8602 10.4313 19.888 9.86732 18.6657H5.33398V25.3324ZM23.339 14.3221L21.934 12.9171L26.2057 8.64541L27.611 10.0504L23.339 14.3221ZM8.66232 14.3221L4.39032 10.0504L5.79565 8.64541L10.0673 12.9171L8.66232 14.3221ZM15.0007 10.6914V4.69141H17.0007V10.6914H15.0007Z" fill="#202020"/>
</svg>
