<svg width="32" height="32" viewBox="0 0 32 32" fill="none" xmlns="http://www.w3.org/2000/svg">
<path d="M26.0562 27.4367L17.6819 19.062C17.0152 19.6124 16.2486 20.0432 15.3819 20.3543C14.5152 20.6654 13.6187 20.821 12.6922 20.821C10.4134 20.821 8.48469 20.032 6.90624 18.454C5.3278 16.876 4.53857 14.9478 4.53857 12.6693C4.53857 10.3911 5.32757 8.46223 6.90557 6.88267C8.48357 5.30334 10.4118 4.51367 12.6902 4.51367C14.9685 4.51367 16.8974 5.30289 18.4769 6.88134C20.0562 8.45978 20.8459 10.3884 20.8459 12.6673C20.8459 13.6196 20.6861 14.529 20.3666 15.3957C20.0468 16.2623 19.6202 17.0161 19.0869 17.657L27.4612 26.0313L26.0562 27.4367ZM12.6922 18.8213C14.4102 18.8213 15.8654 18.2251 17.0576 17.0327C18.25 15.8404 18.8462 14.3853 18.8462 12.6673C18.8462 10.9493 18.25 9.49423 17.0576 8.302C15.8654 7.10956 14.4102 6.51334 12.6922 6.51334C10.9742 6.51334 9.51913 7.10956 8.32691 8.302C7.13446 9.49423 6.53824 10.9493 6.53824 12.6673C6.53824 14.3853 7.13446 15.8404 8.32691 17.0327C9.51913 18.2251 10.9742 18.8213 12.6922 18.8213ZM11.6922 16.257V13.6673H9.10257V11.6673H11.6922V9.07767H13.6922V11.6673H16.2819V13.6673H13.6922V16.257H11.6922Z" fill="#202020"/>
</svg>
