<svg width="32" height="32" viewBox="0 0 32 32" fill="none" xmlns="http://www.w3.org/2000/svg">
<path d="M26.2546 27.423L17.6956 18.864C17.0311 19.4387 16.26 19.8838 15.3822 20.1993C14.5042 20.5147 13.5956 20.6723 12.6562 20.6723C10.3874 20.6723 8.46713 19.887 6.89557 18.3163C5.32424 16.7457 4.53857 14.8363 4.53857 12.5883C4.53857 10.3401 5.32391 8.43 6.89457 6.858C8.46524 5.286 10.3762 4.5 12.6276 4.5C14.8789 4.5 16.7904 5.28544 18.3619 6.85633C19.9337 8.42744 20.7196 10.3374 20.7196 12.5863C20.7196 13.5263 20.5597 14.4357 20.2399 15.3143C19.9204 16.193 19.47 16.9784 18.8889 17.6707L27.4612 26.2073L26.2546 27.423ZM12.6426 18.9973C14.4295 18.9973 15.9431 18.3756 17.1836 17.132C18.424 15.8882 19.0442 14.3729 19.0442 12.586C19.0442 10.7991 18.424 9.28389 17.1836 8.04033C15.9431 6.79678 14.4295 6.175 12.6426 6.175C10.8481 6.175 9.32802 6.79678 8.08224 8.04033C6.83646 9.28389 6.21357 10.7991 6.21357 12.586C6.21357 14.3729 6.83646 15.8882 8.08224 17.132C9.32802 18.3756 10.8481 18.9973 12.6426 18.9973ZM9.43591 13.4057V11.7307H15.8086V13.4057H9.43591Z" fill="#202020"/>
</svg>
